<?xml version="1.0" encoding="utf-8"?>
<!-- Generator: Adobe Illustrator 23.0.0, SVG Export Plug-In . SVG Version: 6.00 Build 0)  -->
<svg version="1.1" id="图层_1" xmlns="http://www.w3.org/2000/svg" xmlns:xlink="http://www.w3.org/1999/xlink" x="0px" y="0px"
	 viewBox="0 0 1024 1024" style="enable-background:new 0 0 1024 1024;" xml:space="preserve">
<style type="text/css">
	.st0{fill:url(#SVGID_1_);}
</style>
<linearGradient id="SVGID_1_" gradientUnits="userSpaceOnUse" x1="30.3087" y1="867.0814" x2="830.1002" y2="423.7492" gradientTransform="matrix(1 0 0 -1 0 1026)">
	<stop  offset="0" style="stop-color:#0088D3"/>
	<stop  offset="0.3161" style="stop-color:#008FD2"/>
	<stop  offset="0.7673" style="stop-color:#00A2CE"/>
	<stop  offset="1" style="stop-color:#00AECB"/>
</linearGradient>
<path class="st0" d="M696.64,360.87c-15.05,12.77-29.18,26.9-41.95,41.95c-6.38,7.29-12.31,15.05-18.24,22.8
	c-5.93,7.75-11.4,15.96-16.87,23.71c-27.81,39.67-51.98,55.62-63.83,62.92c-13.22,8.21-36.93,19.61-70.21,19.61H371.56
	c0,0,111.25-73.41,148.18-106.69c49.24-44.68,103.95-103.5,89.36-175.53c-9.12-45.59-46.51-81.61-93.47-85.72
	c-67.93-5.93-123.56,38.3-154.56,96.66c-0.91,1.82-1.37,2.74-1.82,4.1c-0.46,1.37-0.46,2.28,0.46,2.74
	c1.37,0.91,2.28,0.46,5.47-4.56c33.74-47.87,95.75-71.13,144.99-45.14c29.18,15.5,42.4,45.59,43.31,76.14
	c2.28,47.42-26.44,90.27-92.55,146.35c-46.05,39.21-95.75,74.77-131.76,101.22l-21.43,15.5c-3.65,2.74-8.21,3.65-10.49,0.46
	c-2.74-2.74-1.82-6.84,0.46-10.03c13.68-21.43,28.72-50.61,31.92-61.1c0.46-1.82,0-2.28-0.46-2.74c-0.46-0.46-1.37-0.46-2.28,0.46
	c-0.91,1.37-0.46,0.46-2.74,3.19c-15.96,21.43-44.68,44.23-94.83,44.23H70.19c0,0,116.26-80.24,148.18-107.14
	s62.01-57.9,79.79-96.66c16.41-36.02,16.41-81.61-3.65-115.81C274.9,179.87,241.62,163,200.59,163
	c-62.92,0-111.25,41.03-140.43,97.57c-0.46,1.37-1.37,2.74-1.82,4.1c-0.46,0.91-0.46,2.28,0.46,2.74c0.46,0,1.37,0.46,2.74-0.91
	c1.37-1.82,1.37-1.37,2.74-3.19c13.22-18.69,42.4-56.54,99.85-56.54c49.7,0.46,86.63,35.11,88.91,85.72
	c2.28,47.42-26.44,92.1-92.55,148.18c-46.51,39.21-96.2,74.77-132.22,100.76L1.8,560.57c-1.37,0.91-1.82,2.74-0.91,4.56
	c0.91,1.82,2.74,1.82,3.65,1.82c1.82,0,22.8-0.91,22.8-0.91c8.66-0.46,25.99-0.91,40.58-1.37c0,0,470.52,0,476.91,0
	c8.21,0,14.13,0.91,19.61,5.93c5.02,5.02,5.93,11.85,4.56,22.34c-12.31,91.64,10.49,187.84,70.21,267.18l0.46,0.46
	c1.37-3.19,3.19-7.75,4.56-10.94c-62.46-85.26-81.16-190.12-59.73-286.78c7.29-30.09,19.61-52.43,35.11-70.21
	c5.93-6.84,14.59-15.05,21.88-20.52c20.52-15.5,45.59-22.8,71.13-22.8h144.07c-22.8,31.92-94.38,121.28-141.8,184.2
	c-29.18,38.75-71.58,96.2-77.05,106.23c-5.02,9.57-5.02,20.97,0,29.18c4.56,7.75,13.22,12.77,24.62,10.94
	c12.31-2.28,19.15-10.03,25.99-23.71c37.84-79.33,91.19-163.68,138.6-232.98c13.22-19.15,26.44-38.3,39.67-57.45
	c5.93-8.21,25.53-34.65,30.09-41.03c1.37-1.82,3.65-4.56,4.1-5.93c0.46-0.91,0.91-2.74,0.46-3.65s-1.82-1.37-2.74-1.37
	c-0.46,0-201.07,0-201.07,0c-7.29,0-15.05-1.37-18.24-8.66c-3.65-8.21,1.82-15.96,6.84-20.97c3.19-3.19,5.93-5.93,9.12-8.66
	c1.82-1.82,3.65-3.19,5.47-5.02c0.91-0.91,2.28-1.82,3.19-2.74c87.54-73.41,203.35-99.39,311.86-72.95
	c2.74-2.74,5.47-5.47,8.21-8.21C909.56,257.83,788.28,284.28,696.64,360.87z"/>
<g>
</g>
<g>
</g>
<g>
</g>
<g>
</g>
<g>
</g>
<g>
</g>
<g>
</g>
<g>
</g>
<g>
</g>
<g>
</g>
<g>
</g>
<g>
</g>
<g>
</g>
<g>
</g>
<g>
</g>
</svg>
