<?xml version="1.0" encoding="utf-8"?>
<!-- Generator: Adobe Illustrator 24.2.3, SVG Export Plug-In . SVG Version: 6.00 Build 0)  -->
<svg version="1.1" id="レイヤー_1" xmlns="http://www.w3.org/2000/svg" xmlns:xlink="http://www.w3.org/1999/xlink" x="0px"
	 y="0px" viewBox="0 0 74 74" style="enable-background:new 0 0 74 74;" xml:space="preserve">
<style type="text/css">
	.st0{fill:#C6ECF6;}
	.st1{fill:none;}
</style>
<g>
	<g>
		<path class="st0" d="M18.8,16.5v38.7c0,1.7-2.2,1.7-2.2,0V21H12v36c0,2.5,2,4.5,4.5,4.5h44.9c2.5,0,4.5-2,4.5-4.5V16.5H18.8z"/>
		<g>
			<g>
				<path d="M37.3,23.8H23.8v9h13.5V23.8z M53,23.8H41.8V26H53V23.8z M53,30.5H41.8v2.3H53V30.5z M53,37.3H23.8v2.2H53V37.3z
					 M14.8,12.5v38.7c0,1.7-2.2,1.7-2.2,0V17H8v36c0,2.5,2,4.5,4.5,4.5h44.9c2.5,0,4.5-2,4.5-4.5V12.5H14.8z M57.5,50.7H19.3V17
					h38.2V50.7z M53,44H23.8v2.3H53V44z"/>
			</g>
		</g>
	</g>
	<rect class="st1" width="74" height="74"/>
</g>
</svg>
