<?xml version="1.0" encoding="utf-8"?>
<!-- Generator: Adobe Illustrator 24.2.3, SVG Export Plug-In . SVG Version: 6.00 Build 0)  -->
<svg version="1.1" id="レイヤー_1" xmlns="http://www.w3.org/2000/svg" xmlns:xlink="http://www.w3.org/1999/xlink" x="0px"
	 y="0px" viewBox="0 0 36 36" style="enable-background:new 0 0 36 36;" xml:space="preserve">
<style type="text/css">
	.st0{fill:url(#SVGID_1_);}
	.st1{fill-rule:evenodd;clip-rule:evenodd;fill:#FFFFFF;}
</style>
<g>
	<linearGradient id="SVGID_1_" gradientUnits="userSpaceOnUse" x1="0" y1="18" x2="36" y2="18">
		<stop  offset="0" style="stop-color:#0088D3"/>
		<stop  offset="0.3161" style="stop-color:#008FD2"/>
		<stop  offset="0.7673" style="stop-color:#00A2CE"/>
		<stop  offset="1" style="stop-color:#00AECB"/>
	</linearGradient>
	<circle class="st0" cx="18" cy="18" r="18"/>
	<g>
		<path class="st1" d="M10.5,16.5h14.9c0.8,0,1.5,0.7,1.5,1.5c0,0.8-0.7,1.5-1.5,1.5H10.5C9.7,19.5,9,18.8,9,18
			C9,17.2,9.7,16.5,10.5,16.5z"/>
		<path class="st1" d="M20.9,11.3l5.7,5.7c0.6,0.6,0.6,1.6,0,2.2c-0.6,0.6-1.6,0.6-2.2,0l-5.7-5.7c-0.6-0.6-0.6-1.6,0-2.2
			C19.3,10.7,20.3,10.7,20.9,11.3z"/>
		<path class="st1" d="M26.5,19.1l-5.7,5.7c-0.6,0.6-1.6,0.6-2.2,0c-0.6-0.6-0.6-1.6,0-2.2l5.7-5.7c0.6-0.6,1.6-0.6,2.2,0
			C27.1,17.5,27.1,18.5,26.5,19.1z"/>
	</g>
</g>
</svg>
