<?xml version="1.0" encoding="utf-8"?>
<!-- Generator: Adobe Illustrator 24.2.3, SVG Export Plug-In . SVG Version: 6.00 Build 0)  -->
<svg version="1.1" id="レイヤー_1" xmlns="http://www.w3.org/2000/svg" xmlns:xlink="http://www.w3.org/1999/xlink" x="0px"
	 y="0px" viewBox="0 0 18 14.4" style="enable-background:new 0 0 18 14.4;" xml:space="preserve">
<style type="text/css">
	.st0{fill-rule:evenodd;clip-rule:evenodd;}
</style>
<g>
	<path class="st0" d="M1.5,5.7h14.9c0.8,0,1.5,0.7,1.5,1.5c0,0.8-0.7,1.5-1.5,1.5H1.5C0.7,8.7,0,8,0,7.2C0,6.3,0.7,5.7,1.5,5.7z"/>
	<path class="st0" d="M11.9,0.4l5.7,5.7c0.6,0.6,0.6,1.6,0,2.2c-0.6,0.6-1.6,0.6-2.2,0L9.7,2.6C9.1,2,9.1,1,9.7,0.4
		C10.3-0.1,11.3-0.1,11.9,0.4z"/>
	<path class="st0" d="M17.5,8.3l-5.7,5.7c-0.6,0.6-1.6,0.6-2.2,0c-0.6-0.6-0.6-1.6,0-2.2l5.7-5.7c0.6-0.6,1.6-0.6,2.2,0
		C18.1,6.7,18.1,7.7,17.5,8.3z"/>
</g>
</svg>
