<?xml version="1.0" encoding="utf-8"?>
<!-- Generator: Adobe Illustrator 24.2.3, SVG Export Plug-In . SVG Version: 6.00 Build 0)  -->
<svg version="1.1" id="レイヤー_1" xmlns="http://www.w3.org/2000/svg" xmlns:xlink="http://www.w3.org/1999/xlink" x="0px"
	 y="0px" viewBox="0 0 54.6 50.6" style="enable-background:new 0 0 54.6 50.6;" xml:space="preserve">
<style type="text/css">
	.st0{fill-rule:evenodd;clip-rule:evenodd;fill:#DDDDDD;}
	.st1{fill:none;stroke:#000000;stroke-width:2;stroke-miterlimit:10;}
</style>
<g>
	<path class="st0" d="M31.2,4.7c13,0,23.5,10.3,23.5,23c0,12.7-10.5,22.9-23.5,22.9c-13,0-23.5-10.3-23.5-22.9
		C7.7,15,18.2,4.7,31.2,4.7z"/>
	<g>
		<g>
			<path class="st1" d="M24.5,1C11.5,1,1,11.3,1,24c0,12.7,10.5,22.9,23.5,22.9S48,36.6,48,24C48,11.3,37.5,1,24.5,1z"/>
		</g>
	</g>
	<g>
		<path d="M24.3,25l-12-9.7h23.9L24.3,25z M24.3,27.6l-12-9.7v15.4h24V17.9L24.3,27.6z"/>
	</g>
</g>
</svg>
