<?xml version="1.0" encoding="utf-8"?>
<!-- Generator: Adobe Illustrator 24.2.3, SVG Export Plug-In . SVG Version: 6.00 Build 0)  -->
<svg version="1.1" id="レイヤー_1" xmlns="http://www.w3.org/2000/svg" xmlns:xlink="http://www.w3.org/1999/xlink" x="0px"
	 y="0px" viewBox="0 0 57.3 44.5" style="enable-background:new 0 0 57.3 44.5;" xml:space="preserve">
<style type="text/css">
	.st0{fill:#EF8C8C;}
	.st1{fill:none;stroke:#000000;stroke-width:3;stroke-linejoin:round;stroke-miterlimit:10;}
</style>
<g>
	<path class="st0" d="M48.1,6.9c-7.6-0.5-24.6-0.5-32.3,0c-8.3,0.6-9.2,5.5-9.3,18.6c0.1,13.1,1,18,9.3,18.6
		c7.6,0.5,24.6,0.5,32.3,0c8.3-0.6,9.2-5.5,9.3-18.6C57.3,12.4,56.3,7.5,48.1,6.9z"/>
	<g>
		<g>
			<path class="st1" d="M43.1,1.9c-7.6-0.5-24.6-0.5-32.3,0C2.5,2.4,1.6,7.4,1.5,20.5c0.1,13.1,1,18,9.3,18.6
				c7.6,0.5,24.6,0.5,32.3,0c8.3-0.6,9.2-5.5,9.3-18.6C52.3,7.4,51.3,2.5,43.1,1.9z"/>
		</g>
	</g>
	<g>
		<path d="M20.6,12.1l16.9,8.4l-16.9,8.5V12.1 M20.6,9.1c-0.5,0-1.1,0.2-1.6,0.4c-0.9,0.5-1.4,1.5-1.4,2.6v16.9c0,1,0.5,2,1.4,2.6
			c0.5,0.3,1,0.4,1.6,0.4c0.5,0,0.9-0.1,1.3-0.3l16.9-8.5c1-0.5,1.7-1.5,1.7-2.7c0-1.1-0.6-2.2-1.7-2.7L21.9,9.4
			C21.5,9.2,21,9.1,20.6,9.1L20.6,9.1z"/>
	</g>
</g>
</svg>
