<?xml version="1.0" encoding="utf-8"?>
<!-- Generator: Adobe Illustrator 24.3.0, SVG Export Plug-In . SVG Version: 6.00 Build 0)  -->
<svg version="1.1" id="レイヤー_1" xmlns="http://www.w3.org/2000/svg" xmlns:xlink="http://www.w3.org/1999/xlink" x="0px"
	 y="0px" viewBox="0 0 148 42" style="enable-background:new 0 0 148 42;" xml:space="preserve">
<style type="text/css">
	.st0{fill-rule:evenodd;clip-rule:evenodd;fill:url(#SVGID_1_);}
	.st1{fill-rule:evenodd;clip-rule:evenodd;fill:#FFFFFF;}
</style>
<g>
	<linearGradient id="SVGID_1_" gradientUnits="userSpaceOnUse" x1="72" y1="38" x2="72" y2="-1.818989e-12">
		<stop  offset="0" style="stop-color:#0088D3"/>
		<stop  offset="0.3161" style="stop-color:#008FD2"/>
		<stop  offset="0.7673" style="stop-color:#00A2CE"/>
		<stop  offset="1" style="stop-color:#00AECB"/>
	</linearGradient>
	<path class="st0" d="M125,0H19C8.5,0,0,8.5,0,19s8.5,19,19,19h106c10.5,0,19-8.5,19-19S135.5,0,125,0z"/>
</g>
<g>
	<path class="st1" d="M112.2,17.5h14.9c0.8,0,1.5,0.7,1.5,1.5s-0.7,1.5-1.5,1.5h-14.9c-0.8,0-1.5-0.7-1.5-1.5
		C110.6,18.2,111.3,17.5,112.2,17.5z"/>
	<path class="st1" d="M122.5,12.3l5.7,5.7c0.6,0.6,0.6,1.6,0,2.2c-0.6,0.6-1.6,0.6-2.2,0l-5.7-5.7c-0.6-0.6-0.6-1.6,0-2.2
		C120.9,11.7,121.9,11.7,122.5,12.3z"/>
	<path class="st1" d="M128.2,20.1l-5.7,5.7c-0.6,0.6-1.6,0.6-2.2,0s-0.6-1.6,0-2.2l5.7-5.7c0.6-0.6,1.6-0.6,2.2,0
		C128.8,18.5,128.8,19.5,128.2,20.1z"/>
</g>
</svg>
