<svg xmlns="http://www.w3.org/2000/svg" xmlns:xlink="http://www.w3.org/1999/xlink" id="图层_1" x="0" y="0" version="1.1" viewBox="0 0 268.42 139.27" xml:space="preserve" style="enable-background:new 0 0 268.42 139.27"><style type="text/css">.st0{fill:#484751}.st1{fill:#00cec6}.st2{fill:#ff6088}.st3{fill:#6289e6}</style><title>logo_w</title><path d="M106,107.88c0.01-1.58-1.27-2.86-2.85-2.87c-0.01,0-0.01,0-0.02,0h-18v-3.94h3.58	c1.58,0.01,2.86-1.27,2.87-2.85c0-0.01,0-0.01,0-0.02V80.26l0,0c-0.01-4.04-2.61-7.61-6.45-8.86v-3.84c0-1.59-1.28-2.87-2.87-2.87	c-1.59,0-2.87,1.28-2.87,2.87c0,0,0,0,0,0v3.83c-1.41,0.46-2.68,1.24-3.73,2.28c-1.75,1.75-2.73,4.12-2.72,6.59l0,0V98.2	c-0.01,1.58,1.27,2.86,2.85,2.87c0.01,0,0.01,0,0.02,0h3.58V105h-18c-1.59,0-2.87,1.29-2.87,2.87c0,1.58,1.28,2.87,2.87,2.87h15.18	L61.5,131.29c-0.94,1.28-0.66,3.08,0.62,4.01c1.28,0.94,3.08,0.66,4.01-0.62l13.24-18v19.71c0,1.59,1.29,2.87,2.87,2.87	c1.58,0,2.87-1.28,2.87-2.87v-19.75l13.24,18c0.94,1.28,2.74,1.55,4.01,0.62c1.28-0.94,1.55-2.74,0.61-4.01l-15.07-20.5h15.18	c1.58,0.02,2.89-1.24,2.91-2.83C106,107.91,106,107.89,106,107.88z M78.66,91.39l7.16-4.13v8.07h-7.16V91.39z M79.66,77.73	c0.68-0.66,1.59-1.01,2.53-1l0,0c1.97,0.01,3.57,1.61,3.58,3.58v0.36l-7.16,4.13v-4.54l0,0c0.01-0.96,0.41-1.87,1.1-2.53	L79.66,77.73z" class="st0"/><path d="M61.39,99.48c-1.58-0.02-2.85-1.32-2.83-2.91c0.01-1.02,0.56-1.95,1.44-2.45l6-3.45	c1.38-0.79,3.14-0.32,3.94,1.06c0.79,1.38,0.32,3.14-1.07,3.94l-6,3.45C62.42,99.37,61.91,99.5,61.39,99.48z" class="st0"/><path d="M67.36,81.72c-0.5,0-1-0.13-1.43-0.38l-6-3.45c-1.38-0.79-1.86-2.55-1.07-3.93c0.79-1.38,2.55-1.86,3.94-1.07	l6,3.45c1.38,0.79,1.85,2.54,1.06,3.92c-0.51,0.9-1.47,1.45-2.5,1.44V81.72z" class="st1"/><path d="M103.09,100.21c-0.5,0-1-0.13-1.43-0.38l-6-3.45c-1.38-0.79-1.86-2.55-1.07-3.94c0.79-1.38,2.55-1.86,3.94-1.06	l0,0l6,3.45c1.38,0.79,1.85,2.54,1.06,3.92c-0.51,0.9-1.47,1.45-2.5,1.44V100.21z" class="st2"/><path d="M97.12,82.45c-1.59,0.01-2.88-1.27-2.88-2.86c0-1.03,0.55-1.99,1.44-2.5l6-3.45c1.38-0.79,3.14-0.32,3.94,1.06	c0.79,1.38,0.32,3.14-1.07,3.94l-6,3.45C98.11,82.33,97.62,82.46,97.12,82.45z" class="st0"/><path d="M253.76,35.47v-6.38c0-0.06,0-0.09-0.08-0.09h-1.56c-0.49,0.05-0.93-0.3-0.98-0.79	c-0.05-0.49,0.3-0.93,0.79-0.98c0.06-0.01,0.13-0.01,0.19,0h5.27c0.49-0.05,0.93,0.3,0.98,0.79c0.05,0.49-0.3,0.93-0.79,0.98	c-0.06,0.01-0.13,0.01-0.19,0h-1.56c-0.05,0-0.08,0-0.08,0.09v6.38c0,0.55-0.45,1-1,1s-1-0.45-1-1H253.76z" class="st0"/><path d="M259.84,28.34c-0.07-0.59,0.36-1.12,0.94-1.18c0.05-0.01,0.1-0.01,0.16-0.01c0.6,0,0.92,0.32,1.23,1l2,4.45	h0.05l1.93-4.45c0.3-0.71,0.62-1,1.22-1c0.59-0.02,1.07,0.45,1.09,1.03c0,0.05,0,0.11-0.01,0.16v7.23c0.05,0.5-0.31,0.95-0.81,1	c-0.5,0.05-0.95-0.31-1-0.81c-0.01-0.06-0.01-0.13,0-0.19v-4.45h-0.07l-1.42,3.31c-0.29,0.65-0.52,0.84-1,0.84s-0.69-0.19-1-0.84	l-1.44-3.31h-0.06v4.45c0,0.5-0.41,0.91-0.91,0.91s-0.91-0.41-0.91-0.91L259.84,28.34z" class="st0"/><path d="M266.37,53.81h-14.25v-7.59h14.25c1.13,0,2.05-0.92,2.05-2.05s-0.92-2.05-2.05-2.05c0,0,0,0,0,0h-80.28V24.26	c0-0.81-0.47-1.55-1.21-1.88L135,0.18c-0.53-0.24-1.14-0.24-1.67,0l-49.78,22.2c-0.74,0.33-1.22,1.07-1.22,1.88v17.86H2.05	C0.92,42.12,0,43.04,0,44.17c0,1.13,0.92,2.05,2.05,2.05H16.3v7.59H2.05C0.92,53.81,0,54.73,0,55.86s0.92,2.05,2.05,2.05h81.51	c0.14,0.02,0.27,0.02,0.41,0c0.14,0.01,0.27,0.01,0.41,0c1.1,0.03,2.02-0.85,2.05-1.95c0-0.02,0-0.03,0-0.05V25.59L134.16,4.3	L182,25.59v30.27c0,1.1,0.9,2,2,2c0.27-0.05,0.55-0.05,0.82,0h81.51c1.13,0,2.05-0.92,2.05-2.05s-0.92-2.05-2.05-2.05c0,0,0,0,0,0	L266.37,53.81z M82.37,53.81h-13v-7.59h13V53.81z M53,46.22h12.2v7.59H53V46.22z M48.9,53.81H36.71v-7.59h12.2L48.9,53.81z M20.4,46.22h12.2v7.59H20.4V46.22z M248,53.81h-12.2v-7.59H248V53.81z M219.5,46.22h12.2v7.59h-12.2V46.22z M215.4,53.81h-12.2	v-7.59h12.2V53.81z M199.09,46.22v7.59h-13v-7.59H199.09z" class="st0"/><path d="M103,55.48h-0.74v-1.55c0-0.49-0.4-0.89-0.89-0.89c-0.49,0-0.89,0.4-0.89,0.89c0,0,0,0,0,0v1.55h-1.09	c-0.48-0.05-0.92,0.3-0.97,0.78s0.3,0.92,0.78,0.97c0.06,0.01,0.13,0.01,0.19,0h1.08c0,2-0.21,3.09-1,3.85	c-0.23,0.2-0.37,0.49-0.37,0.8c-0.01,0.5,0.39,0.9,0.89,0.91c0.01,0,0.01,0,0.02,0c0.34,0.01,0.65-0.15,0.86-0.41	c1.09-1.1,1.37-2.86,1.4-5.15H103c0.48,0.05,0.92-0.3,0.97-0.78s-0.3-0.92-0.78-0.97C103.13,55.47,103.06,55.47,103,55.48z" class="st0"/><path d="M110.7,55.48H110v-1.55c0-0.49-0.4-0.89-0.89-0.89c-0.49,0-0.89,0.4-0.89,0.89c0,0,0,0,0,0v1.55h-1.12	c-0.48-0.05-0.92,0.3-0.97,0.78s0.3,0.92,0.78,0.97c0.06,0.01,0.13,0.01,0.19,0h1.08c0,2-0.21,3.09-1,3.85	c-0.23,0.2-0.37,0.49-0.37,0.8c-0.01,0.5,0.39,0.9,0.89,0.91c0.01,0,0.01,0,0.02,0l0,0c0.33-0.01,0.64-0.16,0.85-0.41	c1.09-1.1,1.36-2.86,1.4-5.15h0.73c0.48,0.05,0.92-0.3,0.97-0.78s-0.3-0.92-0.78-0.97C110.83,55.47,110.76,55.47,110.7,55.48z" class="st0"/><path d="M118.63,52.87c-0.1-0.18-0.27-0.32-0.47-0.38c-0.31-0.07-0.63,0.08-0.78,0.37c-0.17-0.04-0.34-0.02-0.49,0.07	c-0.33,0.16-0.47,0.57-0.3,0.9c0,0.01,0.01,0.01,0.01,0.02c0.08,0.17,0.14,0.34,0.19,0.51h-2.22c-0.49-0.02-0.91,0.36-0.93,0.85	c0,0.01,0,0.01,0,0.02c0.01,0.5,0.41,0.9,0.91,0.89c0.01,0,0.01,0,0.02,0h2c-0.18,2.52-0.74,4-1.89,5c-0.4,0.31-0.51,0.87-0.25,1.3	c0.15,0.22,0.39,0.36,0.66,0.39h0.11c0.28-0.01,0.54-0.12,0.74-0.31c1.51-1.39,2.31-3.65,2.53-7.11l0,0	c0.03-0.27-0.05-0.55-0.23-0.76l-0.08-0.07l0,0c0.16,0.04,0.33,0.02,0.47-0.06c0.34-0.17,0.49-0.57,0.35-0.92	C118.89,53.33,118.78,53.09,118.63,52.87z" class="st0"/><path d="M125.27,55c-0.44-0.01-0.83,0.3-0.91,0.73c-0.06-0.23-0.19-0.44-0.37-0.6c-0.36-0.33-0.77-0.61-1.21-0.81	c-0.44-0.26-1.01-0.14-1.31,0.28l0,0c-0.13,0.21-0.17,0.45-0.11,0.69c0.08,0.25,0.25,0.46,0.48,0.59c0.34,0.19,0.66,0.42,0.94,0.69	c0.22,0.2,0.5,0.31,0.8,0.3c0.24-0.02,0.46-0.14,0.61-0.33l0.09-0.13c-0.27,2.31-1,3.71-2.34,4.52c-0.5,0.23-0.73,0.82-0.5,1.32	c0,0.01,0,0.01,0.01,0.02c0.11,0.24,0.31,0.41,0.56,0.49c0.09,0.02,0.19,0.02,0.28,0c0.24-0.01,0.46-0.08,0.66-0.21	c1.79-1.09,3-3.48,3.18-6.54c0.03-0.27-0.05-0.55-0.23-0.76C125.73,55.08,125.51,54.99,125.27,55z" class="st0"/><path d="M131.68,53.72c-0.55,0-1,0.45-1,1c-0.19,3-0.59,5-2.14,6.32c-0.44,0.33-0.53,0.96-0.2,1.4	c0.01,0.01,0.02,0.02,0.02,0.03c0.16,0.19,0.39,0.3,0.63,0.31h0.06c0.32-0.01,0.62-0.14,0.85-0.36c1.57-1.42,2.47-4,2.69-7.55l0,0	c0.03-0.3-0.07-0.59-0.27-0.81C132.16,53.86,131.93,53.74,131.68,53.72z" class="st0"/><path d="M139.33,60.65h-3.39c-0.5-0.05-0.95,0.31-1,0.81c-0.05,0.5,0.31,0.95,0.81,1c0.06,0.01,0.13,0.01,0.19,0h3.39	c0.5,0.05,0.95-0.31,1-0.81c0.05-0.5-0.31-0.95-0.81-1C139.46,60.64,139.39,60.64,139.33,60.65z" class="st0"/><path d="M136.56,56h2.16c0.49,0.05,0.94-0.31,0.99-0.8c0.05-0.49-0.31-0.94-0.8-0.99c-0.06-0.01-0.13-0.01-0.19,0h-2.16	c-0.49-0.05-0.94,0.31-0.99,0.8c-0.05,0.49,0.31,0.94,0.8,0.99C136.43,56.01,136.5,56.01,136.56,56z" class="st0"/><path d="M143.65,58.54L143.65,58.54c0.2,0.2,0.47,0.32,0.75,0.33h0.06c0.25-0.01,0.49-0.14,0.64-0.34	c0.34-0.43,0.27-1.06-0.17-1.4c-0.02-0.02-0.04-0.03-0.06-0.05c-0.3-0.28-0.64-0.51-1-0.7c-0.44-0.26-1-0.11-1.26,0.33	c-0.26,0.44-0.11,1,0.33,1.26c0.02,0.01,0.04,0.02,0.06,0.03C143.23,58.16,143.45,58.34,143.65,58.54z" class="st0"/><path d="M147,55.06c0,0,0-0.06,0-0.09c0.12,0.01,0.25-0.03,0.35-0.1c0.33-0.18,0.46-0.6,0.29-0.94	c-0.09-0.24-0.21-0.46-0.35-0.67c-0.09-0.15-0.24-0.27-0.41-0.32c-0.2-0.06-0.42-0.03-0.59,0.09c-0.16,0.11-0.27,0.29-0.29,0.48	c-0.14-0.01-0.27,0.03-0.38,0.11c-0.32,0.19-0.42,0.61-0.23,0.93c0.08,0.14,0.15,0.29,0.21,0.44l-0.13-0.15	c-0.29-0.29-0.63-0.53-1-0.72c-0.42-0.28-0.99-0.2-1.32,0.19l0,0c-0.13,0.19-0.19,0.42-0.15,0.65c0.06,0.28,0.23,0.53,0.47,0.68	c0.24,0.17,0.46,0.35,0.66,0.56c0.2,0.25,0.51,0.39,0.83,0.38c0.25-0.01,0.48-0.13,0.63-0.32c0.2-0.25,0.26-0.57,0.18-0.88	c0.07,0.07,0.16,0.13,0.25,0.17l0,0c-0.06,0.13-0.09,0.27-0.1,0.41c-0.23,2.48-1.07,4.15-2.5,5c-0.26,0.14-0.44,0.38-0.52,0.66	c-0.07,0.26-0.03,0.53,0.11,0.76c0.14,0.21,0.36,0.36,0.61,0.41h0.19c0.27-0.01,0.53-0.1,0.74-0.26c1.79-1.25,2.91-3.52,3.15-6.39	l0,0c0.04-0.28-0.04-0.56-0.22-0.78C147.36,55.21,147.19,55.1,147,55.06z" class="st0"/><path d="M153.62,60.89L153.62,60.89l0.26-4.1c0.03-0.25-0.05-0.5-0.22-0.69c-0.17-0.17-0.4-0.26-0.64-0.25h-1.68	c-0.46,0-0.83,0.37-0.83,0.83c0,0.46,0.37,0.83,0.83,0.83c0,0,0,0,0,0h0.78l-0.21,3.38h-1c-0.46,0-0.83,0.37-0.83,0.83	c0,0.46,0.37,0.83,0.83,0.83c0,0,0,0,0,0h2.74c0.46,0,0.83-0.37,0.83-0.83c0-0.46-0.37-0.83-0.83-0.83c0,0,0,0,0,0L153.62,60.89z" class="st0"/><path d="M160.77,54.76h-0.55v-0.91c0.05-0.49-0.31-0.94-0.8-0.99s-0.94,0.31-0.99,0.8c-0.01,0.06-0.01,0.13,0,0.19v0.91	H158c-0.49-0.02-0.9,0.35-0.92,0.84c0,0.02,0,0.05,0,0.07v2.38c-0.03,0.49,0.34,0.92,0.83,0.95c0.03,0,0.06,0,0.09,0	c0.5-0.01,0.89-0.42,0.88-0.92c0,0,0-0.01,0-0.01v-1.56h1.1c-0.07,2.26-0.56,3.78-1.48,4.53c-0.43,0.29-0.57,0.86-0.32,1.32	c0.14,0.23,0.37,0.38,0.64,0.42h0.12c0.3-0.01,0.59-0.14,0.8-0.35c1.7-1.57,2-4.37,2.06-6.63l0,0c0.03-0.29-0.07-0.57-0.26-0.78	C161.34,54.82,161.05,54.73,160.77,54.76z" class="st0"/><path d="M165.39,56h2.16c0.49,0.05,0.94-0.31,0.99-0.8c0.05-0.49-0.31-0.94-0.8-0.99c-0.06-0.01-0.13-0.01-0.19,0h-2.16	c-0.49-0.05-0.94,0.31-0.99,0.8c-0.05,0.49,0.31,0.94,0.8,0.99C165.26,56.01,165.33,56.01,165.39,56z" class="st0"/><path d="M168.15,60.65h-3.38c-0.5-0.05-0.95,0.31-1,0.81c-0.05,0.5,0.31,0.95,0.81,1c0.06,0.01,0.13,0.01,0.19,0h3.38	c0.5,0.05,0.95-0.31,1-0.81c0.05-0.5-0.31-0.95-0.81-1C168.28,60.64,168.21,60.64,168.15,60.65z" class="st0"/><path d="M139.09,49.5c-0.25,0-0.5-0.04-0.74-0.13c-1.05-0.41-1.58-1.59-1.18-2.65L145,26.27	c0.41-1.06,1.59-1.59,2.65-1.18c1.06,0.41,1.59,1.59,1.18,2.65L141,48.19C140.71,48.99,139.94,49.51,139.09,49.5z" class="st0"/><path d="M111.61,45.16h-6.13l6.82-6.83l0,0c3.32-2.92,3.64-7.97,0.72-11.29s-7.97-3.64-11.29-0.72	c-0.26,0.23-0.5,0.47-0.73,0.73l0,0c0.8-0.8,2.1-0.81,2.9-0.01c0.8,0.8,0.81,2.1,0.01,2.91l0,0l0,0c1.53-1.47,3.94-1.47,5.47,0	c0.73,0.72,1.15,1.71,1.14,2.74c0,1.03-0.41,2.01-1.14,2.74l0,0l-10.3,10.32c-0.2,0.19-0.35,0.42-0.45,0.68l0,0	c-0.1,0.23-0.15,0.49-0.15,0.74l0,0c0,0.26,0.06,0.51,0.15,0.75l0,0c0.2,0.51,0.6,0.91,1.11,1.11l0,0c0.23,0.1,0.49,0.15,0.74,0.15	h11.09c1.13,0,2.05-0.92,2.05-2.05c0-1.13-0.92-2.05-2.05-2.05L111.61,45.16z" class="st0"/><path d="M100.74,34.74c-1.1,0-2-0.89-2-2c0-0.02,0-0.03,0-0.05c-0.03-2.11,0.79-4.14,2.26-5.64c0.8-0.8,2.1-0.8,2.9,0	c0.8,0.8,0.8,2.1,0,2.9l0,0c-0.73,0.73-1.14,1.71-1.13,2.74C102.77,33.81,101.86,34.73,100.74,34.74z" class="st3"/><path d="M133.84,32.69c0-4.42-3.58-8-8-8c-4.42,0-8,3.58-8,8c0,1.13,0.92,2.05,2.05,2.05c1.13,0,2.05-0.92,2.05-2.05	c0.02-1.02,0.45-1.99,1.19-2.69c1.54-1.45,3.94-1.45,5.48,0c1.51,1.51,1.52,3.96,0.01,5.47c0,0,0,0-0.01,0.01l0,0l-5.16,5.16	c-0.8,0.8-0.8,2.1,0,2.9s2.1,0.8,2.9,0l5.16-5.16l0,0C133.01,36.87,133.85,34.82,133.84,32.69z" class="st0"/><path d="M124.89,44.09c-1.13,0-2.05-0.92-2.05-2.05c0-0.54,0.22-1.07,0.6-1.45l-5.17,5.17c-0.8,0.8-0.8,2.1,0,2.91	c0.8,0.8,2.1,0.8,2.91-0.01l5.16-5.17l0,0C125.96,43.87,125.43,44.09,124.89,44.09z" class="st2"/><path d="M130.81,45.16h-6.13l-3.5,3.5c-0.38,0.38-0.91,0.6-1.45,0.6h11.08c1.13,0,2.05-0.92,2.05-2.05	C132.86,46.08,131.95,45.16,130.81,45.16C130.81,45.16,130.81,45.16,130.81,45.16z" class="st0"/><path d="M159.63,29.06h-4.7c-1.13-0.08-1.99-1.06-1.91-2.2c0.07-1.02,0.89-1.84,1.91-1.91h4.7	c1.13,0.08,1.99,1.06,1.91,2.2C161.47,28.17,160.65,28.99,159.63,29.06z" class="st1"/><path d="M169.1,27c0.01-1.12-0.88-2.03-2-2.06h-7.42c1.13,0.08,1.99,1.06,1.91,2.2c-0.07,1.02-0.89,1.84-1.91,1.91h4.43	l-6.78,17.66c-0.39,1.06,0.13,2.24,1.18,2.65c0.24,0.09,0.49,0.13,0.74,0.13c0.85,0,1.61-0.52,1.92-1.31L169,27.74l0,0	C169.08,27.5,169.11,27.25,169.1,27z" class="st0"/><path d="M39.66,75.32H26.6v-7.76c0.09-1.59-1.12-2.95-2.71-3.04c-1.59-0.09-2.95,1.12-3.04,2.71	c-0.01,0.11-0.01,0.23,0,0.34v7.76H7.79c-1.59,0-2.87,1.28-2.87,2.87c0,1.59,1.28,2.87,2.87,2.87c0,0,0,0,0,0h31.87	c1.59,0,2.87-1.29,2.87-2.87C42.53,76.6,41.24,75.32,39.66,75.32z" class="st0"/><path d="M44.57,92.16h-11l1.08-5.45c0.31-1.56-0.71-3.07-2.27-3.38c-1.56-0.31-3.07,0.71-3.38,2.27l-1.3,6.56h-8.41	L18,85.6c-0.27-1.56-1.75-2.61-3.32-2.34c-1.56,0.27-2.61,1.75-2.34,3.32c0.01,0.04,0.02,0.09,0.03,0.13l1.08,5.45H2.87	c-1.59,0.09-2.8,1.46-2.71,3.04c0.09,1.46,1.25,2.62,2.71,2.71h41.7c1.59,0.09,2.95-1.12,3.04-2.71c0.09-1.59-1.12-2.95-2.71-3.04	C44.8,92.15,44.68,92.15,44.57,92.16z" class="st0"/><path d="M36.56,114.65c-0.01-7.08-5.75-12.81-12.83-12.82l0,0c-1.59,0-2.87,1.29-2.87,2.87c0,1.58,1.28,2.87,2.87,2.87	l0,0c3.88,0,7.04,3.12,7.08,7v21.8c0.09,1.59,1.46,2.8,3.04,2.71c1.46-0.09,2.62-1.25,2.71-2.71V114.65z" class="st3"/><path d="M30.81,136.4v-2.88H16.64V128l14.17-8.19v-5.21c0-0.46-0.05-0.93-0.14-1.38l0,0l-14,8.1v-6.66	c-0.01-3.91,3.16-7.08,7.07-7.09c0,0,0.01,0,0.01,0l0,0c-1.59,0-2.87-1.29-2.87-2.87c0-1.58,1.28-2.87,2.87-2.87	c-7.06-0.02-12.8,5.67-12.85,12.73c0,0.04,0,0.07,0,0.11v21.73c0.01,1.58,1.29,2.86,2.87,2.87h19.91	C32.1,139.26,30.82,137.98,30.81,136.4z" class="st0"/><path d="M128.2,130.69c-2.25-0.01-4.41-0.91-6-2.51L122,128c-3.22-3.2-5.02-7.56-5-12.1v-10.16	c0-9.49,7.69-17.18,17.18-17.18c4.56,0,8.93,1.81,12.15,5.03c1.12,1.12,1.12,2.94,0,4.06s-2.94,1.12-4.06,0l0,0	c-4.47-4.46-11.72-4.45-16.18,0.02c-2.14,2.14-3.34,5.04-3.34,8.07v10.19c-0.01,3.03,1.19,5.95,3.34,8.09	c0.86,0.88,2.17,1.14,3.3,0.67c1.16-0.47,1.93-1.6,1.92-2.86v-16.14c0-1.59,1.28-2.87,2.87-2.87c1.59,0,2.87,1.28,2.87,2.87v16.14	c-0.04,4.89-3.99,8.83-8.88,8.86H128.2z" class="st0"/><path d="M146.36,93.59L146.36,93.59c1.12,1.12,1.12,2.94,0,4.06s-2.94,1.12-4.06,0l0,0l0,0	c2.15,2.14,3.36,5.05,3.35,8.09v10.19c-0.06,3.52-0.97,6.97-2.65,10.07c-0.84,1.35-0.41,3.13,0.94,3.96	c0.02,0.01,0.04,0.02,0.06,0.04c0.45,0.28,0.96,0.42,1.49,0.42c1.01,0,1.94-0.52,2.46-1.38c2.22-3.98,3.43-8.44,3.51-13v-10.3	C151.46,101.17,149.62,96.79,146.36,93.59z" class="st1"/><path d="M205,99.74h-24.81V93.1H205c1.59,0,2.87-1.28,2.87-2.87c0-1.59-1.28-2.87-2.87-2.87c0,0,0,0,0,0h-8.35v-6.3	h5.49c1.59,0,2.87-1.28,2.87-2.87c0-1.59-1.28-2.87-2.87-2.87c0,0,0,0,0,0h-5.49v-7.76c0.09-1.59-1.12-2.95-2.71-3.04	c-1.59-0.09-2.95,1.12-3.04,2.71c-0.01,0.11-0.01,0.23,0,0.34v7.76h-5.49c-1.59,0-2.87,1.28-2.87,2.87c0,1.59,1.28,2.87,2.87,2.87	c0,0,0,0,0,0h5.49v6.3h-10.71v-4l0,0c-0.01-4.89-3.97-8.85-8.86-8.86l0,0c-4.89,0.02-8.85,3.98-8.86,8.87l0,0v26	c0,1.59,1.28,2.87,2.87,2.87h12c1.59,0,2.87-1.28,2.87-2.87v-3.84H205c1.59,0.09,2.95-1.12,3.04-2.71c0.09-1.59-1.12-2.95-2.71-3.04	c-0.11-0.01-0.23-0.01-0.34,0V99.74z M168.23,98.46l6.24-3.6v11.6h-6.24V98.46z M171.35,80.23L171.35,80.23	c1.72,0,3.12,1.4,3.12,3.12v4.88l-6.24,3.6v-8.48l0,0c0-1.72,1.38-3.11,3.1-3.12L171.35,80.23z" class="st0"/><path d="M197.87,93.1V121c-5.39-2.1-11.51-0.89-15.7,3.1c-3.42,3.07-3.69,8.33-0.62,11.75c0.85,0.94,1.9,1.68,3.07,2.15	c1.83,0.85,3.82,1.28,5.84,1.26c0.91,0,1.82-0.08,2.71-0.24c6.09-1.07,10.38-5.33,10.44-10V93.1H197.87z M192.18,133.37	c-1.7,0.34-3.47,0.15-5.06-0.54c-1.41-0.38-2.24-1.83-1.86-3.24c0.16-0.6,0.53-1.12,1.03-1.47c1.26-1.19,2.85-1.98,4.57-2.24	c0.56-0.1,1.14-0.15,1.71-0.15c1.15-0.02,2.3,0.22,3.35,0.7c0.92,0.36,1.63,1.13,1.91,2.08	C198.14,130.29,195.9,132.72,192.18,133.37z" class="st2"/><path d="M241.61,78.19c-0.01-5.69-4.62-10.31-10.31-10.32l0,0c-5.69,0.01-10.31,4.63-10.3,10.32c0,0,0,0.01,0,0.01l0,0	v58.2c0,1.59,1.28,2.87,2.87,2.87c1.59,0,2.87-1.28,2.87-2.87V98h12c1.58,0.01,2.86-1.27,2.87-2.85c0-0.01,0-0.01,0-0.02v-17V78.19z M228.06,75c0.86-0.86,2.02-1.34,3.23-1.34l0,0c2.52,0.01,4.55,2.04,4.57,4.56c-0.19,0.06-0.38,0.15-0.56,0.25l-8.59,5V78.2l0,0	C226.71,77,227.2,75.84,228.06,75z M226.72,90l9.15-5.28v7.53h-9.15V90z" class="st0"/><path d="M254,110.19c-0.01-5.14-4.18-9.31-9.32-9.31l0,0c-5.14,0.01-9.31,4.18-9.31,9.32v16.28	c0,1.59,1.28,2.87,2.87,2.87h12.9c1.59,0,2.87-1.28,2.87-2.87L254,110.19L254,110.19z M242.15,107.67c0.68-0.66,1.59-1.01,2.53-1	l0,0c1.86,0,3.41,1.43,3.56,3.29l-7.12,4.04v-3.8c0-0.95,0.38-1.86,1.05-2.53L242.15,107.67z M241.15,120.67l7.16-4.13v7.06h-7.16	V120.67z" class="st0"/><path d="M268.42,78.19c-0.01-5.69-4.62-10.31-10.31-10.32l0,0c-1.59,0.09-2.8,1.46-2.71,3.04	c0.09,1.46,1.25,2.62,2.71,2.71l0,0c2.52,0.01,4.56,2.05,4.57,4.57v50.67c0,0,0,0.06,0,0.09c0.01,2.52-2.03,4.56-4.55,4.57	c-0.01,0-0.01,0-0.02,0c-1.59-0.09-2.95,1.12-3.04,2.71s1.12,2.95,2.71,3.04c0.11,0.01,0.23,0.01,0.34,0l0,0	c5.63-0.02,10.21-4.53,10.31-10.16V78.19z" class="st3"/><path d="M262.68,92.27h-9.15V90l9.15-5.28v-6.54c-0.19,0.06-0.38,0.15-0.56,0.25l-8.59,5v-5.25	c0.01-2.52,2.05-4.55,4.57-4.56l0,0c-1.59-0.09-2.8-1.46-2.71-3.04c0.09-1.46,1.25-2.62,2.71-2.71c-5.7,0.01-10.31,4.63-10.31,10.33	v16.94c0,1.58,1.28,2.86,2.86,2.86c0,0,0.01,0,0.01,0h12L262.68,92.27z" class="st0"/></svg>