<?xml version="1.0" standalone="no"?>
<!DOCTYPE svg PUBLIC "-//W3C//DTD SVG 20010904//EN"
 "http://www.w3.org/TR/2001/REC-SVG-20010904/DTD/svg10.dtd">
<svg version="1.0" xmlns="http://www.w3.org/2000/svg"
 width="1376.000000pt" height="1376.000000pt" viewBox="0 0 1376.000000 1376.000000"
 preserveAspectRatio="xMidYMid meet">

<g transform="translate(0.000000,1376.000000) scale(0.100000,-0.100000)"
fill="#000000" stroke="none">
<path d="M9310 13703 c0 -10 4 -14 8 -8 4 6 11 13 16 18 5 4 2 7 -7 7 -10 0
-17 -8 -17 -17z"/>
<path d="M5870 13635 c0 -5 5 -17 10 -25 5 -8 10 -10 10 -5 0 6 -5 17 -10 25
-5 8 -10 11 -10 5z"/>
<path d="M7300 13300 c0 -5 7 -7 15 -4 8 4 15 8 15 10 0 2 -7 4 -15 4 -8 0
-15 -4 -15 -10z"/>
<path d="M8347 11163 c-4 -3 -7 -21 -7 -38 0 -28 -4 -33 -30 -39 -17 -3 -32
-11 -34 -18 -2 -7 -31 -103 -65 -213 -33 -110 -65 -218 -70 -240 -19 -81 -133
-510 -137 -517 -3 -4 -13 -49 -24 -100 -45 -227 -190 -935 -195 -955 -4 -19
-14 -22 -92 -27 -189 -14 -668 -61 -856 -85 -331 -42 -684 -92 -747 -106 -36
-9 -78 -15 -95 -15 -16 0 -46 -5 -65 -10 -20 -5 -92 -19 -160 -29 -162 -26
-318 -55 -455 -87 -60 -13 -130 -29 -155 -34 -50 -9 -178 -42 -255 -65 -27 -8
-88 -24 -135 -36 -47 -11 -114 -29 -150 -39 -36 -10 -103 -28 -150 -41 -47
-12 -175 -54 -285 -92 -110 -38 -212 -72 -226 -74 l-27 -5 5 114 c3 62 11 141
19 175 7 34 18 135 24 225 6 90 15 177 20 193 5 17 12 66 15 110 8 108 25 233
36 272 11 34 2 106 -11 98 -4 -3 -30 0 -56 6 -57 12 -48 12 -147 -1 -43 -5
-91 -17 -106 -24 -25 -13 -29 -22 -34 -78 -3 -35 -13 -77 -21 -93 -9 -17 -16
-55 -16 -85 -1 -30 -5 -75 -10 -100 -9 -39 -25 -168 -60 -460 -5 -41 -10 -158
-11 -260 -1 -102 -4 -198 -8 -214 -5 -25 -18 -34 -96 -68 -101 -44 -686 -334
-755 -375 -95 -55 -118 -68 -215 -118 -55 -28 -118 -63 -140 -77 -22 -13 -80
-44 -130 -67 -49 -24 -92 -46 -95 -50 -9 -12 -69 -51 -78 -51 -5 0 -32 -18
-60 -40 -27 -22 -54 -40 -59 -40 -6 0 -30 -15 -54 -33 -24 -19 -57 -41 -74
-50 -16 -9 -44 -29 -60 -45 -17 -16 -50 -42 -75 -57 -25 -16 -81 -61 -125
-100 -44 -39 -98 -83 -120 -99 -22 -16 -100 -88 -172 -160 -73 -71 -159 -147
-190 -167 -91 -58 -170 -159 -260 -335 -75 -147 -104 -228 -106 -304 l-2 -65
63 -12 c34 -7 76 -20 92 -28 35 -18 71 -19 92 -2 37 30 58 75 58 126 0 42 9
68 52 148 28 54 60 114 70 133 47 89 418 471 632 650 16 14 72 63 125 109 52
46 109 90 125 97 17 7 45 25 61 39 32 29 161 95 184 95 7 0 41 22 75 48 68 54
337 217 473 286 86 44 143 75 193 103 124 70 498 243 525 243 13 0 15 -79 16
-637 0 -395 4 -657 10 -688 12 -57 15 -99 25 -312 l7 -151 -52 -26 c-197 -100
-418 -289 -508 -434 -69 -109 -111 -181 -119 -202 -3 -8 -14 -33 -24 -55 -44
-98 -52 -123 -56 -177 -2 -32 -10 -70 -16 -85 -11 -27 -16 -93 -18 -260 -1
-103 2 -131 15 -177 8 -27 15 -64 15 -82 0 -32 27 -111 73 -215 19 -42 43 -70
99 -118 40 -34 96 -75 123 -89 49 -27 53 -27 223 -25 136 1 177 5 190 16 10 8
28 18 42 22 13 4 36 15 50 24 28 19 37 24 126 75 34 20 85 58 115 86 29 27 58
50 64 50 5 0 21 -19 35 -42 36 -60 68 -86 133 -110 31 -11 57 -25 57 -29 0 -5
31 -9 69 -9 61 0 72 -3 86 -22 15 -22 17 -22 29 -6 11 15 33 24 69 27 4 1 7
12 7 24 0 13 9 32 19 41 11 10 22 30 26 44 3 15 15 36 26 47 10 12 21 39 24
62 l5 41 -77 7 c-90 7 -100 11 -117 45 -27 53 -49 97 -72 139 -33 61 -31 96
10 145 71 87 224 332 261 416 15 36 40 90 55 120 16 30 63 136 105 234 42 99
83 188 91 200 7 11 14 33 14 48 0 16 5 28 10 28 16 0 130 -111 156 -152 22
-34 24 -48 24 -150 -1 -79 -5 -121 -15 -138 -21 -37 -20 -173 2 -191 22 -19
218 -21 254 -3 45 23 89 92 89 140 0 24 4 45 9 48 5 4 23 42 40 87 40 104 41
180 5 296 -24 77 -30 86 -87 136 -83 72 -170 130 -278 183 -80 41 -89 48 -89
73 0 56 144 487 234 699 19 46 38 106 41 135 l7 52 -46 32 c-25 18 -46 37 -46
43 0 16 -27 12 -34 -5 -4 -11 -21 -15 -66 -15 -53 0 -64 -3 -85 -26 -28 -30
-110 -194 -120 -239 -6 -27 -22 -73 -60 -175 -15 -40 -52 -159 -85 -270 -12
-41 -32 -106 -44 -145 -26 -79 -14 -74 -146 -55 -110 15 -201 16 -269 1 -29
-6 -95 -11 -146 -11 l-93 0 -13 48 c-7 26 -14 63 -15 82 -18 340 -24 482 -24
673 0 163 -4 233 -12 248 -10 17 -10 23 0 26 15 6 16 64 0 98 -9 20 -9 31 -1
45 8 11 14 110 18 271 3 140 11 273 17 296 12 48 34 65 133 103 33 13 65 27
70 31 6 4 34 14 63 23 53 15 53 15 46 -6 -5 -15 -3 -20 7 -16 8 3 49 18 91 34
63 24 77 32 72 47 -4 12 0 17 14 17 17 0 58 14 117 40 11 4 39 11 62 14 23 3
62 15 88 26 56 24 75 25 75 5 0 -8 5 -15 11 -15 6 0 8 8 4 19 -4 15 3 22 35
35 22 9 49 16 60 16 11 0 34 7 52 15 40 18 211 52 253 50 17 -1 35 3 40 10 11
13 107 45 135 45 10 0 20 -6 23 -12 3 -10 9 -9 23 3 21 18 127 49 167 49 14 0
30 -7 35 -17 9 -14 10 -14 16 5 8 23 40 36 91 35 16 0 35 3 40 7 22 17 155 31
238 25 84 -5 87 -4 87 16 0 19 4 20 36 15 21 -5 41 -3 49 4 19 16 145 22 162
9 13 -11 14 -10 17 14 1 13 42 22 171 37 43 6 106 15 139 21 186 33 240 38
258 22 20 -18 53 -14 53 7 0 19 63 29 171 28 45 0 87 3 94 7 12 7 53 13 265
35 50 5 129 10 178 10 l87 0 0 -32 c0 -18 -5 -60 -11 -93 -54 -310 -134 -968
-144 -1185 -3 -74 -13 -192 -22 -262 -12 -102 -13 -131 -3 -143 9 -11 10 -29
1 -77 -14 -85 -22 -193 -25 -383 -2 -88 -11 -223 -19 -300 -8 -77 -18 -219
-22 -315 -4 -96 -12 -183 -17 -193 -5 -10 -14 -89 -19 -175 -9 -159 -41 -455
-59 -547 -5 -27 -14 -115 -20 -195 -6 -80 -15 -161 -21 -180 -5 -19 -12 -153
-16 -296 l-6 -261 29 -5 c16 -3 56 -12 89 -21 33 -9 82 -17 110 -19 43 -3 50
0 53 17 3 11 7 22 11 25 4 3 20 30 35 61 27 54 28 62 21 140 -10 123 -9 207 4
369 13 175 47 492 61 575 6 33 17 123 25 200 9 77 20 156 26 175 5 19 14 118
19 220 5 102 14 217 19 255 9 67 15 165 26 420 3 65 8 128 10 140 2 11 9 121
15 245 6 124 15 272 21 330 5 58 16 203 24 324 8 120 26 318 41 440 14 121 32
282 40 356 24 230 52 403 69 419 14 14 92 16 678 15 570 -1 675 -3 754 -17 51
-9 163 -19 248 -23 86 -3 186 -12 223 -20 37 -8 103 -17 147 -20 44 -3 98 -12
120 -19 22 -8 80 -16 128 -19 49 -4 104 -13 124 -21 19 -8 50 -15 67 -15 17 0
58 -7 91 -16 33 -8 85 -21 116 -28 31 -7 61 -16 67 -20 8 -5 12 -38 12 -90 0
-78 1 -83 28 -103 15 -11 52 -23 82 -27 104 -13 155 -22 168 -30 8 -5 71 -7
140 -7 99 2 129 5 135 17 5 8 23 14 46 14 25 0 44 7 56 20 23 25 56 25 97 0
18 -11 45 -20 59 -20 15 0 32 -6 38 -14 6 -7 34 -16 62 -20 28 -4 52 -13 55
-20 3 -8 20 -17 39 -20 18 -4 38 -13 45 -21 7 -8 24 -15 38 -15 14 0 44 -9 66
-19 23 -11 52 -25 66 -31 14 -6 43 -22 65 -35 38 -23 59 -34 95 -50 59 -25
242 -147 292 -194 18 -17 36 -31 40 -31 13 0 78 -62 78 -74 0 -6 27 -38 61
-71 33 -33 80 -85 103 -115 37 -48 53 -74 97 -163 22 -43 58 -150 64 -189 8
-52 -30 -218 -65 -288 -37 -72 -92 -162 -125 -205 -17 -22 -46 -64 -64 -93
-37 -58 -397 -412 -419 -412 -7 0 -32 -18 -55 -40 -52 -50 -89 -77 -316 -234
-149 -103 -187 -127 -239 -151 -29 -13 -80 -45 -112 -69 -33 -25 -83 -57 -112
-72 -29 -14 -67 -37 -85 -50 -17 -13 -35 -24 -39 -24 -11 0 -81 -48 -128 -87
-22 -18 -45 -33 -52 -33 -21 0 -64 -22 -64 -33 0 -6 -10 -21 -21 -33 -17 -18
-28 -22 -52 -17 -28 6 -30 4 -25 -18 3 -13 9 -32 13 -41 5 -14 2 -18 -14 -18
-14 0 -21 6 -21 20 0 14 -7 20 -21 20 -19 0 -20 -5 -18 -58 1 -32 -1 -64 -5
-70 -12 -19 16 -14 61 12 23 13 73 29 112 36 39 6 71 17 72 23 1 7 2 21 3 32
1 15 9 19 36 21 19 0 57 13 84 28 27 14 59 26 71 26 12 0 32 11 45 25 14 15
39 27 66 31 23 3 51 15 60 25 9 10 24 19 33 19 9 0 31 9 49 20 19 12 57 25 84
30 28 6 56 16 62 23 6 8 25 20 43 26 23 9 33 20 35 39 2 22 11 30 43 40 22 7
54 26 70 43 17 16 38 29 48 29 9 0 27 10 40 23 19 18 142 107 196 142 8 6 22
16 30 23 12 12 16 11 23 -2 14 -25 26 -19 30 17 3 27 7 32 33 35 21 2 37 13
54 38 20 29 25 32 35 19 10 -14 15 -13 46 10 18 14 40 25 47 25 6 0 36 24 65
54 29 29 111 106 181 170 206 186 278 284 352 472 25 66 51 128 57 139 44 80
58 112 58 136 0 16 8 48 17 71 24 61 25 199 1 225 -11 11 -18 35 -18 57 0 78
-186 374 -245 390 -11 3 -33 17 -50 30 -94 79 -129 104 -139 100 -7 -3 -27 11
-44 31 -18 19 -38 35 -44 35 -14 0 -133 75 -166 104 -13 12 -38 21 -55 22 -38
1 -106 33 -162 75 -74 55 -146 100 -178 111 -18 6 -40 19 -50 29 -10 11 -29
19 -42 19 -13 0 -27 5 -30 10 -3 6 -17 10 -30 10 -13 0 -45 10 -72 21 -26 12
-68 27 -93 33 -28 8 -46 19 -48 29 -2 9 1 17 6 17 19 0 305 162 441 250 128
83 338 267 389 342 18 26 37 48 42 48 21 0 250 310 250 338 0 7 4 12 9 12 16
0 108 203 126 279 13 54 18 118 19 245 l1 171 -49 97 c-39 78 -63 112 -125
172 -97 95 -116 110 -190 145 -34 16 -67 33 -74 39 -7 6 -41 15 -76 21 -35 6
-86 18 -113 27 -40 13 -85 15 -254 12 -183 -3 -206 -5 -215 -20 -7 -13 -23
-18 -57 -18 -50 0 -150 -46 -353 -161 -48 -27 -90 -49 -95 -49 -5 0 -28 -18
-51 -39 -23 -22 -62 -49 -86 -60 -25 -12 -52 -30 -62 -41 -19 -21 -75 -28 -75
-10 0 5 -15 27 -34 47 -18 21 -43 56 -55 78 -54 99 -97 156 -193 252 -56 57
-109 103 -116 103 -8 0 -39 15 -70 33 -107 62 -171 87 -228 87 -43 0 -56 4
-68 22 -12 17 -18 19 -30 9 -11 -9 -25 -9 -60 0 -25 6 -62 9 -83 7 -66 -9
-186 -44 -238 -71 -68 -34 -208 -159 -249 -221 -42 -64 -96 -171 -96 -190 0
-8 -7 -27 -15 -43 -8 -15 -25 -59 -37 -98 -20 -61 -23 -91 -23 -235 0 -180 6
-212 72 -384 60 -156 177 -356 250 -429 124 -123 249 -230 314 -267 41 -24
105 -63 142 -87 38 -25 83 -51 100 -59 18 -8 39 -19 47 -24 8 -6 27 -14 43
-20 29 -10 37 -30 12 -30 -9 0 -32 7 -51 15 -20 8 -75 19 -122 25 -48 6 -103
15 -122 20 -19 6 -73 13 -120 16 -47 3 -125 12 -175 19 -49 8 -160 19 -245 25
-85 6 -184 16 -220 22 -68 10 -448 17 -1079 18 l-373 0 5 28 c3 15 12 59 20
97 9 39 27 135 42 215 71 377 260 1095 375 1420 17 47 33 114 36 150 l6 65
-47 53 c-26 28 -51 52 -55 52 -5 0 -16 -7 -24 -15 -14 -14 -18 -14 -45 -1 -16
9 -32 25 -36 36 -6 20 -16 25 -28 13z m2148 -404 c4 -5 19 -15 33 -20 15 -6
72 -47 127 -92 76 -61 114 -101 151 -156 56 -85 94 -158 94 -182 0 -9 9 -28
20 -42 15 -18 20 -40 20 -82 0 -47 6 -66 32 -106 34 -53 66 -79 96 -79 11 0
35 -6 53 -14 38 -15 59 -12 59 10 0 22 38 17 45 -6 5 -15 15 -20 41 -20 28 0
46 12 106 67 88 80 216 183 228 183 5 0 15 11 22 24 13 24 122 111 168 133 14
7 54 31 90 54 83 52 199 109 224 109 11 0 27 7 37 16 15 13 43 16 161 16 126
0 148 -3 186 -22 121 -59 218 -145 265 -234 19 -36 22 -57 22 -176 0 -142 0
-140 -58 -270 -21 -46 -108 -186 -156 -251 -175 -240 -324 -390 -497 -506
-126 -84 -342 -203 -369 -203 -9 0 -23 -7 -32 -15 -8 -9 -28 -19 -44 -22 -16
-3 -29 -9 -29 -14 0 -16 -78 -10 -88 7 -5 8 -24 19 -43 24 -19 4 -47 13 -64
19 -16 5 -82 26 -145 46 -63 20 -137 46 -165 57 -27 11 -70 25 -95 33 -25 7
-62 20 -82 29 -21 9 -46 16 -56 16 -10 0 -27 9 -37 20 -10 11 -24 20 -31 20
-17 0 -203 90 -210 101 -3 5 -20 15 -37 23 -18 7 -77 47 -132 88 -104 77 -200
178 -329 347 -83 107 -83 107 -113 189 -20 58 -23 82 -23 224 0 115 4 166 14
186 7 15 17 43 21 62 4 19 15 53 25 75 11 22 32 71 49 110 31 74 47 90 53 53
3 -25 4 -25 56 44 50 65 87 89 149 98 32 4 72 15 88 24 34 18 91 21 100 5z
m2473 -2818 c46 -35 95 -84 118 -116 47 -68 132 -207 133 -217 1 -5 -9 -8 -22
-8 -17 0 -31 14 -57 57 -54 91 -114 174 -170 233 -56 60 -95 110 -85 110 3 0
41 -27 83 -59z m-8495 -1973 c-3 -50 -75 -241 -166 -443 -25 -55 -58 -129 -72
-165 -15 -35 -45 -100 -67 -143 -33 -64 -42 -76 -54 -66 -8 6 -14 24 -14 40 0
15 -9 52 -19 81 -10 29 -29 105 -41 168 -11 63 -30 144 -40 180 -13 45 -21
115 -26 228 l-7 162 254 -2 254 -3 -2 -37z m-859 -134 c3 -9 6 -46 6 -82 1
-37 5 -87 11 -112 5 -25 16 -85 23 -135 8 -49 21 -107 30 -127 9 -21 16 -62
16 -91 0 -30 6 -70 14 -88 7 -19 19 -65 25 -104 7 -38 17 -75 22 -81 5 -7 14
-39 19 -72 6 -33 17 -73 25 -88 8 -16 15 -54 15 -85 l0 -56 -76 -69 c-42 -38
-86 -76 -98 -84 -12 -8 -27 -20 -34 -27 -7 -7 -18 -13 -23 -13 -5 0 -9 -6 -9
-14 0 -8 -10 -16 -22 -20 -13 -3 -47 -21 -76 -41 -30 -19 -65 -35 -78 -35 -55
0 -163 77 -189 134 -8 17 -19 38 -24 46 -48 80 -81 326 -62 455 6 39 11 96 11
127 0 40 6 68 20 90 11 18 20 41 20 51 0 23 43 107 86 168 19 27 34 52 34 55
0 17 285 314 301 314 4 0 10 -7 13 -16z"/>
<path d="M2014 9556 c-17 -7 -53 -18 -80 -24 -78 -17 -143 -51 -190 -98 -41
-41 -44 -47 -44 -98 0 -57 42 -168 73 -194 17 -14 188 -18 222 -6 30 12 64 56
65 84 0 14 11 39 24 55 l25 30 53 -28 c61 -33 99 -64 121 -98 18 -29 23 -189
8 -259 -20 -90 -42 -166 -56 -192 -8 -14 -15 -35 -15 -46 0 -12 -5 -24 -11
-28 -6 -3 -19 -25 -30 -48 -20 -41 -27 -54 -63 -111 -22 -34 -227 -245 -238
-245 -4 0 -32 -16 -63 -35 -30 -20 -63 -39 -73 -42 -9 -4 -32 -18 -49 -31 -30
-22 -33 -29 -33 -78 0 -45 -3 -54 -17 -54 -10 0 -31 -7 -47 -15 -50 -26 -59
-21 -53 33 2 26 12 65 20 87 25 61 22 219 -4 298 -42 128 -122 217 -245 273
-113 53 -191 75 -284 81 -74 5 -92 3 -132 -16 -32 -14 -67 -21 -111 -21 -44 0
-68 -5 -76 -14 -7 -8 -45 -30 -85 -49 -117 -57 -236 -169 -236 -223 0 -9 26
-42 58 -74 46 -45 68 -60 103 -67 50 -11 69 -7 69 13 0 21 33 17 53 -6 28 -33
59 -22 62 23 1 10 26 43 56 73 l54 55 84 -7 c99 -8 148 -31 211 -100 62 -68
80 -114 80 -214 0 -62 -4 -92 -16 -108 -8 -12 -18 -47 -21 -77 -3 -30 -12 -60
-19 -66 -8 -6 -14 -16 -14 -21 0 -5 -12 -35 -26 -66 -29 -61 -147 -192 -174
-192 -9 0 -41 -18 -70 -40 -29 -22 -58 -40 -64 -40 -6 0 -29 -17 -51 -38 -22
-20 -52 -42 -65 -48 -14 -6 -73 -54 -131 -106 -58 -52 -122 -105 -142 -117
-21 -12 -37 -25 -37 -27 0 -2 12 -23 28 -46 15 -22 35 -52 44 -66 15 -23 22
-25 85 -23 37 1 82 -3 98 -7 25 -8 42 -3 105 30 113 58 177 101 234 156 28 27
82 72 120 101 38 28 104 85 147 126 43 41 84 75 90 75 7 0 36 18 65 40 29 22
56 40 60 40 4 0 29 18 55 40 26 22 53 40 60 40 15 0 69 49 69 63 0 9 125 154
145 169 6 4 51 7 100 5 89 -2 91 -1 139 33 26 19 57 40 68 46 11 7 45 34 76
60 52 46 78 64 142 96 14 6 43 28 65 48 43 39 147 103 185 115 13 4 37 16 54
26 17 11 38 19 47 19 9 0 22 6 28 14 7 8 28 17 48 21 20 3 52 15 72 26 20 10
43 19 51 19 8 0 24 7 34 15 11 8 37 15 57 15 25 0 42 6 51 18 7 11 31 22 52
26 22 4 49 14 60 22 11 8 29 14 40 14 35 0 121 48 149 84 19 25 36 36 53 36
30 0 94 28 94 41 0 5 16 9 35 9 24 0 35 5 35 15 0 9 -9 15 -23 15 -12 0 -31 9
-40 21 -13 14 -26 19 -45 15 -15 -3 -76 -12 -137 -21 -106 -16 -237 -41 -340
-65 -27 -6 -77 -15 -110 -21 -33 -5 -80 -16 -105 -24 -24 -9 -68 -18 -97 -21
l-51 -7 8 34 c4 19 18 70 30 114 12 44 28 112 35 150 8 39 18 83 24 98 16 40
13 147 -4 177 -8 14 -14 43 -15 66 0 81 -92 183 -217 241 -72 33 -77 34 -236
39 -125 3 -169 1 -193 -10z"/>
<path d="M4706 8328 c-21 -8 -25 -13 -15 -19 22 -14 36 -10 42 11 3 11 4 20 4
19 -1 0 -15 -5 -31 -11z"/>
<path d="M9230 7471 c-19 -5 -56 -12 -81 -15 l-46 -7 -6 -79 c-4 -44 -11 -89
-17 -100 -7 -13 -15 -145 -21 -328 -5 -169 -13 -329 -17 -355 -8 -55 0 -50
-212 -118 -99 -32 -105 -35 -235 -91 -83 -36 -224 -135 -269 -189 -25 -30 -26
-34 -26 -172 1 -78 7 -176 14 -217 17 -91 80 -284 107 -325 10 -16 26 -44 34
-61 24 -53 138 -149 208 -175 56 -22 76 -24 207 -22 139 1 147 3 205 31 33 17
67 38 76 49 22 25 109 182 109 197 0 6 6 20 14 31 29 42 82 254 112 445 29
188 32 214 33 286 1 79 5 84 65 84 18 0 37 5 43 11 6 6 46 15 89 20 72 9 183
53 232 91 27 22 14 57 -30 80 -39 20 -60 23 -222 26 l-179 4 5 233 c3 128 10
241 16 251 7 13 6 24 -6 42 -14 21 -14 35 1 151 10 70 17 147 17 172 l0 44
-47 2 c-27 1 -68 4 -93 7 -25 3 -61 1 -80 -3z m-205 -1373 c-4 -84 -13 -184
-22 -223 -8 -38 -18 -98 -23 -132 -6 -34 -17 -79 -26 -100 -16 -37 -49 -112
-64 -143 -13 -28 -35 -21 -86 29 -98 94 -146 233 -148 428 l-1 121 30 24 c42
33 191 107 242 120 24 6 46 14 49 19 3 5 16 9 30 9 l25 0 -6 -152z"/>
<path d="M6355 6955 c-53 -28 -55 -36 -55 -216 0 -151 2 -174 25 -244 25 -76
52 -124 69 -125 5 0 18 -8 28 -17 15 -13 35 -17 88 -15 61 2 69 0 75 -18 6
-20 25 -28 25 -11 0 5 7 17 15 25 24 24 60 176 46 192 -5 5 -11 106 -15 224
-3 118 -5 216 -6 218 -1 10 -30 -1 -30 -13 0 -10 -10 -15 -34 -15 -18 0 -39 7
-46 15 -17 21 -144 20 -185 0z"/>
<path d="M5810 6624 c-14 -7 -33 -14 -43 -14 -41 0 -55 -18 -66 -87 -35 -224
-34 -219 -17 -249 9 -16 21 -42 26 -58 10 -27 12 -28 24 -11 15 21 46 14 46
-10 0 -15 14 -18 80 -16 19 1 41 -3 49 -8 21 -14 66 12 80 46 18 44 31 141 31
233 0 119 -8 160 -31 160 -10 0 -44 7 -76 15 -67 17 -70 17 -103 -1z"/>
<path d="M10827 5443 c-13 -12 -7 -32 7 -27 9 3 21 -5 31 -20 16 -24 44 -34
58 -20 9 10 -16 32 -30 27 -7 -3 -13 2 -13 11 0 9 5 16 11 16 5 0 7 5 4 10 -7
11 -58 14 -68 3z"/>
<path d="M10726 5353 c-6 -14 -5 -15 5 -6 7 7 10 15 7 18 -3 3 -9 -2 -12 -12z"/>
<path d="M10840 5320 c-8 -5 -23 -7 -34 -4 -12 4 -16 2 -12 -5 11 -17 66 -14
66 4 0 18 0 18 -20 5z"/>
<path d="M10870 5270 c0 -5 5 -10 10 -10 6 0 10 5 10 10 0 6 -4 10 -10 10 -5
0 -10 -4 -10 -10z"/>
</g>
</svg>
