<?xml version="1.0" standalone="no"?>
<!DOCTYPE svg PUBLIC "-//W3C//DTD SVG 20010904//EN"
 "http://www.w3.org/TR/2001/REC-SVG-20010904/DTD/svg10.dtd">
<svg version="1.0" xmlns="http://www.w3.org/2000/svg"
 width="1005.000000pt" height="1004.000000pt" viewBox="0 0 1005.000000 1004.000000"
 preserveAspectRatio="xMidYMid meet">

<g transform="translate(0.000000,1004.000000) scale(0.100000,-0.100000)"
fill="#000000" stroke="none">
<path d="M928 9418 c-16 -5 -28 -15 -29 -21 -3 -26 3 -60 16 -90 7 -18 16 -63
20 -102 4 -38 11 -80 17 -95 5 -14 14 -77 18 -141 5 -64 14 -128 19 -142 6
-14 13 -70 16 -124 3 -54 11 -123 17 -153 5 -30 14 -75 18 -100 5 -25 9 -70 9
-101 1 -30 10 -104 21 -164 11 -60 20 -130 20 -156 0 -26 9 -107 19 -181 10
-73 29 -209 40 -303 12 -93 27 -201 32 -240 26 -179 38 -257 52 -345 28 -170
56 -374 61 -440 3 -36 12 -83 20 -105 8 -22 15 -72 16 -112 0 -39 6 -102 14
-140 8 -38 18 -104 21 -148 4 -44 16 -136 27 -204 17 -107 18 -125 6 -138 -21
-21 -193 -83 -230 -83 -17 0 -51 -9 -75 -21 -33 -16 -43 -26 -43 -44 0 -35 18
-75 36 -82 18 -7 108 14 237 53 117 36 114 37 122 -53 3 -43 12 -143 20 -223
8 -80 17 -224 21 -320 4 -127 10 -178 20 -186 8 -7 16 -58 24 -155 12 -158 48
-494 56 -520 2 -9 22 -122 44 -250 22 -129 44 -252 50 -274 5 -22 10 -64 10
-94 0 -69 32 -141 63 -142 54 -3 74 4 99 34 28 32 35 65 19 82 -18 20 -85 332
-121 560 -18 117 -27 190 -60 500 -6 50 -14 108 -19 130 -5 22 -12 81 -16 130
-3 50 -15 171 -25 270 -10 99 -21 230 -25 290 -3 61 -12 148 -20 194 -24 136
-23 143 33 165 62 25 293 140 340 170 20 12 66 39 102 58 119 64 194 108 310
184 63 41 147 93 185 116 39 23 90 58 115 78 25 20 62 46 82 58 81 46 229 167
349 284 141 138 183 186 219 255 14 25 31 48 38 51 19 6 17 -888 -3 -1108 -8
-91 -22 -254 -30 -362 -8 -108 -17 -203 -20 -210 -3 -7 -9 -94 -14 -193 -9
-168 -29 -314 -81 -595 -12 -63 -28 -162 -35 -220 -8 -58 -23 -148 -34 -200
-18 -83 -24 -98 -53 -123 -33 -27 -33 -28 -10 -34 22 -5 23 -8 16 -71 l-7 -65
49 7 c51 8 93 28 98 49 47 162 156 796 171 997 3 41 14 152 25 245 41 369 51
489 60 720 5 132 14 296 20 365 16 174 16 1760 1 1788 -6 11 -11 60 -11 108 0
146 -21 518 -30 535 -5 9 -14 47 -20 85 -20 124 -47 154 -125 140 l-35 -7 0
-57 c0 -31 7 -85 15 -120 14 -60 18 -99 30 -276 2 -43 10 -85 16 -93 9 -10 9
-19 -1 -38 -11 -20 -10 -26 3 -40 14 -14 16 -68 17 -471 0 -524 14 -450 -118
-648 -39 -60 -72 -112 -72 -115 0 -24 -227 -258 -317 -328 -41 -32 -97 -77
-123 -100 -47 -43 -194 -143 -208 -143 -5 0 -32 -20 -62 -46 -29 -25 -69 -53
-90 -64 -20 -10 -42 -26 -49 -34 -8 -9 -20 -16 -28 -16 -7 0 -54 -27 -103 -60
-49 -33 -93 -60 -97 -60 -4 0 -32 -18 -61 -40 -29 -22 -59 -40 -67 -40 -7 0
-16 -4 -19 -8 -3 -5 -72 -42 -153 -82 -81 -40 -165 -81 -186 -91 -70 -35 -70
-35 -86 176 -5 61 -25 193 -44 295 -20 102 -39 212 -42 245 -4 33 -11 76 -16
95 -4 19 -15 96 -24 170 -8 74 -18 143 -21 152 -3 10 -11 71 -19 135 -7 65
-31 253 -54 418 -23 165 -50 373 -60 462 -11 89 -24 171 -30 182 -6 11 -11 44
-11 73 0 29 -7 98 -15 153 -9 55 -20 146 -25 203 -5 56 -16 140 -24 185 -8 45
-17 111 -21 147 -3 36 -13 99 -20 140 -23 120 -46 261 -54 322 -11 91 -52 123
-123 96z"/>
<path d="M7460 9210 c-69 -58 -240 -236 -250 -261 -7 -16 -20 -31 -30 -34 -9
-3 -29 -30 -45 -60 -15 -31 -55 -97 -89 -148 -86 -130 -181 -310 -248 -472
-38 -93 -86 -261 -127 -445 -47 -215 -47 -599 0 -709 11 -24 19 -59 19 -78 0
-39 42 -128 65 -136 10 -4 15 -19 15 -45 0 -44 11 -57 55 -68 16 -4 36 -13 43
-21 18 -18 31 -17 86 7 38 17 50 30 71 74 14 29 25 66 25 82 0 16 7 39 15 51
8 12 38 78 65 146 28 69 61 145 75 169 14 23 32 65 41 92 18 55 117 248 146
285 10 13 18 27 18 31 0 5 18 40 40 79 22 39 40 75 40 81 0 6 11 26 25 44 23
30 76 131 125 238 11 24 24 50 29 58 5 8 39 76 75 150 47 97 66 146 66 175 1
22 9 58 20 80 11 22 19 55 20 73 0 40 27 44 36 5 12 -56 149 -337 188 -384 11
-15 30 -39 41 -55 11 -15 41 -53 66 -83 25 -31 63 -81 85 -112 182 -262 328
-408 519 -519 36 -21 55 -25 112 -24 38 1 78 4 90 8 11 4 45 34 74 69 30 34
91 100 137 146 76 78 122 144 110 157 -8 7 -118 -37 -173 -70 -27 -16 -71 -46
-97 -65 -25 -20 -61 -45 -79 -56 -18 -11 -42 -26 -54 -32 -33 -21 -73 -16 -90
11 -9 13 -28 26 -43 29 -56 11 -268 218 -382 371 -72 99 -180 257 -180 265 0
5 -14 26 -31 47 -86 108 -203 396 -215 526 -8 95 -11 103 -50 141 -49 47 -42
60 21 38 65 -23 142 -33 150 -20 11 17 -65 77 -129 100 -33 12 -68 28 -77 36
-8 7 -22 13 -30 13 -8 0 -26 8 -39 18 -21 14 -51 17 -175 20 -140 2 -152 1
-175 -18z m329 -109 c11 -7 9 -15 -10 -42 -13 -19 -27 -35 -31 -37 -12 -6 -9
-24 6 -36 12 -9 12 -21 0 -76 -8 -36 -25 -100 -39 -143 -14 -43 -25 -95 -25
-115 -1 -20 -7 -55 -16 -77 -8 -22 -19 -60 -25 -85 -16 -73 -83 -227 -175
-407 -148 -288 -261 -506 -293 -563 -16 -30 -55 -104 -86 -165 -55 -110 -71
-139 -138 -248 -20 -32 -44 -79 -54 -103 -23 -56 -45 -54 -55 3 -4 23 -11 50
-17 61 -5 10 -15 50 -22 88 -6 38 -15 74 -19 79 -16 21 -18 205 -4 287 8 46
17 117 20 158 3 41 14 100 24 130 10 30 21 77 24 104 14 112 190 521 260 605
21 24 44 57 52 73 78 152 305 427 403 490 40 25 54 28 125 28 45 0 87 -4 95
-9z m1432 -1324 c-10 -9 -11 -8 -5 6 3 10 9 15 12 12 3 -3 0 -11 -7 -18z"/>
<path d="M5604 8319 c-17 -9 -24 -33 -45 -152 -23 -139 -24 -157 -27 -752 -1
-343 2 -671 8 -750 5 -77 14 -221 20 -320 22 -373 76 -765 133 -970 14 -49 29
-108 32 -130 4 -22 15 -74 25 -115 11 -41 31 -126 45 -189 15 -62 31 -124 36
-138 5 -13 14 -65 19 -116 6 -50 17 -102 25 -114 8 -12 15 -28 15 -35 0 -7
-46 -58 -101 -113 -111 -110 -207 -243 -216 -298 -5 -31 -1 -40 28 -69 18 -18
40 -31 48 -30 25 6 71 52 109 112 44 70 290 321 361 369 113 77 159 104 256
150 188 91 212 97 363 93 l72 -2 0 -38 c0 -72 -80 -284 -147 -390 -18 -29 -33
-55 -33 -58 0 -39 -196 -340 -295 -453 -152 -175 -401 -426 -519 -526 -45 -37
-48 -42 -43 -78 3 -22 16 -50 28 -63 21 -22 30 -24 125 -24 74 0 105 4 113 14
6 8 24 16 39 19 29 5 229 76 283 100 80 36 269 104 439 158 84 27 187 64 245
88 11 5 40 16 65 25 25 9 92 40 150 68 l105 53 -4 50 c-1 28 -4 51 -6 53 -1 2
-25 -4 -51 -12 -27 -8 -101 -31 -164 -50 -63 -19 -146 -47 -185 -61 -38 -15
-81 -31 -95 -35 -14 -5 -74 -27 -135 -48 -60 -22 -166 -59 -235 -82 -145 -49
-175 -60 -250 -89 -62 -24 -110 -27 -110 -8 0 7 46 62 103 122 56 61 122 134
145 164 23 30 65 79 93 110 28 31 61 67 73 81 106 118 219 323 344 620 91 216
99 275 48 343 -68 89 -242 133 -354 88 -29 -12 -61 -21 -71 -21 -42 0 -260
-101 -394 -182 -43 -27 -87 -48 -98 -48 -23 0 -25 26 -2 38 14 9 14 10 -4 16
-25 8 -32 22 -48 106 -7 36 -25 106 -40 155 -15 50 -32 119 -39 155 -7 36 -17
76 -23 90 -13 31 -50 193 -62 275 -5 33 -14 85 -20 115 -53 263 -90 578 -91
757 0 89 4 164 8 167 4 2 23 -11 41 -29 35 -36 200 -130 248 -141 16 -4 34
-12 42 -18 9 -7 80 -11 206 -11 178 0 195 1 215 20 31 28 42 52 35 75 -9 27
-60 27 -75 1 -9 -17 -18 -19 -83 -15 -48 3 -76 9 -83 19 -8 10 -30 15 -70 15
-32 0 -71 6 -86 14 -15 8 -39 17 -55 20 -16 4 -51 24 -80 45 -28 22 -61 42
-74 46 -13 4 -52 35 -86 68 -57 55 -63 64 -63 101 0 54 74 202 113 226 16 10
94 81 175 158 81 77 179 164 217 193 39 29 83 63 98 76 16 13 36 23 46 23 19
0 61 39 61 57 0 6 -6 16 -14 22 -11 10 -16 8 -21 -8 -7 -24 -24 -28 -26 -6 -1
8 -2 19 -3 24 -3 21 -17 22 -42 2 -15 -11 -32 -21 -38 -21 -18 0 -108 -49
-127 -69 -9 -10 -39 -36 -66 -57 -26 -21 -94 -79 -151 -127 -56 -49 -122 -103
-146 -120 -24 -18 -63 -47 -87 -65 -30 -23 -46 -29 -53 -22 -16 16 -11 810 5
857 7 21 12 118 13 246 l1 212 -30 2 c-16 1 -39 -2 -51 -8z"/>
<path d="M2325 8103 c-27 -3 -55 -9 -62 -15 -8 -6 -13 -36 -13 -77 -1 -36 -7
-136 -15 -221 -9 -85 -20 -218 -25 -295 -6 -77 -17 -183 -25 -236 -8 -53 -15
-122 -15 -153 0 -54 3 -60 43 -103 l43 -45 85 -5 c133 -9 186 11 274 101 95
96 139 202 151 359 l7 86 -26 6 c-57 15 -69 5 -83 -64 -21 -103 -44 -162 -84
-221 -20 -30 -40 -65 -44 -77 -4 -12 -21 -34 -37 -48 -24 -20 -41 -25 -84 -25
-88 0 -85 -4 -85 132 l0 121 48 -7 c26 -3 70 -16 99 -28 28 -11 58 -18 67 -15
8 3 22 23 31 43 14 33 14 42 1 73 l-14 36 -95 5 c-52 3 -99 8 -103 13 -11 10
14 371 31 463 8 42 15 105 15 140 0 55 -2 64 -17 62 -10 -1 -40 -3 -68 -5z"/>
<path d="M1685 7649 c-20 -17 -26 -28 -22 -48 9 -48 38 -145 46 -155 5 -6 14
-56 21 -110 6 -55 16 -110 21 -123 5 -13 13 -74 19 -136 6 -61 17 -150 25
-196 8 -46 15 -116 15 -155 0 -128 32 -259 74 -306 25 -28 32 -31 64 -25 39 6
81 31 93 56 33 63 39 88 28 112 -8 18 -8 34 -2 54 12 32 3 103 -17 146 -16 32
-45 38 -35 7 4 -14 1 -22 -10 -27 -23 -8 -35 13 -35 62 0 22 -7 60 -16 84 -8
24 -19 93 -25 153 -6 60 -17 127 -25 150 -8 22 -14 61 -14 87 0 26 -7 71 -15
101 -8 30 -18 95 -22 144 -5 73 -10 93 -30 117 -32 37 -96 41 -138 8z"/>
<path d="M4560 7493 c-127 -20 -212 -60 -245 -117 -28 -48 -32 -88 -10 -106
24 -20 18 -54 -15 -85 -108 -103 -223 -309 -291 -518 -16 -48 -29 -97 -29
-109 0 -11 -9 -57 -19 -102 -54 -224 -69 -409 -38 -478 10 -21 17 -53 17 -72
0 -42 25 -102 76 -181 70 -111 164 -180 302 -225 63 -20 85 -22 159 -16 48 3
91 10 97 15 6 5 27 11 46 15 67 12 188 104 238 181 111 171 196 425 251 752
23 135 40 458 29 566 -13 133 -75 250 -182 344 -56 50 -109 75 -218 107 -100
29 -135 35 -168 29z m236 -165 c66 -34 134 -104 172 -177 42 -78 56 -198 48
-396 -4 -82 -11 -170 -17 -195 -5 -25 -16 -83 -25 -130 -19 -107 -49 -227 -75
-305 -27 -80 -88 -224 -108 -255 -9 -14 -23 -38 -31 -54 -26 -51 -113 -132
-175 -162 -55 -26 -69 -29 -170 -29 -98 1 -115 3 -150 24 -41 24 -105 88 -105
105 0 5 -16 31 -35 57 -19 27 -35 61 -35 77 0 15 -10 47 -21 72 -40 88 -21
335 47 590 45 171 113 320 220 480 68 103 86 124 122 134 18 6 22 15 22 45 0
20 -7 46 -15 57 -21 28 -18 59 8 72 42 20 52 21 162 19 96 -3 116 -6 161 -29z"/>
<path d="M8360 5447 c-117 -61 -390 -368 -390 -438 0 -43 -27 -38 -79 15 -26
27 -75 59 -124 82 -79 38 -86 39 -187 39 -91 0 -111 -3 -150 -24 -74 -39 -121
-101 -158 -209 -38 -108 -25 -236 43 -438 54 -159 80 -213 180 -375 6 -9 21
-36 34 -60 29 -56 252 -277 324 -323 68 -43 127 -99 127 -118 0 -14 -238 -167
-380 -246 -95 -52 -173 -98 -240 -140 -36 -23 -99 -59 -140 -80 -41 -22 -105
-57 -141 -80 -37 -22 -100 -58 -140 -80 -41 -22 -105 -59 -144 -83 -120 -74
-393 -213 -545 -279 -41 -18 -93 -40 -115 -50 -84 -38 -301 -128 -325 -135
-14 -4 -38 -13 -55 -21 -93 -41 -502 -188 -655 -235 -52 -16 -108 -34 -125
-40 -40 -14 -116 -35 -195 -55 -36 -9 -74 -20 -85 -25 -21 -10 -45 -16 -285
-67 -185 -40 -365 -68 -537 -85 -29 -3 -58 -9 -65 -13 -7 -5 -98 -11 -202 -14
-139 -4 -190 -8 -194 -17 -5 -16 -74 -17 -88 -3 -8 8 -19 7 -38 -1 -21 -10
-40 -10 -84 -1 -31 6 -97 14 -147 18 -90 6 -204 32 -260 58 -195 91 -205 98
-308 206 -104 109 -135 160 -172 286 -40 136 -50 279 -20 290 7 3 27 -2 45
-11 24 -12 64 -17 168 -18 124 -2 142 0 185 21 77 37 122 84 155 165 17 40 33
95 37 122 4 28 16 86 26 130 19 81 15 143 -10 168 -6 6 -11 19 -11 28 0 10
-17 31 -37 46 -34 26 -42 28 -138 28 -78 0 -111 -4 -145 -20 -78 -34 -192
-116 -271 -194 -82 -82 -97 -105 -149 -226 -29 -66 -30 -69 -45 -95 -16 -28
-13 -157 7 -260 22 -117 93 -298 168 -430 34 -60 181 -200 270 -259 117 -76
268 -151 306 -151 11 0 45 -9 77 -20 48 -17 82 -20 231 -20 130 0 175 -3 179
-12 4 -10 7 -10 18 -1 9 9 48 13 118 13 59 0 147 5 196 10 182 18 352 40 425
55 41 8 107 19 145 24 83 12 238 46 274 60 14 6 44 13 66 17 22 3 92 21 155
39 63 18 129 36 145 39 17 4 75 21 130 38 55 17 143 43 195 59 52 16 129 41
170 55 41 14 107 35 145 47 39 12 72 25 75 29 8 10 113 58 128 58 8 0 26 6 40
14 15 8 65 29 112 46 256 95 677 284 875 392 68 38 201 113 250 143 81 48 433
253 475 276 16 9 35 21 42 26 7 6 23 14 36 18 12 3 45 21 72 38 27 18 99 64
160 102 61 39 143 94 182 123 38 29 81 58 94 64 13 6 24 15 24 20 0 19 53 6
104 -27 78 -50 290 -158 371 -189 39 -15 79 -31 90 -36 11 -5 49 -21 85 -36
36 -15 76 -36 89 -46 23 -18 20 -18 -133 -18 -127 0 -167 -4 -213 -19 -32 -11
-70 -22 -85 -25 -16 -4 -28 -11 -28 -16 0 -6 -9 -10 -19 -10 -10 0 -45 -14
-77 -31 -140 -75 -184 -107 -184 -133 0 -11 -4 -28 -10 -36 -8 -12 -12 -12
-36 0 -26 14 -28 13 -60 -24 -44 -50 -54 -90 -54 -203 0 -80 -3 -96 -20 -113
-27 -27 -25 -54 5 -107 29 -48 49 -53 95 -26 43 25 73 116 78 231 4 88 5 94
35 124 52 50 177 137 247 170 36 16 77 36 92 44 14 8 55 14 91 14 36 0 78 5
93 10 19 8 30 8 38 0 5 -5 47 -10 93 -10 79 0 83 -1 100 -27 10 -16 27 -35 38
-44 19 -16 19 -18 -23 -145 -23 -71 -60 -169 -81 -219 -22 -49 -42 -97 -45
-105 -4 -8 -17 -33 -31 -55 -13 -22 -42 -74 -64 -115 -105 -192 -122 -219
-145 -220 -6 -1 -40 -60 -76 -131 -36 -72 -82 -158 -103 -191 -37 -57 -97
-186 -97 -207 0 -7 29 -11 74 -11 69 0 75 2 82 22 4 13 24 43 44 68 21 25 60
83 87 130 28 47 81 135 118 195 37 61 97 168 133 239 35 71 79 152 96 180 50
78 122 233 145 311 11 39 28 96 37 127 18 63 15 126 -11 198 -21 61 -60 101
-124 130 l-56 25 45 5 45 5 0 50 c-1 68 -39 120 -99 135 -22 6 -59 20 -82 30
-23 11 -52 20 -65 20 -14 0 -35 7 -47 16 -12 8 -47 24 -77 34 -67 23 -315 130
-332 143 -23 17 -14 34 43 89 70 68 177 211 272 368 91 150 106 185 171 395
70 229 73 281 27 455 -86 322 -153 454 -273 540 -58 42 -89 46 -143 17z m120
-143 c40 -34 78 -110 128 -259 84 -249 96 -340 62 -456 -54 -181 -163 -426
-221 -501 -18 -22 -43 -56 -57 -76 -13 -21 -49 -67 -78 -103 -30 -36 -54 -71
-54 -76 0 -12 -93 -108 -125 -129 -18 -12 -28 -13 -44 -4 -24 12 -109 83 -161
134 -19 18 -43 36 -52 39 -10 4 -30 25 -45 49 -16 23 -64 79 -108 123 -95 94
-155 167 -155 186 0 8 -9 25 -20 39 -11 14 -20 30 -20 35 0 6 -9 27 -20 47
-11 21 -38 92 -60 159 -36 110 -40 131 -40 224 0 135 22 190 94 232 78 46 108
51 198 32 112 -24 175 -135 185 -329 6 -115 14 -133 69 -156 20 -8 42 -10 60
-5 l29 8 0 174 0 174 44 80 c24 44 51 89 61 100 9 11 26 36 38 55 32 54 226
230 254 230 3 0 21 -12 38 -26z m-5716 -2119 c-1 -124 -41 -247 -106 -323 -21
-26 -38 -33 -90 -42 -75 -12 -267 7 -275 27 -3 7 15 49 39 95 34 65 64 104
141 181 116 114 191 158 262 154 l30 -2 -1 -90z"/>
<path d="M4780 4497 c-19 -7 -53 -25 -75 -40 -22 -15 -44 -27 -50 -27 -6 0
-32 -18 -59 -40 -26 -22 -53 -40 -60 -40 -6 0 -27 -14 -46 -31 -19 -16 -70
-60 -112 -96 -70 -59 -93 -87 -141 -165 -22 -36 -22 -41 9 -76 23 -26 30 -29
61 -22 19 5 36 10 37 12 24 39 82 103 125 140 155 133 242 196 301 222 36 15
75 32 86 38 17 8 28 6 49 -8 l27 -18 -4 -170 c-4 -151 -8 -179 -30 -241 -36
-100 -109 -244 -166 -328 -17 -26 -32 -51 -32 -54 0 -3 -21 -30 -47 -60 -27
-30 -59 -72 -73 -93 -48 -72 -126 -156 -361 -385 -130 -126 -239 -238 -243
-248 -12 -28 3 -76 32 -102 46 -43 131 -34 322 32 25 8 63 19 85 24 22 5 56
16 75 23 19 8 62 22 95 31 33 9 83 25 110 35 28 10 61 22 75 25 54 15 335 161
379 197 25 21 50 38 56 38 23 0 75 66 75 94 0 27 -2 28 -36 21 -20 -3 -53 -15
-73 -26 -20 -10 -41 -19 -48 -19 -6 0 -24 -6 -40 -14 -59 -30 -310 -127 -398
-154 -38 -12 -124 -40 -191 -62 -187 -62 -204 -54 -98 50 54 54 138 152 197
232 7 9 28 34 47 54 19 21 48 59 66 85 17 26 37 53 43 60 7 8 30 34 52 59 22
25 42 55 45 68 4 12 10 22 14 22 4 0 18 17 30 38 42 69 63 107 78 137 8 17 20
37 27 45 11 14 26 65 70 236 8 34 18 105 22 157 5 86 3 104 -21 179 -28 88
-73 150 -124 169 -33 13 -121 10 -162 -4z"/>
<path d="M1480 3292 c-89 -47 -155 -85 -160 -92 -3 -4 -19 -16 -35 -26 -169
-106 -311 -241 -365 -348 -38 -74 -38 -102 0 -148 42 -50 103 -78 173 -78 73
0 75 16 8 67 -28 21 -50 44 -50 51 -1 8 15 33 34 57 19 23 48 61 63 83 50 75
180 200 245 236 111 62 199 85 218 55 11 -18 11 -111 -1 -224 -9 -88 -94 -370
-141 -471 -10 -22 -19 -43 -19 -46 0 -3 -18 -45 -40 -92 -22 -47 -40 -88 -40
-90 0 -8 -130 -230 -149 -256 -11 -14 -45 -65 -77 -115 -54 -85 -205 -251
-383 -421 -72 -69 -74 -86 -17 -129 30 -23 41 -25 139 -25 88 0 108 3 115 16
8 15 35 17 203 19 400 3 668 65 764 178 30 34 52 83 42 93 -1 2 -36 -8 -76
-21 -40 -14 -79 -25 -86 -25 -7 0 -26 -7 -41 -15 -16 -8 -41 -15 -55 -15 -15
0 -46 -7 -70 -16 -35 -13 -102 -17 -324 -21 -154 -3 -295 -8 -312 -13 -53 -13
-42 15 43 110 72 81 121 147 189 251 17 26 43 66 60 90 16 24 45 73 64 109 18
36 51 99 73 140 21 41 43 82 48 90 10 16 97 202 110 235 4 11 20 54 36 95 15
41 33 82 40 90 6 8 14 42 17 75 4 33 13 80 22 105 14 40 35 178 36 235 1 68
-40 185 -64 185 -5 0 -20 9 -34 20 -35 27 -153 28 -203 2z"/>
<path d="M4690 1251 c0 -5 5 -13 10 -16 6 -3 10 -2 10 4 0 5 -4 13 -10 16 -5
3 -10 2 -10 -4z"/>
</g>
</svg>
