<?xml version="1.0" encoding="utf-8"?>
<!-- Generator: Adobe Illustrator 23.0.0, SVG Export Plug-In . SVG Version: 6.00 Build 0)  -->
<svg version="1.1" id="图层_1" xmlns="http://www.w3.org/2000/svg" xmlns:xlink="http://www.w3.org/1999/xlink" x="0px" y="0px"
	 viewBox="0 0 1718 837" style="enable-background:new 0 0 1718 837;" xml:space="preserve">
<style type="text/css">
	.st0{fill:#8FC320;}
	.st1{fill:#E94745;}
	.st2{fill:#00ADB3;}
	.st3{fill:#EB6389;}
	.st4{fill:#009FE9;}
	.st5{fill:#F39801;}
	.st6{fill:#A64A97;}
	.st7{fill:#70C7D0;}
	.st8{fill:#FFD900;}
	.st9{fill:#E96187;}
	.st10{fill:#F29EC2;}
	.st11{fill:#EB638B;}
	.st12{fill:#6FC6CF;}
	.st13{fill:#70C7D1;}
</style>
<g>
	<path d="M332,40.9c-39.6,8.5-68.6,39-76.5,80.4c-0.8,4.3-1.5,10.3-1.5,13.3v5.4h18h18v-5.2c0-16.3,11-38.4,24.2-48.6
		c11.9-9.2,24.7-13.4,40.3-13.5c19.2,0,33,5.7,46.5,19.3c13.3,13.3,18.4,25.6,18.4,44.5c0.1,12.8-2.2,22.1-8.1,34.1
		c-5,10.2-8.7,14.7-60.8,76.9c-25.3,30.1-59.1,70.5-75.2,89.6L246.1,372l35.2,0.1c19.4,0.1,36.3,0.2,37.7,0.2l2.5,0.2l0.3,67.2
		L322,507h67h67l-0.2-67.3l-0.3-67.2l67.3,0.3L590,373v-67.5V238h-67h-67v49.9v49.9l-2.2,0.5c-3.9,1.1-132.6,0.8-133.3-0.2
		c-0.3-0.6,24.6-30.8,55.3-67.3s57.9-69.1,60.4-72.5c21.4-29,25.5-72.9,9.9-104.2c-5.7-11.4-9.3-16.4-18-25.2
		c-15-14.9-33.9-24.8-54.8-28.4C361.7,38.5,342.7,38.7,332,40.9z"/>
	<path class="st0" d="M591,171v67h67h67v-67v-67h-67h-67V171z"/>
	<path d="M761,280.5V457h438h438V280.5V104h-438H761V280.5z M935,193v85h-84.5H766v-85v-85h84.5H935V193z M1109,193v85l-84.2-0.2
		l-84.3-0.3l-0.3-83.5c-0.1-45.9,0-84.1,0.3-84.8c0.3-0.9,18.2-1.2,84.5-1.2h84V193z M1283.8,193.3l0.2,84.7l-84.7-0.2l-84.8-0.3
		l-0.3-83.5c-0.1-45.9,0-84.1,0.3-84.8c0.3-1,17.8-1.2,84.7-1l84.3,0.3L1283.8,193.3z M1458,193v85h-84.5H1289v-85v-85h84.5h84.5
		V193z M1632.5,193v84.5H1548h-84.5l-0.3-83.5c-0.1-45.9,0-84.1,0.3-84.8c0.3-1,17.8-1.2,84.7-1l84.3,0.3V193z M935,367.5V452h-84.5
		H766v-84.5V283h84.5H935V367.5z M1110,367.5V452h-85h-85v-84.5V283h85h85V367.5z M1284,367.5V452h-84.5H1115v-84.5V283h84.5h84.5
		V367.5z M1458,367.5V452h-84.5H1289v-84.5V283h84.5h84.5V367.5z M1633,367.5V452h-85h-85v-84.5V283h85h85V367.5z"/>
	<path class="st1" d="M875,134.5V146h-44h-44v8v8h44.1h44.2l-0.6,19.7c-0.4,15.7-0.9,21.4-2.6,27.6c-5.4,20.4-17.4,32-37.3,36.3
		c-4.1,0.8-15.2,1.8-25.5,2.1l-18.3,0.6v7.9v7.8h13.3c33.6,0,51.2-5.3,65.3-19.4c14.4-14.5,20.4-34.5,20.4-68.3V162h12h12v-8v-8h-12
		h-12v-11.5V123h-7.5H875V134.5z"/>
	<path class="st2" d="M1049.9,122.7c-0.1,0.4-0.3,5.7-0.4,11.8l-0.3,11l-43.6,0.3L962,146v8.6v8.5l43.5-0.3
		c38.1-0.3,43.5-0.1,43.6,1.2c0.4,4.6-0.1,28.3-0.6,33c-0.3,3-1.5,8.8-2.6,12.8c-4.9,18.4-14.6,29-31.3,34.1
		c-8.9,2.7-14.8,3.3-33.2,3.3l-16.4,0.1v8.5v8.5l20.3-0.6c15.7-0.4,22.1-1,28.7-2.7c25.5-6.3,40.6-21.7,46.9-48
		c2.3-9.7,4.4-29.2,4.1-38.9c-0.1-3.6-0.2-7.7-0.1-9.1l0.1-2.5l9.1,0.3c14.1,0.5,13.9,0.7,13.9-8.8v-8h-11.5H1065l-0.1-2.8
		c0-1.5,0-6.3-0.1-10.7s-0.3-8.5-0.5-9C1063.9,122.3,1050.1,121.5,1049.9,122.7z"/>
	<path class="st3" d="M1234,126v5h15h15v-5v-5h-15h-15V126z"/>
	<path class="st3" d="M1134,143v8h46.5h46.5v-8v-8h-46.5H1134V143z"/>
	<path class="st3" d="M1234,143v5h15h15v-5v-5h-15h-15V143z"/>
	<path class="st3" d="M1238,166.9c0,24.2-2.8,41.6-8.8,54c-3.7,7.8-13.5,17.4-21.4,21.1c-12.7,5.9-20,7.2-45.5,7.7l-23.3,0.6v7.8
		v7.9h13.3c42.7,0,62.3-5.3,77.7-20.9c15.6-15.8,22-38.3,22-77.9V154h-7h-7L1238,166.9L1238,166.9z"/>
	<path class="st4" d="M1431.5,127.4c-6.3,2.9-11.7,8.8-14.3,15.8c-2.4,6.3-3,10.4-3.7,25.3c-0.7,13.1-2.1,24-4.2,31.5
		c-6.1,22-22,37.8-42.7,42.5c-9.6,2.1-13.7,2.4-36.9,2.4l-21.8,0.1l0.3,8.2l0.3,8.3l20.5,0.1c11.3,0.1,24.1-0.3,28.5-0.8
		c31.6-3.4,53.7-20.3,63.9-48.7c4.6-12.8,6.1-22.1,7.1-43.6c0.4-8.5,1.3-15.4,2.1-17.5c1.7-4,5.2-8,7-8s2.2-1.7,2.1-10.3
		C1439.7,123.8,1439.5,123.6,1431.5,127.4z"/>
	<path class="st4" d="M1310.6,130.7c-0.3,0.3-0.6,4.2-0.6,8.5v7.8h35h35.1l-0.3-8.3l-0.3-8.2l-34.1-0.2
		C1326.6,130.2,1311,130.4,1310.6,130.7z"/>
	<path class="st5" d="M1599.5,125.4c-14.8,3.7-18.5,8.1-47.4,56.2c-29.4,49.1-30.2,50.3-36.1,55.8c-6.7,6.3-10.7,7.7-22.7,8.4
		l-10.3,0.5v7.9v8l12.8-0.4c11.1-0.3,13.4-0.7,18.5-3.1c6.6-3,15.7-11.2,20.9-18.9c3.2-4.6,28.4-46.1,47.4-77.8
		c9.5-15.9,13.3-19.1,24.7-20.5l5.5-0.7l-0.2-8.2l-0.1-8.1l-4-0.2C1606.3,124.2,1602.3,124.7,1599.5,125.4z"/>
	<path class="st6" d="M1061,302.5v5.5h15.5h15.5v-5.5V297h-15.5H1061V302.5z"/>
	<path class="st6" d="M962,315v8h33h33v-8v-8h-33h-33V315z"/>
	<path class="st6" d="M1061,317v5h15.5h15.5v-5v-5h-15.5H1061V317z"/>
	<path class="st6" d="M1069.9,330.7c-0.6,1.6-1.5,8.6-2,15.8c-1.1,17.1-2.6,27.3-5.1,35.4c-5,16.3-14.6,28.5-27.3,34.6
		c-12.5,6-16.9,6.7-48.7,7.2l-28.8,0.5v7.9v7.9h25.8c28.9,0,39.1-1.2,52.1-5.9c25.4-9.3,39.9-30.8,44.5-66.3
		c0.8-6.2,1.8-16,2.1-21.8c0.4-5.8,1.3-12,2.1-13.9c0.8-1.8,1.4-3.5,1.4-3.7s-3.4-0.4-7.5-0.4C1071.2,328,1070.9,328.1,1069.9,330.7
		z"/>
	<path class="st6" d="M962,363v8h33h33v-8v-8h-33h-33V363z"/>
	<path class="st7" d="M1156,339v8h30h27.5c1.6,0,3.2,0.5,4.5,1.5l0.7,0.5c0.5,0.4,1,0.8,1.4,1.2l0.4,0.4c1.3,1.4,2,3.3,2,5.2
		l0.3,29.6l0.3,32.6h-37.6H1148v7.5v7.5h51h51v-7.5V418h-6.5h-6.5v-32.8c0-37.7-0.4-40.6-7-47.2c-6.5-6.5-9.8-7-44.2-7H1156V339z"/>
	<path class="st0" d="M1367,304.5v8.5h-27h-27v33.5V380h7h7v-25v-25h46.6h46.6l-0.5,24.7c-0.6,32.7-2.7,41.4-13,52.9
		c-5.5,6.1-12.1,9.8-22.4,12.5c-6.4,1.7-11.9,2.2-31,2.6l-23.3,0.6v7.8v7.9h18.8c22.8,0,34-1.3,45.5-5.1
		c10.7-3.5,17.7-7.9,23.9-14.8c13.2-14.7,17.3-35.1,16.6-84.1l-0.3-21.5l-26.7-0.3L1381,313v-8.5V296h-7h-7V304.5z"/>
	<path class="st8" d="M1490.5,303c-0.1,0.3-0.2,3.9-0.1,8l0.1,7.5h57.5h57.4v-7.8l-0.1-7.7l-57.2-0.3
		C1516.6,302.6,1490.7,302.7,1490.5,303z"/>
	<path class="st8" d="M1485,416.2c-0.1,0.2-0.2,3.9-0.3,8.3l-0.2,8l63.3,0.3l63.2,0.2v-8.5V416h-63
		C1513.4,416,1485,416.1,1485,416.2z"/>
	<path d="M138.2,174.6c-41.6,7-72.6,38-80.7,80.7c-0.8,4.3-1.5,10.3-1.5,13.3v5.4h17.4h17.5l0.6-4.8c1.1-8.7,4.6-20.7,8.3-28.2
		c4.9-10,16.8-22.1,26.4-26.8c20.8-10.1,45.3-9.4,64.6,2c9.3,5.5,19.5,16.5,24.1,26.1c6.6,13.7,8.4,26.8,5.7,40.9
		c-2.7,13.5-7.3,24-15.5,35.3c-2,2.7-36.8,44.5-77.4,93c-40.7,48.4-75.2,89.7-76.9,91.7l-3,3.8h69.6H187v67v67h67h67v-67v-67h-21
		h-21v-17v-17h-78.5c-43.2,0-78.5-0.3-78.5-0.8c0-0.4,25.8-31.3,57.3-68.7c31.4-37.5,59.1-71,61.4-74.5
		c18.6-28.7,22.2-65.4,9.3-96.4C232.9,191.7,184.9,166.8,138.2,174.6z"/>
	<path d="M485,427v17h88.5c48.7,0,88.5,0.2,88.5,0.4c0,0.3-3.8,6.3-8.3,13.3c-4.6,7-17.4,26.7-28.4,43.8
		C573.3,582.1,488,714.1,473.2,737c-9.1,14-18.1,28-20,31c-2,3-4,6.1-4.5,6.7c-0.7,1,3.2,1.3,18.9,1.3h19.9l19.5-30.2
		c10.7-16.5,28.6-44.1,39.7-61.2c11.1-17.1,22.6-34.9,25.6-39.6s15.8-24.5,28.5-44c66.7-102.8,122.7-189.4,123-190.2
		c0.2-0.4-53.4-0.8-119.2-0.8H485V427z"/>
	<path class="st9" d="M53,708.5V775h66.5H186v-66.5V642h-66.5H53V708.5z"/>
	<path class="st8" d="M187.1,574v67h67h67v-67v-67h-67h-67V574z"/>
	<path class="st1" d="M321.3,439.7V507h67.2h67.2v-67.3v-67.3h-67.2h-67.2V439.7z"/>
	<path class="st2" d="M455.8,305.1V373H523h67.2v-67.9v-67.9H523h-67.2V305.1z"/>
	<path class="st10" d="M793.3,303c-0.1,0.3-0.2,3.9-0.1,8l0.1,7.5h57.5h57.4v-7.8L908,303l-57.2-0.3
		C819.4,302.6,793.5,302.7,793.3,303z"/>
	<path class="st10" d="M787.8,416.2c-0.1,0.2-0.2,3.9-0.3,8.3l-0.2,8l63.3,0.3l63.2,0.2v-8.5V416h-63
		C816.2,416,787.8,416.1,787.8,416.2z"/>
	<rect x="811" y="493" class="st8" width="31" height="283"/>
	<polygon class="st9" points="842,555.5 811.4,555.4 759.8,695.2 790.4,695.2 	"/>
	<polygon class="st2" points="842,594.2 867,621.8 867,666.7 842,639.1 	"/>
	<rect x="774.9" y="525.9" class="st4" width="92.1" height="30"/>
	<polygon class="st2" points="816.1,536.4 815.7,536.4 815.7,536.4 	"/>
	<rect x="876.8" y="525.9" class="st11" width="52.8" height="29.1"/>
	
		<rect x="906.3" y="509.4" transform="matrix(0.5893 -0.8079 0.8079 0.5893 -39.7842 969.9031)" class="st11" width="55.5" height="29.4"/>
	<polygon class="st12" points="1022,554.6 981.7,555 938.5,492.8 978.8,492.4 	"/>
	<rect x="981.2" y="525.9" class="st12" width="56.8" height="28.8"/>
	<rect x="895" y="565" class="st0" width="125" height="30"/>
	<rect x="942" y="595" class="st2" width="31" height="20"/>
	<rect x="942" y="642.9" class="st2" width="31" height="30"/>
	<polygon class="st2" points="959.3,702 927.8,702 877.9,776 909.4,776 	"/>
	<polygon class="st6" points="986.7,701.6 956,702 1005.5,775.6 1036.2,775.6 	"/>
	<rect x="883" y="672.9" class="st1" width="149" height="29.1"/>
	<polygon class="st13" points="912.9,642.6 883,614.6 883,702 912.9,672.9 	"/>
	<polygon class="st10" points="1001.1,642.9 913.2,642.8 883.3,614.7 1032.3,614.7 	"/>
	<polygon class="st8" points="1032,702 1001.1,672.9 1001.1,642.9 1032.3,614.7 	"/>
	<rect x="1248" y="708" class="st13" width="31.7" height="67"/>
	<rect x="1045" y="715" class="st9" width="322" height="29"/>
	<polygon class="st8" points="1179.9,708 1148.6,708 1125,775.9 1156.3,775.9 	"/>
	<polygon class="st2" points="1271,676.8 1141,676.8 1110,708 1302,708 	"/>
	<polygon class="st6" points="1141,555 1110,555 1110,708 1141,676.8 	"/>
	<rect x="1141" y="637" class="st0" width="130" height="29"/>
	<rect x="1141" y="596" class="st8" width="130" height="30"/>
	<polygon class="st1" points="1271,554.7 1302,554.7 1302,708 1271,676.8 	"/>
	<polygon class="st10" points="1271,584 1141,584 1110,555 1302,555 	"/>
	<g>
		<rect x="1117.8" y="500.7" class="st1" width="81.2" height="29.3"/>
		<polygon class="st2" points="1129.2,489 1097.9,489 1089.4,540 1120.7,540 		"/>
		<polygon class="st0" points="1178.7,530 1148,530 1152,548 1182.7,548 		"/>
	</g>
	<g>
		<rect x="1232.5" y="500.7" class="st12" width="81.2" height="29.3"/>
		<polygon class="st8" points="1243.9,489 1212.6,489 1204.1,540 1235.4,540 		"/>
		<polygon class="st6" points="1292.2,530 1261.5,530 1265.5,548 1296.2,548 		"/>
	</g>
	<rect x="1407" y="649" class="st2" width="200" height="29"/>
	<rect x="1491" y="494" class="st6" width="31" height="282"/>
	<polygon class="st0" points="1375.5,553 1407,582 1407,678 1375.5,678 	"/>
	<polygon class="st10" points="1637.3,553.5 1607,582.1 1607,678 1637.3,678 	"/>
	<polygon class="st8" points="1607,582.1 1407,582 1375.5,553 1637.3,553 	"/>
</g>
</svg>
