<?xml version="1.0" encoding="utf-8"?>
<!-- Generator: Adobe Illustrator 23.0.0, SVG Export Plug-In . SVG Version: 6.00 Build 0)  -->
<svg version="1.1" id="图层_1" xmlns="http://www.w3.org/2000/svg" xmlns:xlink="http://www.w3.org/1999/xlink" x="0px" y="0px"
	 viewBox="0 0 1024 1024" style="enable-background:new 0 0 1024 1024;" xml:space="preserve">
<style type="text/css">
	.st0{fill:url(#SVGID_1_);}
	.st1{fill:#F15A24;}
	.st2{fill:url(#SVGID_2_);}
	.st3{fill:url(#SVGID_3_);}
	.st4{fill:url(#SVGID_4_);}
	.st5{fill:url(#SVGID_5_);}
</style>
<linearGradient id="SVGID_1_" gradientUnits="userSpaceOnUse" x1="163.3532" y1="810.1887" x2="788.2108" y2="463.8241" gradientTransform="matrix(1 0 0 -1 0 1026)">
	<stop  offset="0" style="stop-color:#0088D3"/>
	<stop  offset="0.3161" style="stop-color:#008FD2"/>
	<stop  offset="0.7673" style="stop-color:#00A2CE"/>
	<stop  offset="1" style="stop-color:#00AECB"/>
</linearGradient>
<path class="st0" d="M683.94,373.59c-11.75,9.97-22.8,21.02-32.77,32.77c-4.99,5.7-9.62,11.75-14.25,17.81
	c-4.63,6.06-8.91,12.47-13.18,18.52c-21.73,30.99-40.61,43.46-49.87,49.16c-10.33,6.41-28.85,15.32-54.86,15.32h-89.05
	c0,0,86.92-57.35,115.77-83.35c38.47-34.91,81.22-80.86,69.82-137.14c-7.12-35.62-36.33-63.76-73.02-66.97
	c-53.08-4.63-96.53,29.92-120.75,75.52c-0.71,1.42-1.07,2.14-1.42,3.21c-0.36,1.07-0.36,1.78,0.36,2.14
	c1.07,0.71,1.78,0.36,4.27-3.56c26.36-37.4,74.8-55.57,113.27-35.26c22.8,12.11,33.13,35.62,33.84,59.49
	c1.78,37.05-20.66,70.53-72.31,114.34c-35.98,30.63-74.8,58.42-102.94,79.08l-16.74,12.11c-2.85,2.14-6.41,2.85-8.19,0.36
	c-2.14-2.14-1.42-5.34,0.36-7.84c10.69-16.74,22.44-39.54,24.93-47.73c0.36-1.42,0-1.78-0.36-2.14s-1.07-0.36-1.78,0.36
	c-0.71,1.07-0.36,0.36-2.14,2.49c-12.47,16.74-34.91,34.55-74.09,34.55H194.51c0,0,90.83-62.69,115.77-83.71
	c24.93-21.02,48.44-45.24,62.34-75.52c12.82-28.14,12.82-63.76-2.85-90.48C354.45,232.18,328.45,219,296.39,219
	c-49.16,0-86.92,32.06-109.71,76.23c-0.36,1.07-1.07,2.14-1.42,3.21c-0.36,0.71-0.36,1.78,0.36,2.14c0.36,0,1.07,0.36,2.14-0.71
	c1.07-1.42,1.07-1.07,2.14-2.49c10.33-14.6,33.13-44.17,78.01-44.17c38.83,0.36,67.68,27.43,69.46,66.97
	c1.78,37.05-20.66,71.95-72.31,115.77c-36.33,30.63-75.16,58.42-103.3,78.72l-20.66,14.96c-1.07,0.71-1.42,2.14-0.71,3.56
	c0.71,1.42,2.14,1.42,2.85,1.42c1.42,0,17.81-0.71,17.81-0.71c6.77-0.36,20.3-0.71,31.7-1.07c0,0,367.61,0,372.59,0
	c6.41,0,11.04,0.71,15.32,4.63c3.92,3.92,4.63,9.26,3.56,17.45c-9.62,71.6,8.19,146.76,54.86,208.74l0.36,0.36
	c1.07-2.49,2.49-6.06,3.56-8.55c-48.8-66.61-63.41-148.54-46.66-224.06c5.7-23.51,15.32-40.96,27.43-54.86
	c4.63-5.34,11.4-11.75,17.1-16.03c16.03-12.11,35.62-17.81,55.57-17.81h112.56c-17.81,24.93-73.74,94.75-110.78,143.91
	c-22.8,30.28-55.92,75.16-60.2,83c-3.92,7.48-3.92,16.39,0,22.8c3.56,6.06,10.33,9.97,19.24,8.55c9.62-1.78,14.96-7.84,20.3-18.52
	c29.57-61.98,71.24-127.88,108.29-182.02c10.33-14.96,20.66-29.92,30.99-44.88c4.63-6.41,19.95-27.07,23.51-32.06
	c1.07-1.42,2.85-3.56,3.21-4.63c0.36-0.71,0.71-2.14,0.36-2.85c-0.36-0.71-1.42-1.07-2.14-1.07c-0.36,0-157.09,0-157.09,0
	c-5.7,0-11.75-1.07-14.25-6.77c-2.85-6.41,1.42-12.47,5.34-16.39c2.49-2.49,4.63-4.63,7.12-6.77c1.42-1.42,2.85-2.49,4.27-3.92
	c0.71-0.71,1.78-1.42,2.49-2.14c68.39-57.35,158.87-77.65,243.65-56.99c2.14-2.14,4.27-4.27,6.41-6.41
	C850.29,293.09,755.54,313.75,683.94,373.59z"/>
<g>
	<g>
		<path class="st1" d="M210.9,575.29H241l11.09,65.52h0.86l11.52-57.46h32.54l10.08,57.46h0.86l11.66-65.52h29.95l-22.32,99.94
			h-35.71l-11.66-55.3h-0.86l-11.95,55.3h-35.71L210.9,575.29z"/>
		<path class="st1" d="M373.05,589.4c-3.17,0-5.71-0.14-7.63-0.43c-1.92-0.29-3.41-0.89-4.46-1.8c-1.06-0.91-1.78-2.3-2.16-4.18
			c-0.38-1.87-0.58-4.39-0.58-7.56s0.19-5.64,0.58-7.42c0.38-1.78,1.1-3.12,2.16-4.03c1.06-0.91,2.54-1.49,4.46-1.73
			c1.92-0.24,4.46-0.36,7.63-0.36s5.71,0.12,7.63,0.36c1.92,0.24,3.43,0.82,4.54,1.73c1.1,0.91,1.82,2.26,2.16,4.03
			c0.33,1.78,0.5,4.25,0.5,7.42s-0.17,5.69-0.5,7.56c-0.34,1.87-1.06,3.27-2.16,4.18c-1.1,0.91-2.62,1.51-4.54,1.8
			C378.76,589.26,376.22,589.4,373.05,589.4z M359.37,597.47h27.36v77.76h-27.36V597.47z"/>
		<path class="st1" d="M495.3,675.23h-34.13l-24.48-41.47h-3.89v41.47h-28.66v-99.94h28.66v36h3.89l24.19-36h32.98l-33.12,46.22
			L495.3,675.23z"/>
		<path class="st1" d="M515.75,589.4c-3.17,0-5.71-0.14-7.63-0.43c-1.92-0.29-3.41-0.89-4.46-1.8c-1.06-0.91-1.78-2.3-2.16-4.18
			c-0.38-1.87-0.58-4.39-0.58-7.56s0.19-5.64,0.58-7.42c0.38-1.78,1.1-3.12,2.16-4.03c1.06-0.91,2.54-1.49,4.46-1.73
			c1.92-0.24,4.46-0.36,7.63-0.36c3.17,0,5.71,0.12,7.63,0.36c1.92,0.24,3.43,0.82,4.54,1.73c1.1,0.91,1.82,2.26,2.16,4.03
			c0.34,1.78,0.5,4.25,0.5,7.42s-0.17,5.69-0.5,7.56c-0.34,1.87-1.06,3.27-2.16,4.18c-1.1,0.91-2.62,1.51-4.54,1.8
			C521.46,589.26,518.92,589.4,515.75,589.4z M502.07,597.47h27.36v77.76h-27.36V597.47z"/>
	</g>
	<g>
		<linearGradient id="SVGID_2_" gradientUnits="userSpaceOnUse" x1="408.4978" y1="616.2318" x2="525.3045" y2="608.6688">
			<stop  offset="0" style="stop-color:#008AD3"/>
			<stop  offset="0.3486" style="stop-color:#0093D1"/>
			<stop  offset="0.5674" style="stop-color:#009CCF"/>
			<stop  offset="0.8652" style="stop-color:#00A0CE"/>
			<stop  offset="0.9944" style="stop-color:#00AACC"/>
		</linearGradient>
		<path class="st2" d="M210.9,575.29H241l11.09,65.52h0.86l11.52-57.46h32.54l10.08,57.46h0.86l11.66-65.52h29.95l-22.32,99.94
			h-35.71l-11.66-55.3h-0.86l-11.95,55.3h-35.71L210.9,575.29z"/>
		<linearGradient id="SVGID_3_" gradientUnits="userSpaceOnUse" x1="408.5223" y1="616.6105" x2="525.329" y2="609.0475">
			<stop  offset="0" style="stop-color:#008AD3"/>
			<stop  offset="0.3486" style="stop-color:#0093D1"/>
			<stop  offset="0.5674" style="stop-color:#009CCF"/>
			<stop  offset="0.8652" style="stop-color:#00A0CE"/>
			<stop  offset="0.9944" style="stop-color:#00AACC"/>
		</linearGradient>
		<path class="st3" d="M373.05,589.4c-3.17,0-5.71-0.14-7.63-0.43c-1.92-0.29-3.41-0.89-4.46-1.8c-1.06-0.91-1.78-2.3-2.16-4.18
			c-0.38-1.87-0.58-4.39-0.58-7.56s0.19-5.64,0.58-7.42c0.38-1.78,1.1-3.12,2.16-4.03c1.06-0.91,2.54-1.49,4.46-1.73
			c1.92-0.24,4.46-0.36,7.63-0.36s5.71,0.12,7.63,0.36c1.92,0.24,3.43,0.82,4.54,1.73c1.1,0.91,1.82,2.26,2.16,4.03
			c0.33,1.78,0.5,4.25,0.5,7.42s-0.17,5.69-0.5,7.56c-0.34,1.87-1.06,3.27-2.16,4.18c-1.1,0.91-2.62,1.51-4.54,1.8
			C378.76,589.26,376.22,589.4,373.05,589.4z M359.37,597.47h27.36v77.76h-27.36V597.47z"/>
		<linearGradient id="SVGID_4_" gradientUnits="userSpaceOnUse" x1="405.3452" y1="630.48" x2="529.3216" y2="615.8945">
			<stop  offset="0" style="stop-color:#008AD3"/>
			<stop  offset="0.3486" style="stop-color:#0093D1"/>
			<stop  offset="0.5674" style="stop-color:#009CCF"/>
			<stop  offset="0.8652" style="stop-color:#00A0CE"/>
			<stop  offset="0.9944" style="stop-color:#00AACC"/>
		</linearGradient>
		<path class="st4" d="M495.3,675.23h-34.13l-24.48-41.47h-3.89v41.47h-28.66v-99.94h28.66v36h3.89l24.19-36h32.98l-33.12,46.22
			L495.3,675.23z"/>
		<linearGradient id="SVGID_5_" gradientUnits="userSpaceOnUse" x1="409.1181" y1="625.8116" x2="525.9248" y2="618.2486">
			<stop  offset="0" style="stop-color:#008AD3"/>
			<stop  offset="0.3486" style="stop-color:#0093D1"/>
			<stop  offset="0.5674" style="stop-color:#009CCF"/>
			<stop  offset="0.8652" style="stop-color:#00A0CE"/>
			<stop  offset="0.9944" style="stop-color:#00AACC"/>
		</linearGradient>
		<path class="st5" d="M515.75,589.4c-3.17,0-5.71-0.14-7.63-0.43c-1.92-0.29-3.41-0.89-4.46-1.8c-1.06-0.91-1.78-2.3-2.16-4.18
			c-0.38-1.87-0.58-4.39-0.58-7.56s0.19-5.64,0.58-7.42c0.38-1.78,1.1-3.12,2.16-4.03c1.06-0.91,2.54-1.49,4.46-1.73
			c1.92-0.24,4.46-0.36,7.63-0.36c3.17,0,5.71,0.12,7.63,0.36c1.92,0.24,3.43,0.82,4.54,1.73c1.1,0.91,1.82,2.26,2.16,4.03
			c0.34,1.78,0.5,4.25,0.5,7.42s-0.17,5.69-0.5,7.56c-0.34,1.87-1.06,3.27-2.16,4.18c-1.1,0.91-2.62,1.51-4.54,1.8
			C521.46,589.26,518.92,589.4,515.75,589.4z M502.07,597.47h27.36v77.76h-27.36V597.47z"/>
	</g>
</g>
<g>
</g>
<g>
</g>
<g>
</g>
<g>
</g>
<g>
</g>
<g>
</g>
<g>
</g>
<g>
</g>
<g>
</g>
<g>
</g>
<g>
</g>
<g>
</g>
<g>
</g>
<g>
</g>
<g>
</g>
</svg>
