<?xml version="1.0" standalone="no"?>
<!DOCTYPE svg PUBLIC "-//W3C//DTD SVG 20010904//EN"
 "http://www.w3.org/TR/2001/REC-SVG-20010904/DTD/svg10.dtd">
<svg version="1.0" xmlns="http://www.w3.org/2000/svg"
 width="786.000000pt" height="785.000000pt" viewBox="0 0 786.000000 785.000000"
 preserveAspectRatio="xMidYMid meet">

<g transform="translate(0.000000,785.000000) scale(0.100000,-0.100000)"
fill="#000000" stroke="none">
<path d="M2391 7428 c-6 -62 -16 -138 -21 -168 -6 -30 -10 -72 -10 -94 1 -65
-35 -215 -108 -446 -16 -52 -42 -135 -57 -185 -25 -85 -71 -213 -101 -280 -7
-16 -31 -79 -53 -140 -22 -60 -52 -139 -66 -175 -15 -36 -41 -105 -59 -155
-42 -116 -151 -394 -182 -463 -13 -30 -24 -58 -24 -63 0 -14 -79 -200 -111
-260 -16 -31 -29 -62 -29 -68 0 -6 -25 -62 -55 -125 -30 -62 -55 -117 -55
-122 0 -5 -10 -25 -23 -44 -23 -35 -40 -70 -33 -70 3 0 55 91 115 199 4 8 13
17 19 19 19 6 14 -23 -8 -43 -11 -10 -20 -25 -21 -34 0 -9 -12 -37 -27 -62
-15 -26 -42 -72 -59 -103 -18 -31 -33 -62 -33 -70 0 -23 -11 -46 -22 -46 -6 0
-8 8 -5 18 3 9 12 38 20 65 8 26 14 47 12 47 -5 0 -62 -121 -82 -175 -11 -28
-41 -88 -66 -134 -26 -46 -47 -86 -47 -89 0 -7 -84 -157 -180 -322 -114 -196
-223 -402 -231 -439 -9 -42 -1 -91 15 -91 7 0 18 24 26 52 13 52 101 232 265
538 45 85 91 173 102 195 17 37 74 138 114 203 45 75 59 104 53 114 -4 6 -3 8
3 5 5 -3 24 24 41 61 34 72 111 217 156 295 29 52 31 81 3 53 -16 -16 -17 -16
-17 1 0 24 19 43 41 43 9 0 20 7 23 16 10 26 7 28 -14 9 -19 -18 -20 -17 -19
6 1 42 62 153 92 167 15 7 27 20 27 29 0 13 -3 13 -15 3 -20 -17 -21 9 0 36 8
10 15 25 15 32 0 7 11 37 24 65 14 29 30 65 36 80 5 16 19 31 30 34 23 6 26
20 6 25 -12 2 -10 12 9 51 12 27 24 44 26 38 2 -6 10 -2 17 9 10 17 10 20 -3
20 -19 0 -19 4 4 65 11 27 25 65 31 83 8 20 19 32 31 32 23 0 24 9 3 25 -15
11 -14 16 11 60 16 26 30 59 31 72 2 14 15 40 30 60 14 19 27 47 27 61 0 14 9
34 21 44 16 14 17 17 4 12 -23 -8 -22 -3 3 56 11 27 28 51 37 55 14 5 14 7 2
15 -12 7 -10 16 9 56 13 25 27 61 32 78 4 17 22 69 40 116 17 47 44 128 60
180 15 52 53 177 83 278 30 101 65 234 77 295 12 62 25 119 29 128 4 8 6 35 4
60 -3 24 0 51 5 59 9 12 12 12 28 -2 21 -19 201 -108 218 -108 6 0 85 -27 175
-60 105 -39 284 -119 495 -223 181 -90 348 -171 370 -179 22 -9 74 -28 115
-44 41 -15 108 -42 149 -61 40 -18 89 -33 109 -33 l35 0 -7 42 c-7 45 -19 58
-51 58 -12 0 -38 9 -60 20 -22 11 -45 20 -52 20 -7 0 -68 23 -135 51 -68 28
-143 59 -168 69 -25 10 -165 79 -312 154 -147 75 -275 136 -283 136 -9 0 -18
7 -21 15 -4 9 -19 15 -38 15 -17 0 -44 7 -61 16 -16 9 -52 24 -80 35 -27 10
-66 29 -85 41 -19 12 -46 23 -60 25 -14 2 -65 23 -115 48 -83 42 -135 56 -135
38 1 -18 18 -33 60 -53 49 -22 30 -20 -35 3 -42 16 -42 17 -44 95 -1 28 -5 42
-15 42 -9 0 -16 -30 -25 -112z m224 -86 c-3 -3 -11 0 -18 7 -9 10 -8 11 6 5
10 -3 15 -9 12 -12z m90 -40 c-3 -3 -11 0 -18 7 -9 10 -8 11 6 5 10 -3 15 -9
12 -12z m115 -32 c8 -15 8 -18 -3 -14 -8 3 -14 11 -14 19 0 20 4 19 17 -5z
m235 -88 c-3 -3 -11 0 -18 7 -9 10 -8 11 6 5 10 -3 15 -9 12 -12z m140 -82 c3
-6 -1 -7 -9 -4 -18 7 -21 14 -7 14 6 0 13 -4 16 -10z m275 -130 c14 -26 -1
-26 -31 0 l-24 19 22 1 c12 0 27 -9 33 -20z m65 -40 c3 -6 -1 -7 -9 -4 -18 7
-21 14 -7 14 6 0 13 -4 16 -10z m73 -25 c12 -3 22 -11 22 -16 0 -13 -11 -11
-50 12 -33 18 -26 20 28 4z m106 -54 c4 -5 -3 -7 -14 -4 -23 6 -26 13 -6 13 8
0 17 -4 20 -9z"/>
<path d="M2857 6495 c-58 -46 -216 -155 -223 -155 -17 0 -162 -110 -278 -211
-5 -4 -5 -28 -2 -53 9 -57 24 -59 91 -11 245 174 333 238 416 299 53 39 109
81 125 92 53 39 17 37 -60 -4 -42 -22 -76 -37 -76 -35 0 9 46 43 88 65 51 26
53 53 4 53 -23 1 -47 -11 -85 -40z"/>
<path d="M3140 6269 c-19 -17 -55 -45 -80 -62 -25 -17 -61 -44 -81 -61 -20
-17 -71 -60 -113 -96 -42 -36 -135 -116 -206 -178 -71 -62 -146 -126 -167
-142 -21 -16 -71 -60 -110 -98 -54 -51 -73 -75 -73 -95 0 -29 16 -34 93 -28
48 3 51 5 226 177 98 96 214 204 257 240 122 101 247 194 261 194 28 0 9 -648
-22 -741 -17 -50 -38 -62 -63 -37 -8 8 -18 9 -35 1 -29 -14 -148 -103 -209
-158 -46 -41 -175 -127 -213 -141 -17 -7 -18 -2 -12 77 4 46 11 100 16 119 5
19 12 47 15 62 4 19 19 34 45 47 21 11 85 63 142 116 109 101 212 179 267 202
19 8 32 20 32 31 0 23 -55 77 -64 63 -4 -6 -24 -15 -44 -21 -20 -5 -67 -36
-103 -68 -127 -109 -268 -222 -278 -222 -6 0 -11 4 -11 8 0 5 -9 19 -19 31
-17 19 -25 21 -69 15 l-50 -6 -4 -277 c-4 -288 -3 -275 -59 -481 -11 -41 -42
-136 -69 -210 -27 -74 -95 -295 -150 -490 -108 -378 -151 -507 -238 -715 -30
-71 -68 -168 -84 -215 -17 -47 -40 -107 -53 -135 -46 -102 -69 -152 -101 -221
-19 -40 -34 -76 -34 -80 0 -5 -18 -43 -39 -85 -21 -41 -42 -86 -46 -100 -4
-13 -23 -62 -42 -109 -47 -114 -48 -118 -68 -175 -10 -27 -23 -63 -30 -80 -40
-97 -47 -117 -126 -348 -11 -32 -35 -87 -53 -121 -18 -34 -47 -99 -65 -144
-30 -79 -132 -283 -212 -424 -44 -79 -53 -104 -40 -112 24 -15 161 246 286
549 18 44 45 103 60 130 41 75 115 223 115 229 0 7 29 76 60 141 10 22 22 51
25 65 4 14 13 34 20 46 7 11 43 90 80 175 37 85 81 186 100 224 18 39 36 81
40 95 8 27 24 42 37 34 4 -3 8 -38 9 -77 0 -40 4 -94 9 -122 5 -27 16 -97 25
-154 8 -56 21 -124 29 -150 8 -25 24 -84 36 -131 13 -47 29 -98 36 -115 7 -16
19 -46 27 -65 8 -20 52 -83 98 -141 46 -58 119 -151 161 -206 121 -156 162
-198 248 -248 121 -71 219 -105 320 -112 62 -4 88 -10 98 -22 11 -14 45 -16
247 -20 226 -3 236 -2 282 19 51 25 143 114 143 140 0 19 -19 40 -37 40 -7 0
-23 -11 -35 -25 -13 -16 -32 -25 -50 -25 -19 0 -28 -5 -28 -16 0 -14 -30 -15
-273 -12 -199 2 -278 6 -289 15 -8 7 -37 13 -64 14 -27 1 -67 10 -88 20 -22
11 -46 19 -54 19 -70 0 -247 152 -360 310 -34 47 -72 96 -85 110 -64 68 -182
307 -207 420 -31 144 -38 184 -49 275 -16 141 -14 233 8 379 20 129 56 295 71
331 5 11 12 36 15 55 16 80 168 366 225 422 10 9 28 34 41 55 60 98 159 223
254 321 57 59 123 134 145 167 49 71 220 247 270 278 19 12 67 46 106 77 39
30 84 62 100 72 16 9 67 39 114 68 218 133 409 199 703 245 69 10 113 13 120
7 7 -5 47 -12 90 -16 43 -4 88 -11 100 -16 12 -4 49 -14 82 -21 33 -7 65 -16
70 -20 6 -4 30 -12 55 -19 70 -19 179 -112 227 -195 25 -44 53 -109 63 -149 6
-22 17 -54 24 -71 8 -16 17 -59 21 -95 3 -36 13 -96 21 -133 19 -93 17 -237
-6 -457 -24 -231 -32 -272 -105 -530 -67 -240 -153 -477 -210 -582 -8 -14 -15
-31 -15 -37 0 -18 -127 -289 -181 -385 -80 -143 -158 -253 -238 -337 -9 -9
-23 -25 -31 -35 -75 -95 -167 -203 -229 -269 -69 -74 -119 -132 -210 -245 -68
-83 -116 -132 -158 -162 -44 -30 -52 -52 -33 -89 13 -24 26 -24 76 0 37 18 62
46 196 212 138 173 232 282 328 384 123 128 278 331 345 450 59 104 137 252
161 305 14 30 38 82 54 115 40 85 64 141 89 210 13 33 27 71 33 85 18 44 54
152 83 245 15 50 36 115 46 145 33 96 89 352 94 435 3 44 13 143 21 221 14
126 14 149 1 220 -9 43 -18 124 -21 180 -3 55 -11 120 -19 145 -8 24 -18 67
-21 95 -16 130 -206 378 -321 418 -28 10 -59 23 -70 29 -28 15 -157 47 -235
58 -36 5 -87 13 -115 19 -95 19 -118 16 -340 -40 -292 -73 -451 -141 -650
-274 -38 -26 -95 -63 -125 -83 -158 -105 -383 -308 -500 -451 -19 -23 -63 -73
-97 -110 -77 -84 -104 -117 -136 -167 -36 -56 -110 -135 -103 -110 3 11 10 49
16 84 6 36 20 81 29 100 56 110 236 687 287 919 18 80 29 97 40 67 5 -13 10
-13 33 -1 14 8 47 22 73 31 26 9 60 26 77 38 16 12 65 48 108 79 89 65 228
202 238 236 3 12 13 22 21 22 8 0 12 -4 9 -10 -7 -11 35 -23 62 -18 10 2 17
11 15 20 -1 9 7 80 19 159 14 102 22 218 26 399 4 187 9 262 19 282 21 41 17
80 -11 111 -36 38 -88 37 -135 -4z m-90 -579 c-19 -13 -30 -13 -30 0 0 6 10
10 23 10 18 0 19 -2 7 -10z m-60 -20 c0 -5 -5 -10 -11 -10 -5 0 -7 5 -4 10 3
6 8 10 11 10 2 0 4 -4 4 -10z m389 -944 c-2 -2 -15 -9 -29 -15 -24 -11 -24
-11 -6 3 16 13 49 24 35 12z m-109 -61 c-18 -14 -43 -28 -54 -31 -10 -4 -29
-15 -40 -26 -31 -29 -54 -40 -61 -28 -3 5 -1 10 5 10 6 0 26 11 44 25 18 14
37 25 43 25 5 0 24 11 43 25 19 14 38 25 44 25 5 0 -5 -11 -24 -25z m-170
-109 c0 -7 -71 -49 -75 -44 -6 6 8 24 30 36 20 11 45 16 45 8z m-90 -60 c0 -2
-8 -10 -17 -17 -16 -13 -17 -12 -4 4 13 16 21 21 21 13z m-129 -91 c-21 -19
-42 -35 -47 -35 -11 0 68 70 78 70 5 0 -9 -16 -31 -35z m-1308 -2080 c-3 -9
-8 -14 -10 -11 -3 3 -2 9 2 15 9 16 15 13 8 -4z m-90 -210 c-3 -9 -8 -14 -10
-11 -3 3 -2 9 2 15 9 16 15 13 8 -4z m-13 -47 c-1 -21 -60 -125 -60 -106 0 10
9 32 20 50 11 18 20 41 20 51 0 9 5 17 10 17 6 0 10 -6 10 -12z m2731 -196
c-11 -21 -51 -58 -51 -48 0 7 52 66 58 66 1 0 -2 -8 -7 -18z"/>
<path d="M4963 5913 c-3 -10 -18 -31 -32 -46 -26 -28 -23 -37 12 -50 5 -1 9
-143 10 -314 2 -276 4 -314 19 -325 14 -11 17 -48 21 -283 4 -213 9 -283 22
-330 30 -105 51 -563 27 -587 -8 -8 -12 -59 -12 -175 0 -154 2 -167 26 -226
15 -34 39 -78 55 -98 17 -21 31 -54 34 -80 4 -24 15 -75 25 -114 10 -38 28
-115 40 -170 41 -198 71 -312 105 -400 18 -49 36 -98 39 -107 7 -23 104 -98
127 -98 11 0 22 8 26 18 3 9 15 28 27 41 l21 23 -61 57 c-58 53 -64 61 -89
146 -15 50 -42 133 -60 185 -18 52 -36 115 -40 140 -4 25 -16 81 -26 125 -10
44 -19 96 -19 117 0 35 1 36 48 47 26 5 67 13 92 17 88 13 251 142 364 289 69
89 206 293 206 307 0 4 4 8 9 8 6 0 11 -152 13 -367 2 -281 6 -373 16 -391 7
-13 16 -54 19 -92 5 -57 10 -73 32 -93 42 -40 95 -41 123 -2 9 12 -1 64 -17
90 -6 11 -15 34 -19 50 -4 17 -15 38 -23 47 -13 15 -16 62 -20 295 -4 264 11
1111 21 1218 3 28 10 158 16 290 12 260 25 399 41 442 8 23 12 24 24 12 32
-33 140 -260 225 -472 50 -126 107 -261 126 -300 19 -38 34 -74 34 -79 0 -5
-30 -23 -67 -40 -113 -52 -337 -157 -353 -167 -10 -5 -16 -27 -18 -65 l-3 -56
43 0 c45 0 96 23 320 144 60 32 117 56 129 54 17 -2 30 -24 61 -103 22 -55 56
-152 75 -215 60 -200 136 -435 144 -444 4 -4 30 -5 59 -1 l52 7 -7 37 c-3 20
-21 83 -40 141 -18 58 -43 139 -55 180 -50 172 -73 240 -111 328 -60 140 -60
142 -3 173 26 14 49 30 51 35 2 5 -7 22 -20 37 -22 28 -25 28 -64 18 -42 -11
-73 -7 -73 11 0 5 -16 36 -35 69 -38 65 -98 201 -165 374 -23 61 -55 137 -69
170 -15 33 -54 120 -87 193 -32 74 -71 147 -86 163 -23 26 -32 29 -62 24 -27
-6 -41 -2 -62 14 -34 26 -42 26 -78 -4 l-30 -24 -2 -623 c-2 -584 -3 -633 -24
-788 l-23 -165 -87 -90 c-48 -49 -102 -112 -121 -140 -35 -53 -137 -185 -170
-222 -23 -25 -144 -112 -169 -121 -8 -3 -27 -14 -42 -24 -19 -13 -44 -18 -95
-18 l-69 0 -25 98 c-21 86 -24 119 -24 292 1 160 4 214 22 300 12 58 24 123
28 145 3 22 24 112 46 200 62 251 121 346 227 369 25 6 32 13 32 32 0 13 1 27
3 32 1 4 -29 8 -68 9 -102 3 -142 -18 -182 -93 -37 -71 -93 -228 -123 -344
-12 -47 -28 -101 -35 -120 -13 -34 -13 -34 -18 -10 -3 14 -8 61 -11 105 -3 44
-10 152 -17 240 -6 88 -9 206 -6 262 3 68 1 105 -7 113 -8 8 -12 116 -13 363
l-3 352 -27 22 c-34 27 -61 29 -70 6z"/>
<path d="M1716 5175 c-9 -26 -7 -32 5 -12 6 10 9 21 6 23 -2 3 -7 -2 -11 -11z"/>
<path d="M1641 4993 c-1 -6 -4 -20 -7 -30 -5 -17 -5 -17 6 0 6 10 9 23 6 30
-3 9 -5 9 -5 0z"/>
<path d="M3356 4111 c-3 -5 -21 -12 -40 -15 -19 -4 -37 -13 -40 -21 -6 -17 13
-76 48 -150 13 -27 34 -77 47 -110 28 -75 30 -78 63 -69 l26 6 0 118 c0 85 -4
126 -15 146 -8 16 -15 37 -15 46 0 9 -13 26 -29 37 -33 24 -37 25 -45 12z"/>
<path d="M2917 3773 c-4 -3 -7 -27 -7 -53 0 -34 5 -52 20 -65 16 -15 20 -31
20 -85 0 -112 30 -159 90 -143 21 6 22 9 18 117 -3 89 -8 119 -26 153 -32 62
-91 101 -115 76z"/>
<path d="M4400 3751 c-30 -5 -35 -10 -40 -41 -10 -57 -48 -111 -204 -285 -81
-90 -165 -186 -186 -212 -45 -57 -231 -232 -304 -286 -28 -21 -80 -66 -116
-100 -111 -105 -266 -196 -364 -212 -22 -4 -49 -13 -60 -21 -15 -10 -52 -14
-136 -14 -133 0 -165 11 -236 81 -38 37 -45 40 -75 34 -31 -7 -89 -32 -89 -38
0 -2 28 -33 63 -69 41 -44 82 -75 122 -94 59 -28 64 -29 226 -29 144 0 168 3
183 18 10 9 28 17 41 17 14 0 67 20 119 45 90 42 168 96 266 181 99 87 487
476 568 569 47 55 118 134 157 176 72 76 165 208 165 234 0 12 -52 57 -62 54
-1 -1 -19 -4 -38 -8z"/>
</g>
</svg>
