<?xml version="1.0" standalone="no"?>
<!DOCTYPE svg PUBLIC "-//W3C//DTD SVG 20010904//EN"
 "http://www.w3.org/TR/2001/REC-SVG-20010904/DTD/svg10.dtd">
<svg version="1.0" xmlns="http://www.w3.org/2000/svg"
 width="1015.000000pt" height="1015.000000pt" viewBox="0 0 1015.000000 1015.000000"
 preserveAspectRatio="xMidYMid meet">

<g transform="translate(0.000000,1015.000000) scale(0.100000,-0.100000)"
fill="#000000" stroke="none">
<path d="M1547 7375 c-37 -43 -41 -65 -12 -65 11 0 13 -10 9 -47 -3 -27 -10
-59 -15 -73 -5 -14 -13 -54 -18 -90 -11 -76 -47 -245 -55 -259 -3 -5 -17 -52
-31 -105 -47 -180 -238 -645 -290 -706 -7 -8 -21 -41 -30 -74 -9 -32 -28 -83
-41 -112 -40 -91 -38 -94 61 -94 l85 0 18 38 c10 20 33 64 49 97 17 33 57 121
88 195 32 74 68 159 81 189 13 29 24 62 24 72 0 11 5 19 10 19 6 0 10 6 10 13
0 12 117 67 143 67 7 0 17 4 23 10 5 5 30 14 54 19 25 5 74 16 110 25 162 39
212 49 310 63 104 14 131 16 180 14 14 -1 93 4 175 9 83 6 226 9 318 8 196 -3
200 -6 195 -93 -2 -38 2 -55 17 -72 11 -13 23 -23 27 -23 3 0 45 38 92 85 75
73 86 89 86 118 0 25 -8 43 -31 64 -31 32 -79 43 -180 43 -29 0 -51 6 -59 15
-16 19 -30 19 -30 0 0 -14 -10 -15 -62 -10 -35 4 -79 12 -98 18 -62 20 -441
11 -609 -14 -80 -12 -153 -28 -162 -35 -8 -8 -35 -14 -59 -14 -24 0 -69 -6
-99 -14 -116 -30 -243 -57 -247 -54 -2 2 4 26 12 53 8 28 24 87 34 132 11 46
24 91 29 100 15 31 52 197 51 234 0 20 7 56 15 79 22 61 19 107 -10 156 -30
50 -51 64 -97 64 -27 -1 -40 -9 -71 -45z"/>
<path d="M6635 7343 c-11 -3 -24 -9 -30 -13 -5 -4 -26 -10 -46 -14 -46 -8
-253 -96 -307 -130 -23 -14 -46 -26 -50 -26 -22 0 -152 -116 -206 -182 -60
-76 -86 -122 -86 -158 0 -36 42 -67 99 -75 64 -9 86 7 95 69 16 107 246 280
471 354 74 24 224 42 285 33 l45 -6 3 -73 c2 -55 -1 -76 -13 -88 -8 -8 -18
-27 -21 -42 -4 -15 -13 -34 -20 -42 -7 -9 -17 -25 -21 -37 -9 -24 -129 -169
-180 -217 -65 -62 -149 -136 -202 -178 -30 -24 -74 -62 -99 -84 -46 -42 -46
-42 -29 -68 22 -33 94 -86 118 -86 27 0 174 -47 264 -85 44 -19 90 -37 103
-40 22 -6 32 -45 12 -45 -6 0 -14 -8 -17 -17 -4 -10 -23 -43 -44 -73 -20 -30
-40 -65 -43 -77 -4 -13 -11 -23 -16 -23 -4 0 -15 -15 -24 -32 -9 -18 -26 -46
-36 -63 -11 -16 -29 -47 -40 -67 -12 -22 -30 -40 -43 -42 -12 -2 -74 -14 -137
-26 -63 -11 -134 -25 -157 -30 -107 -24 -142 -32 -193 -45 -30 -8 -93 -21
-140 -29 -47 -8 -98 -18 -114 -22 -28 -7 -29 -6 -22 22 29 120 30 130 7 250
-54 280 -239 509 -448 553 -26 5 -68 15 -93 20 -67 15 -276 -20 -399 -66 -106
-39 -195 -82 -256 -122 -22 -15 -52 -33 -66 -40 -15 -7 -46 -36 -70 -63 -24
-28 -61 -69 -81 -91 -21 -23 -38 -49 -38 -60 0 -31 -33 -16 -40 18 -4 17 -19
53 -35 80 -15 28 -37 67 -48 88 -28 50 -176 190 -271 254 -101 69 -179 90
-274 73 -91 -16 -156 -61 -238 -163 -119 -151 -254 -401 -254 -472 0 -9 -6
-31 -14 -48 -16 -35 -53 -174 -82 -302 -12 -57 -18 -137 -21 -277 -4 -189 -5
-198 -23 -198 -18 0 -20 7 -20 85 0 71 -6 101 -34 182 -76 216 -96 260 -172
374 -34 53 -80 110 -101 126 -67 51 -167 110 -208 123 -22 7 -46 18 -54 24 -9
7 -67 11 -166 10 -119 -1 -158 -4 -181 -17 -16 -9 -50 -26 -77 -37 -80 -35
-187 -109 -271 -189 -116 -111 -208 -208 -231 -244 -10 -18 -38 -56 -62 -85
-24 -30 -43 -58 -43 -63 0 -5 -18 -32 -40 -60 -22 -28 -40 -59 -40 -70 0 -10
-4 -19 -9 -19 -5 0 -14 -15 -21 -32 -7 -18 -21 -51 -31 -73 -29 -64 -56 -162
-78 -283 -23 -120 -21 -155 15 -315 15 -70 57 -165 90 -204 21 -24 169 -110
286 -166 90 -42 105 -58 90 -93 -13 -27 -19 -23 85 -60 46 -16 57 -17 85 -5
18 7 67 18 108 23 41 5 84 16 96 23 12 7 39 17 60 21 21 3 50 12 64 19 14 7
63 27 110 45 47 18 137 59 202 92 106 54 127 70 236 176 114 112 122 122 179
237 32 66 65 140 72 165 18 65 71 141 96 138 20 -3 29 -18 79 -128 14 -30 46
-89 71 -130 25 -41 60 -100 77 -129 39 -66 189 -222 238 -246 19 -10 51 -30
70 -45 41 -32 129 -80 147 -80 7 0 29 -8 50 -19 57 -28 212 -88 260 -101 23
-6 44 -14 47 -19 3 -5 43 -12 88 -16 45 -4 91 -13 102 -21 15 -10 55 -14 154
-14 122 0 137 2 183 25 61 31 177 140 276 260 126 151 223 263 344 396 157
170 235 280 343 482 44 82 136 295 136 314 0 19 30 16 69 -8 20 -12 36 -17 40
-11 3 6 20 13 36 17 17 4 46 13 65 20 20 7 62 16 95 20 33 4 76 13 96 20 20 7
67 16 105 20 38 4 86 14 108 21 77 27 81 18 35 -71 -153 -293 -225 -447 -312
-665 -76 -192 -105 -275 -142 -408 -19 -70 -39 -140 -44 -157 -21 -62 -71
-270 -71 -291 0 -12 -6 -27 -14 -33 -21 -17 -27 -104 -26 -384 0 -237 2 -260
20 -295 11 -20 20 -41 20 -47 1 -32 119 -115 163 -115 11 0 29 -8 40 -18 17
-15 42 -17 239 -15 234 2 235 2 376 64 23 10 50 19 59 19 9 0 39 20 67 43 28
24 71 57 96 72 82 52 253 230 360 375 25 34 70 94 100 133 109 142 191 275
234 382 15 39 36 88 47 110 32 67 86 253 110 380 21 104 24 151 24 355 0 249
1 244 -65 502 -12 46 -64 150 -102 202 -28 39 -36 80 -18 91 5 3 63 13 127 21
65 9 134 21 153 27 19 6 51 12 70 13 78 3 178 16 225 29 28 7 102 21 165 31
63 9 151 23 195 31 44 8 93 15 109 16 l30 2 33 -125 c22 -86 36 -169 43 -265
6 -77 16 -169 21 -205 14 -88 26 -835 18 -1095 -7 -222 -14 -266 -71 -440 -26
-78 -66 -180 -98 -250 -5 -11 -14 -32 -19 -47 -6 -15 -28 -57 -51 -93 -22 -37
-40 -69 -40 -72 0 -5 -72 -94 -98 -122 -8 -8 -32 -39 -54 -70 -22 -31 -70 -86
-105 -122 l-65 -66 37 -6 c43 -7 94 1 115 17 8 7 26 17 40 23 93 39 272 267
372 473 217 448 230 511 236 1110 2 258 -1 455 -7 520 -6 58 -16 179 -22 270
-5 91 -19 217 -29 282 -11 64 -20 133 -20 153 0 20 -7 64 -16 97 -8 33 -13 65
-11 71 2 8 56 16 143 24 76 6 200 18 274 27 118 14 138 14 164 1 26 -13 31
-13 46 0 9 8 22 15 28 15 26 0 52 40 52 80 0 28 4 40 14 40 17 0 134 -48 154
-63 24 -18 13 -55 -24 -84 -20 -15 -53 -43 -73 -61 -20 -18 -53 -40 -73 -49
-21 -8 -38 -18 -38 -22 0 -4 -21 -20 -47 -37 -26 -16 -76 -53 -111 -81 -36
-29 -70 -53 -76 -53 -7 0 -43 -28 -81 -63 -39 -35 -96 -82 -127 -105 -32 -24
-58 -46 -58 -51 0 -4 18 -13 41 -20 43 -13 139 0 169 23 8 6 40 24 71 40 31
16 76 44 100 62 44 34 94 68 159 110 19 12 55 35 79 50 24 16 51 34 60 39 104
65 234 155 264 183 31 30 37 43 37 76 0 36 -6 45 -67 103 -82 78 -147 113
-205 113 -32 0 -46 5 -56 20 -7 11 -22 20 -35 20 -13 0 -27 4 -33 9 -5 5 -58
26 -117 46 -60 20 -121 43 -135 51 -15 8 -35 14 -44 14 -9 0 -20 5 -23 10 -4
6 -36 25 -72 42 -49 23 -73 29 -100 25 -33 -6 -44 -14 -79 -63 -30 -43 16
-102 100 -130 63 -21 186 -93 186 -109 0 -8 -35 -14 -112 -18 -62 -3 -147 -12
-188 -21 -41 -8 -105 -17 -142 -20 -67 -5 -68 -5 -74 22 -12 54 -63 190 -92
243 -16 30 -59 113 -96 184 -61 119 -122 212 -201 307 -27 32 -52 53 -160 135
-44 33 -122 73 -142 73 -38 -1 -93 -38 -141 -95 -86 -104 -169 -185 -188 -185
-11 0 -24 12 -32 29 -31 69 -119 131 -187 131 -25 0 -254 -228 -321 -320 -27
-36 -87 -105 -134 -155 -47 -49 -103 -118 -124 -152 -42 -69 -66 -79 -103 -44
-22 21 -61 40 -178 89 -92 38 -94 53 -20 120 31 28 68 59 83 68 27 16 165 186
227 279 63 97 116 206 122 253 11 95 -41 188 -131 234 -35 18 -62 22 -181 24
-77 2 -149 0 -160 -3z m1735 -749 c88 -149 220 -450 220 -504 0 -11 -8 -24
-19 -29 -10 -6 -103 -24 -207 -41 -104 -17 -349 -57 -545 -90 -196 -33 -368
-60 -382 -60 -18 0 -31 8 -39 24 -7 13 -32 39 -55 57 -23 19 -81 69 -129 112
-48 42 -97 80 -110 83 -46 12 -19 74 79 183 29 31 93 104 143 162 128 146 224
241 239 235 7 -2 27 -32 45 -67 38 -74 53 -90 105 -118 79 -42 80 -41 308 221
l102 118 92 -92 c67 -66 108 -119 153 -194z m-4595 -272 c114 -40 182 -97 274
-232 72 -105 98 -161 103 -225 3 -33 14 -76 23 -96 16 -34 16 -39 0 -95 -10
-32 -23 -89 -29 -127 -12 -63 -11 -68 9 -87 15 -14 41 -21 102 -26 l82 -7 20
33 c13 23 21 60 26 119 7 91 37 196 70 246 47 72 168 216 207 247 92 74 240
144 354 169 27 5 67 14 89 19 155 35 286 -19 389 -159 54 -73 85 -136 97 -193
6 -29 17 -63 25 -75 22 -35 18 -171 -7 -256 -40 -138 -68 -222 -84 -262 -37
-89 -110 -233 -143 -285 -64 -98 -198 -274 -249 -325 -27 -27 -76 -84 -108
-125 -33 -41 -87 -104 -121 -140 -34 -36 -95 -105 -134 -155 -46 -58 -89 -100
-119 -117 -25 -15 -68 -47 -94 -72 -49 -47 -86 -58 -126 -37 -9 5 -57 11 -106
14 -50 2 -110 12 -135 21 -25 8 -81 27 -125 40 -129 40 -180 60 -210 84 -15
12 -32 22 -37 22 -6 0 -30 14 -55 30 -24 17 -48 30 -53 30 -16 0 -175 152
-227 218 -60 75 -170 283 -174 327 -4 61 -4 62 74 73 39 6 104 18 142 26 39 8
95 20 125 26 83 15 370 42 386 36 7 -3 25 1 40 9 17 8 62 14 126 14 55 1 103
3 106 5 4 2 72 7 152 11 84 4 151 12 159 18 10 9 12 28 8 79 -7 81 -10 88 -45
88 -15 0 -36 7 -46 15 -25 19 -55 19 -62 2 -3 -9 -21 -14 -47 -14 -40 0 -118
-10 -272 -32 -38 -6 -133 -20 -210 -31 -236 -35 -498 -78 -540 -89 -22 -6 -61
-11 -86 -11 -45 0 -46 0 -59 43 -7 23 -14 74 -16 112 -2 39 -6 84 -9 100 -3
17 0 53 8 80 8 28 24 91 37 140 12 50 29 110 37 135 8 25 19 63 24 85 10 41
43 128 76 200 46 101 204 325 252 357 32 22 43 22 106 0z m3296 -340 c109 -83
159 -127 159 -140 0 -6 -17 -14 -37 -17 -21 -4 -51 -11 -68 -15 -16 -5 -64
-14 -105 -19 -41 -6 -108 -19 -147 -28 -40 -9 -76 -13 -80 -9 -18 18 156 285
187 286 9 0 50 -26 91 -58z m-4673 -178 c156 -45 240 -131 346 -349 45 -92 76
-169 80 -200 4 -27 16 -77 26 -111 16 -53 24 -106 21 -141 -1 -6 -15 -16 -32
-22 -41 -14 -335 -68 -421 -76 l-68 -7 0 173 c0 117 6 200 16 254 9 44 18 127
21 185 5 104 5 105 -22 130 -23 22 -36 25 -100 25 -110 0 -136 -36 -101 -140
10 -29 11 -57 5 -105 -5 -36 -13 -128 -19 -205 -5 -77 -15 -180 -21 -230 -7
-49 -12 -101 -13 -114 -1 -30 -9 -34 -131 -61 -55 -12 -120 -28 -145 -35 -25
-7 -85 -23 -135 -35 -49 -12 -96 -27 -102 -32 -7 -6 -13 -30 -13 -54 0 -40 4
-46 40 -70 45 -30 45 -30 195 11 104 28 198 51 250 61 l30 6 2 -105 c3 -92 1
-107 -17 -127 -18 -21 -20 -37 -20 -166 0 -103 -3 -145 -12 -151 -7 -4 -57 -7
-110 -5 -91 2 -103 5 -195 48 -54 25 -122 58 -151 73 -60 31 -172 125 -172
144 0 7 -8 29 -19 50 -25 50 -38 280 -21 390 11 76 75 254 119 331 35 61 121
186 170 246 223 275 385 398 550 419 40 5 75 12 79 15 3 4 12 4 19 1 8 -2 39
-12 71 -21z m5007 -210 c23 -45 58 -135 80 -200 21 -66 43 -124 47 -130 11
-15 31 -200 32 -294 3 -219 -32 -495 -79 -619 -52 -139 -71 -183 -100 -236
-18 -33 -44 -80 -57 -105 -20 -38 -153 -242 -215 -330 -30 -43 -100 -134 -120
-155 -10 -11 -40 -46 -66 -78 -69 -81 -172 -154 -322 -230 l-130 -65 -150 -6
c-203 -9 -249 0 -295 53 -29 33 -41 61 -58 134 -24 101 -30 266 -12 367 32
185 50 279 58 305 6 17 26 98 46 180 36 150 126 429 144 447 10 10 45 -56 58
-107 10 -41 50 -78 103 -95 50 -17 52 -17 78 3 25 20 26 22 20 113 -6 108 -24
141 -95 175 -42 21 -46 21 -72 5 -25 -14 -60 -22 -60 -12 0 28 146 345 193
419 20 32 37 60 37 63 0 2 32 61 70 129 39 68 76 139 82 157 6 18 16 39 22 47
20 26 90 50 181 62 50 6 113 18 140 25 28 8 86 19 130 24 44 5 107 16 140 24
33 8 76 14 95 13 33 -2 37 -6 75 -83z m-4595 -809 c-3 -32 -28 -100 -64 -174
-47 -96 -168 -235 -226 -259 -19 -8 -62 -36 -95 -62 -62 -49 -131 -88 -140
-78 -3 3 2 76 10 163 8 87 15 197 15 245 l0 86 53 17 c28 9 79 21 112 26 33 6
76 16 95 22 31 10 195 28 228 25 7 -1 13 -5 12 -11z"/>
<path d="M6691 4819 c-95 -9 -109 -22 -91 -81 14 -45 16 -151 5 -230 -6 -38
-4 -49 8 -54 21 -8 132 34 154 58 17 18 32 80 49 199 5 36 2 54 -12 78 -10 16
-23 32 -28 34 -6 1 -44 0 -85 -4z"/>
<path d="M6830 4101 c-144 -75 -127 -71 -303 -71 -121 0 -168 4 -182 14 -11 7
-42 16 -69 18 -27 3 -52 11 -56 18 -10 16 -64 -12 -84 -43 -28 -45 -29 -67 -4
-91 30 -27 117 -64 172 -73 23 -3 48 -10 57 -14 32 -16 195 -29 240 -19 176
38 276 93 325 176 26 44 26 47 11 80 -20 41 -35 42 -107 5z"/>
<path d="M710 7103 c-14 -2 -31 -12 -37 -21 -24 -30 -15 -62 33 -111 54 -54
110 -136 143 -207 23 -51 23 -53 18 -350 -3 -165 -11 -321 -17 -349 -6 -27
-20 -97 -30 -155 -31 -174 -46 -252 -110 -560 -65 -313 -87 -433 -121 -650
-36 -231 -38 -260 -39 -448 -1 -169 0 -186 20 -225 31 -60 44 -67 127 -67 67
0 76 2 98 26 23 25 25 35 25 120 0 105 -6 113 -58 69 -47 -39 -52 -34 -52 56
0 94 66 560 120 844 12 61 28 146 36 190 7 44 25 132 39 195 14 63 32 147 40
185 7 39 18 82 24 97 5 14 15 55 21 90 5 34 17 92 25 128 52 226 74 653 39
745 -9 22 -19 55 -24 73 -4 18 -15 43 -24 57 -9 13 -16 29 -16 36 0 22 -69
124 -122 182 -56 60 -72 65 -158 50z"/>
<path d="M1320 3250 c0 -5 5 -10 10 -10 6 0 10 5 10 10 0 6 -4 10 -10 10 -5 0
-10 -4 -10 -10z"/>
</g>
</svg>
