<?xml version="1.0" standalone="no"?>
<!DOCTYPE svg PUBLIC "-//W3C//DTD SVG 20010904//EN"
 "http://www.w3.org/TR/2001/REC-SVG-20010904/DTD/svg10.dtd">
<svg version="1.0" xmlns="http://www.w3.org/2000/svg"
 width="863.000000pt" height="864.000000pt" viewBox="0 0 863.000000 864.000000"
 preserveAspectRatio="xMidYMid meet">

<g transform="translate(0.000000,864.000000) scale(0.100000,-0.100000)"
fill="#000000" stroke="none">
<path d="M4947 6346 c-37 -14 -49 -22 -112 -78 -16 -16 -37 -28 -46 -28 -8 0
-24 -8 -35 -17 -34 -31 -83 -63 -94 -63 -6 0 -32 -19 -58 -43 -26 -24 -67 -58
-91 -77 -24 -18 -52 -47 -62 -63 -17 -30 -17 -31 8 -64 14 -18 31 -33 39 -33
7 0 41 25 75 55 66 59 202 155 219 155 13 0 13 -35 0 -59 -5 -10 -10 -37 -11
-60 -2 -25 -10 -48 -21 -58 -29 -26 -24 -84 11 -117 l30 -28 27 21 c28 22 84
29 84 10 0 -6 -13 -23 -30 -37 -28 -24 -29 -29 -23 -82 4 -45 1 -64 -15 -96
-47 -93 -116 -181 -234 -301 -261 -266 -524 -520 -563 -543 -101 -59 -128
-112 -82 -166 l23 -26 60 24 c64 26 124 69 256 183 44 39 106 89 137 113 31
24 90 74 131 111 73 65 147 126 300 246 41 33 111 89 155 126 96 80 241 179
262 179 17 0 17 0 -16 -235 -11 -82 -28 -208 -36 -280 -34 -293 -45 -395 -55
-495 -23 -252 -89 -653 -141 -865 -68 -272 -186 -625 -266 -793 -44 -94 -109
-173 -153 -187 -26 -8 -25 -17 5 -49 14 -15 35 -26 50 -26 37 0 98 34 129 71
59 70 142 271 226 549 18 58 45 146 60 195 52 165 98 396 125 620 9 72 20 155
25 185 5 30 21 161 35 290 69 642 92 812 130 973 8 34 15 79 15 100 0 54 49
99 252 232 90 59 187 131 215 158 l53 51 -27 28 c-25 27 -31 28 -115 28 -93 0
-118 -7 -233 -67 -74 -39 -175 -137 -207 -202 -15 -31 -28 -61 -28 -68 0 -6
-14 -22 -30 -35 -17 -13 -61 -48 -98 -78 -37 -30 -93 -73 -124 -94 -32 -21
-58 -42 -58 -46 0 -11 -87 -70 -104 -70 -9 0 -16 6 -16 13 1 20 44 85 72 107
15 11 41 46 57 77 24 44 31 69 31 114 0 57 30 158 57 190 17 20 17 36 0 46 -8
4 -20 22 -28 38 -12 24 -21 30 -43 28 -15 -1 -33 -9 -40 -17 -14 -17 -53 -30
-59 -19 -3 5 -7 41 -8 81 -3 70 -2 74 26 97 17 13 50 26 75 30 25 4 53 14 62
22 9 8 37 15 62 15 41 1 48 5 61 31 10 21 12 34 5 41 -5 5 -10 18 -10 28 0 16
-11 18 -117 18 -73 -1 -133 -6 -156 -14z"/>
<path d="M2200 6310 c-101 -15 -190 -43 -190 -61 0 -20 61 -68 95 -75 23 -4
41 -1 57 10 18 13 53 16 199 16 l177 0 21 -34 c41 -66 21 -243 -47 -406 -26
-63 -55 -118 -121 -228 -30 -51 -46 -75 -152 -232 -24 -36 -71 -94 -104 -130
-33 -36 -79 -85 -101 -110 -59 -66 -307 -296 -389 -361 -38 -31 -94 -77 -124
-102 -30 -26 -57 -47 -61 -47 -10 0 -111 -91 -206 -185 -387 -385 -682 -671
-753 -730 -46 -38 -107 -90 -135 -115 -28 -25 -80 -67 -116 -95 -36 -27 -68
-54 -73 -60 -17 -24 34 -125 64 -125 9 0 63 33 120 74 107 77 212 180 658 651
110 116 224 231 255 255 31 25 56 51 56 60 0 19 107 120 127 120 9 0 54 37
102 83 134 126 200 182 406 337 105 78 201 153 216 166 14 13 31 24 39 24 8 0
25 11 39 24 67 63 280 206 405 272 76 41 141 74 145 74 4 0 40 21 81 46 86 53
264 144 281 144 7 0 44 15 83 34 118 56 256 104 346 120 47 8 96 18 109 22 21
6 23 5 17 -12 -5 -10 -15 -42 -22 -70 -25 -91 -106 -264 -170 -360 -19 -28
-34 -54 -34 -58 0 -4 -13 -24 -28 -44 -16 -20 -55 -73 -88 -116 -32 -44 -101
-125 -153 -180 -51 -56 -118 -132 -149 -171 -31 -38 -106 -122 -169 -185 -62
-63 -120 -126 -130 -140 -10 -14 -41 -47 -71 -74 -29 -28 -73 -77 -97 -110
-24 -34 -71 -81 -103 -106 -32 -25 -79 -71 -103 -103 -24 -32 -77 -90 -116
-128 -40 -38 -73 -78 -73 -88 0 -41 108 -56 153 -21 14 11 31 20 39 20 14 0
180 115 252 176 160 133 367 276 381 262 7 -7 -52 -88 -150 -208 -55 -67 -115
-143 -133 -168 -19 -26 -54 -71 -80 -100 -55 -65 -102 -137 -102 -158 0 -9 15
-31 34 -50 38 -38 72 -43 152 -23 75 19 91 6 97 -83 3 -40 11 -95 18 -123 19
-70 16 -179 -6 -249 -18 -58 -18 -59 2 -100 12 -22 24 -53 27 -68 3 -15 23
-43 44 -63 162 -155 188 -173 220 -156 28 15 48 44 50 70 0 13 19 43 40 65 21
23 49 58 61 78 12 20 42 62 66 94 25 31 55 78 67 103 12 25 35 63 51 84 27 35
51 108 64 199 11 79 -60 218 -112 218 -8 0 -30 7 -49 16 -31 15 -36 15 -50 2
-8 -8 -33 -18 -56 -22 -52 -8 -82 -29 -199 -140 -69 -66 -95 -86 -101 -75 -4
8 -10 50 -14 93 -4 59 -13 91 -31 123 -33 56 -61 73 -129 80 -31 3 -56 7 -56
9 0 3 65 91 153 208 29 38 75 96 102 129 28 33 63 78 79 101 16 22 48 64 71
91 23 28 49 64 58 81 9 18 28 45 42 62 21 25 26 40 23 74 l-3 43 -45 -3 c-86
-7 -278 -119 -508 -297 -41 -31 -76 -54 -79 -52 -8 8 74 117 126 167 25 25
109 117 186 204 77 88 172 194 210 236 97 105 223 255 265 316 8 12 47 63 86
115 91 122 148 208 187 283 17 34 43 77 58 96 14 19 48 79 75 133 l48 97 -22
30 c-12 16 -22 41 -22 55 l0 25 -108 0 c-88 0 -114 -4 -145 -20 -20 -11 -46
-20 -58 -20 -29 0 -199 -72 -349 -148 -69 -35 -224 -114 -345 -174 -240 -120
-293 -151 -494 -284 -171 -113 -223 -146 -227 -142 -5 5 48 80 83 118 55 60
117 141 183 240 35 52 78 113 94 135 45 58 95 164 138 290 16 47 20 89 21 195
2 131 1 137 -23 167 -14 17 -50 41 -80 54 -47 20 -73 24 -175 25 -66 1 -145
-2 -175 -6z m980 -691 c-8 -5 -62 -32 -119 -60 -57 -27 -136 -69 -175 -91 -39
-23 -107 -61 -151 -83 -150 -77 -351 -200 -438 -267 -37 -29 -70 -31 -46 -2 6
7 15 11 20 8 5 -3 26 7 46 21 21 14 31 25 23 25 -11 1 -9 4 5 12 10 6 39 26
63 45 59 45 153 99 324 186 79 41 182 95 229 120 47 26 93 47 101 47 9 0 21 7
28 15 7 9 15 13 17 11 3 -2 19 2 36 9 38 17 58 19 37 4z m-260 -1123 c0 -3 -4
-8 -10 -11 -5 -3 -10 -1 -10 4 0 6 5 11 10 11 6 0 10 -2 10 -4z m-1750 -291
c-24 -25 -46 -45 -49 -45 -3 0 15 20 39 45 24 25 46 45 49 45 3 0 -15 -20 -39
-45z m2224 -690 c21 -22 28 -69 23 -156 -6 -105 -39 -186 -137 -334 -82 -125
-105 -154 -115 -152 -13 4 -68 117 -90 186 -10 29 -18 85 -19 125 -1 69 0 72
46 136 52 73 100 121 173 173 54 39 94 46 119 22z"/>
<path d="M7930 4619 c-65 -29 -169 -101 -176 -121 -3 -10 -25 -41 -48 -70 -49
-61 -86 -150 -86 -209 0 -22 -9 -61 -19 -87 -14 -33 -21 -84 -26 -172 -7 -128
-16 -160 -41 -139 -19 16 -63 -21 -86 -73 -18 -40 -18 -45 -2 -122 9 -47 24
-90 35 -102 10 -11 19 -30 19 -42 0 -56 89 -50 148 12 48 49 85 129 69 145 -6
6 -13 62 -15 128 -3 91 1 143 17 228 12 61 21 126 21 145 0 19 9 64 20 98 11
35 20 75 20 88 0 17 21 44 67 89 37 36 73 65 80 65 10 0 13 -34 13 -153 0
-139 2 -157 23 -197 21 -43 25 -46 91 -63 60 -15 71 -16 85 -3 9 7 36 17 60
21 39 6 57 19 142 104 102 101 119 132 116 211 -3 47 -39 55 -61 13 -16 -32
-72 -86 -131 -129 -22 -15 -57 -43 -78 -62 -24 -21 -47 -32 -60 -30 -21 3 -22
8 -27 163 -6 175 -19 219 -76 264 -33 26 -38 26 -94 0z"/>
<path d="M5719 4418 l-24 -23 3 -239 3 -240 -43 -83 c-35 -70 -40 -87 -32
-111 8 -23 16 -27 55 -30 51 -3 77 17 114 90 22 44 49 67 62 54 4 -4 8 -67 8
-139 -1 -114 -5 -149 -32 -257 -42 -164 -57 -246 -50 -265 5 -11 20 -15 55
-15 l49 0 21 83 c11 45 27 107 36 137 16 55 34 126 62 255 19 85 14 203 -9
239 -10 14 -17 35 -17 46 0 12 -14 35 -30 52 -31 31 -46 32 -107 13 l-22 -7
-3 215 c-3 228 -7 247 -53 247 -12 0 -33 -10 -46 -22z m36 -48 c3 -5 1 -10 -4
-10 -6 0 -11 5 -11 10 0 6 2 10 4 10 3 0 8 -4 11 -10z"/>
<path d="M4500 4407 c-69 -4 -159 -17 -201 -27 -42 -11 -86 -20 -97 -20 -18 0
-55 -15 -122 -49 -25 -13 -23 -63 5 -96 l25 -30 62 18 c176 50 251 67 333 77
50 6 116 18 147 26 31 8 120 17 198 21 143 6 155 11 128 45 -26 32 -259 49
-478 35z"/>
<path d="M6640 4334 c-101 -39 -142 -64 -184 -111 -21 -24 -55 -52 -75 -63
-52 -27 -123 -103 -115 -123 8 -21 59 -38 109 -34 l40 2 3 -59 c2 -32 -6 -116
-17 -187 -13 -78 -21 -177 -21 -248 0 -106 3 -124 26 -175 28 -62 54 -84 106
-93 29 -4 41 0 71 27 35 31 36 33 34 98 -3 68 -21 95 -33 48 -7 -29 -32 -42
-40 -21 -12 29 2 519 15 550 7 16 15 68 18 115 6 84 6 85 49 127 24 23 62 52
85 64 38 19 41 23 35 51 -3 17 -6 37 -6 44 0 20 -26 17 -100 -12z"/>
<path d="M6824 4012 c-38 -16 -91 -43 -117 -61 -41 -28 -47 -37 -47 -66 l0
-35 48 0 c37 1 67 11 137 49 l90 47 0 45 c0 56 -15 59 -111 21z"/>
<path d="M7024 3820 c-38 -32 -73 -59 -77 -60 -4 0 -46 -33 -92 -73 -46 -40
-105 -84 -130 -98 -26 -13 -54 -34 -62 -45 -12 -19 -11 -25 12 -52 14 -16 25
-35 25 -41 0 -18 28 -12 39 8 6 10 23 21 39 24 21 4 72 50 176 158 80 84 146
158 146 164 0 7 9 24 20 37 10 14 16 28 13 32 -16 16 -44 2 -109 -54z m-67
-106 c-15 -15 -27 -22 -27 -15 0 14 40 54 47 47 3 -3 -6 -18 -20 -32z"/>
</g>
</svg>
