<?xml version="1.0" encoding="utf-8"?>
<!-- Generator: Adobe Illustrator 23.0.0, SVG Export Plug-In . SVG Version: 6.00 Build 0)  -->
<svg version="1.1" id="レイヤー_1" xmlns="http://www.w3.org/2000/svg" xmlns:xlink="http://www.w3.org/1999/xlink" x="0px"
	 y="0px" viewBox="0 0 224.3 153.2" style="enable-background:new 0 0 224.3 153.2;" xml:space="preserve">
<path d="M152.7,43.4c-3.3,2.8-6.4,5.9-9.2,9.2c-1.4,1.6-2.7,3.3-4,5s-2.5,3.5-3.7,5.2c-6.1,8.7-11.4,12.2-14,13.8
	c-2.9,1.8-8.1,4.3-15.4,4.3h-25c0,0,24.4-16.1,32.5-23.4c10.8-9.8,22.8-22.7,19.6-38.5c-2-10-10.2-17.9-20.5-18.8
	C98.1-1.1,85.9,8.6,79.1,21.4c-0.2,0.4-0.3,0.6-0.4,0.9s-0.1,0.5,0.1,0.6c0.3,0.2,0.5,0.1,1.2-1c7.4-10.5,21-15.6,31.8-9.9
	c6.4,3.4,9.3,10,9.5,16.7c0.5,10.4-5.8,19.8-20.3,32.1C90.9,69.4,80,77.2,72.1,83l-4.7,3.4c-0.8,0.6-1.8,0.8-2.3,0.1
	c-0.6-0.6-0.4-1.5,0.1-2.2c3-4.7,6.3-11.1,7-13.4c0.1-0.4,0-0.5-0.1-0.6s-0.3-0.1-0.5,0.1c-0.2,0.3-0.1,0.1-0.6,0.7
	c-3.5,4.7-9.8,9.7-20.8,9.7H15.3c0,0,25.5-17.6,32.5-23.5s13.6-12.7,17.5-21.2c3.6-7.9,3.6-17.9-0.8-25.4C60.2,3.7,52.9,0,43.9,0
	C30.1,0,19.5,9,13.1,21.4c-0.1,0.3-0.3,0.6-0.4,0.9c-0.1,0.2-0.1,0.5,0.1,0.6c0.1,0,0.3,0.1,0.6-0.2c0.3-0.4,0.3-0.3,0.6-0.7
	c2.9-4.1,9.3-12.4,21.9-12.4c10.9,0.1,19,7.7,19.5,18.8c0.5,10.4-5.8,20.2-20.3,32.5C24.9,69.5,14,77.3,6.1,83l-5.8,4.2
	c-0.3,0.2-0.4,0.6-0.2,1s0.6,0.4,0.8,0.4c0.4,0,5-0.2,5-0.2c1.9-0.1,5.7-0.2,8.9-0.3c0,0,103.2,0,104.6,0c1.8,0,3.1,0.2,4.3,1.3
	c1.1,1.1,1.3,2.6,1,4.9c-2.7,20.1,2.3,41.2,15.4,58.6l0.1,0.1c0.3-0.7,0.7-1.7,1-2.4c-13.7-18.7-17.8-41.7-13.1-62.9
	c1.6-6.6,4.3-11.5,7.7-15.4c1.3-1.5,3.2-3.3,4.8-4.5c4.5-3.4,10-5,15.6-5h31.6c-5,7-20.7,26.6-31.1,40.4
	c-6.4,8.5-15.7,21.1-16.9,23.3c-1.1,2.1-1.1,4.6,0,6.4c1,1.7,2.9,2.8,5.4,2.4c2.7-0.5,4.2-2.2,5.7-5.2c8.3-17.4,20-35.9,30.4-51.1
	c2.9-4.2,5.8-8.4,8.7-12.6c1.3-1.8,5.6-7.6,6.6-9c0.3-0.4,0.8-1,0.9-1.3c0.1-0.2,0.2-0.6,0.1-0.8c-0.1-0.2-0.4-0.3-0.6-0.3
	c-0.1,0-44.1,0-44.1,0c-1.6,0-3.3-0.3-4-1.9c-0.8-1.8,0.4-3.5,1.5-4.6c0.7-0.7,1.3-1.3,2-1.9c0.4-0.4,0.8-0.7,1.2-1.1
	c0.2-0.2,0.5-0.4,0.7-0.6c19.2-16.1,44.6-21.8,68.4-16c0.6-0.6,1.2-1.2,1.8-1.8C199.4,20.8,172.8,26.6,152.7,43.4z"/>
</svg>
