<?xml version="1.0" standalone="no"?><!DOCTYPE svg PUBLIC "-//W3C//DTD SVG 1.1//EN" "http://www.w3.org/Graphics/SVG/1.1/DTD/svg11.dtd"><svg t="1639307943492" class="icon" viewBox="0 0 1053 1024" version="1.1" xmlns="http://www.w3.org/2000/svg" p-id="1278" xmlns:xlink="http://www.w3.org/1999/xlink" width="205.6640625" height="200"><defs><style type="text/css">:not(pre) { -webkit-text-stroke: 0px !important; }
</style></defs><path d="M497.301435 957.856459c-147.96555-18.12823-275.35311-100.930144-351.540669-228.807655-26.457416-44.34067-48.260287-102.644976-59.284211-159.479426-3.429665-17.148325-4.409569-34.786603-4.409569-78.392345 0-49.485167 0.734928-59.774163 5.879425-85.741626C121.508134 235.666986 239.341627 115.383732 408.37512 77.902392c20.333014-4.654545 31.84689-5.389474 76.677512-5.389473 58.794258-0.244976 77.41244 2.694737 129.347368 19.598086 60.754067 20.333014 108.524402 50.220096 156.294737 97.745454 58.794258 58.549282 93.580861 123.467943 111.464115 207.004785 7.594258 34.541627 8.329187 114.158852 1.469856 147.475598-3.919617 19.35311-3.919617 22.292823-0.489952 28.662201 4.164593 8.329187 3.919617 8.084211 62.4689 23.517703 44.34067 11.758852 49.730144 14.453589 52.914832 27.437321 3.429665 13.71866-28.417225 84.761722-57.569378 128.122488-71.533014 106.809569-182.997129 179.077512-312.589474 202.350239-25.967464 4.654545-104.114833 6.614354-131.062201 3.429665z m113.913876-169.033492c54.139713-11.023923 103.134928-36.256459 145.270813-74.717704 29.397129-26.947368 61.978947-74.227751 75.207656-109.749282 12.49378-33.316746 13.473684-32.581818-77.167464-55.854546-25.722488-6.85933-30.377033-13.963636-26.457416-41.890909 10.044019-70.798086-17.393301-148.945455-70.798087-200.635406-83.536842-81.332057-212.639234-91.621053-306.955024-24.497608-69.573206 49.485167-106.319617 129.592344-102.155023 223.173206 3.429665 79.127273 33.806699 147.720574 89.90622 203.330143 71.288038 71.043062 173.688038 101.17512 273.148325 80.842106z" fill="#2c2c2c" p-id="1279"></path></svg>