<?xml version="1.0" standalone="no"?><!DOCTYPE svg PUBLIC "-//W3C//DTD SVG 1.1//EN" "http://www.w3.org/Graphics/SVG/1.1/DTD/svg11.dtd"><svg t="1651999668295" class="icon" viewBox="0 0 1024 1024" version="1.1" xmlns="http://www.w3.org/2000/svg" p-id="4934" xmlns:xlink="http://www.w3.org/1999/xlink" width="200" height="200"><defs><style type="text/css">:not(pre) { -webkit-text-stroke: 0px !important; }
</style></defs><path d="M488.021333 128c-0.512 0-4.010667 0.981333-4.010666 4.010667 0 2.474667 0.981333 2.645333 2.645333 2.645333 128.170667 0 337.493333 59.178667 330.666667 186.666667-5.504 103.850667-168.32 225.365333-542.634667 225.365333-2.176 0-4.010667 2.474667-4.010667 3.968 0 1.493333 1.322667 2.346667 3.968 2.688 0 0 650.197333 30.805333 664.021334-232.021333C949.845333 108.16 488.533333 128 487.978667 128z m-313.344 36.010667c-0.512 0-1.024 0.853333-1.365333 1.322666-37.802667 61.482667-60.330667 102.826667-83.968 153.344l-2.688 5.333334v1.322666A18.816 18.816 0 0 0 87.978667 341.333333c14.037333 25.344 91.690667 54.656 266.666666 54.656 130.56 0 269.354667-24.149333 269.354667-69.333333 0-43.52-137.173333-69.333333-269.354667-69.333333-43.818667 0-87.466667 6.997333-99.968 9.344 11.989333-21.333333 62.165333-99.157333 62.634667-100.010667 0.170667-0.341333 0-0.853333 0-1.322667-0.298667-0.682667-0.64-1.322667-1.28-1.322666z m179.968 139.989333c79.872 0 129.365333 13.354667 129.365334 22.656 0 9.344-49.493333 22.698667-129.322667 22.698667-80.042667 0-128-13.226667-128-22.698667 0-9.301333 48-22.656 128-22.656zM170.666667 640c-47.146667 0-85.333333 38.186667-85.333334 85.333333v85.333334c0 47.146667 38.186667 85.333333 85.333334 85.333333h682.666666c47.146667 0 85.333333-38.186667 85.333334-85.333333v-85.333334c0-47.146667-38.186667-85.333333-85.333334-85.333333z m85.333333 85.333333c23.466667 0 42.666667 19.2 42.666667 42.666667s-19.2 42.666667-42.666667 42.666667-42.666667-19.2-42.666667-42.666667 19.2-42.666667 42.666667-42.666667z m170.666667 0h426.666666v85.333334H426.666667z" fill="#797F7E" p-id="4935"></path></svg>