<?xml version="1.0" encoding="utf-8"?>
<!-- Generator: Adobe Illustrator 23.0.0, SVG Export Plug-In . SVG Version: 6.00 Build 0)  -->
<svg version="1.1" id="Bilibili" xmlns="http://www.w3.org/2000/svg" xmlns:xlink="http://www.w3.org/1999/xlink" x="0px" y="0px"
	 viewBox="0 0 2186.9 999.7" style="enable-background:new 0 0 2186.9 999.7;" xml:space="preserve">
<g>
	<path d="M2030.6,892.8c-9.8,0-18.6,0-26.4-1c-16.6-1-33.2-2-49.8-2c-10.7,0-10.7,0-11.7-10.7l-15.6-177.7L1911.5,554l-10.7-90.8
		L1891,384L1873.4,261c-5.9-43.9-12.7-86.9-21.5-130.9c-1-6.8-1-7.8,6.8-8.8c30.3-5.9,61.5-8.8,92.8-8.8h10.7c4.9,1,7.8,3.9,8.8,9.8
		l3.9,67.4l27.3,364.3l13.7,167l8.8,95.7L2030.6,892.8L2030.6,892.8z M833.3,112.5h17.6c8.8,0,10.7,2.9,10.7,11.7l7.8,118.2
		l17.6,245.1l10.7,127.9l7.8,98.6L921.2,884c0,7.8-1,8.8-8.8,8.8l-70.3-2.9c-4.9,1-7.8-2-7.8-6.8l-2.9-34.2
		c-2.9-29.3-5.9-58.6-7.8-88.9L808,605.7l-16.6-139.6l-11.7-98.6l-12.7-89.9c-5.9-40-12.7-81.1-19.5-121.1l-4.9-27.3
		c-1-4.9,0-6.8,4.9-7.8C774.8,116.4,801.1,111.6,833.3,112.5L833.3,112.5L833.3,112.5z M1815.8,506.1c24.4,0,27.3,1,31.3,24.4
		c4.9,29.3,8.8,58.6,11.7,87.9l10.7,94.7l20.5,201.2c1,4.9,0,6.8-4.9,6.8l-76.2,8.8c-7.8,1-9.8,0-10.7-7.8l-43.9-224.6l-27.3-149.4
		l-3.9-20.5c-1-3.9,1-6.8,4.9-7.8C1758.2,512.9,1787.4,508,1815.8,506.1L1815.8,506.1L1815.8,506.1z M705.4,506.1
		c26.4-1,29.3,2,32.2,26.4c6.8,40,11.7,79.1,15.6,119.1L766,768.8l7.8,79.1l6.8,63.5c0,8.8-1,10.8-8.8,11.7l-72.3,6.8
		c-7.8,1-9.8,0-10.8-7.8l-59.6-306.7l-15.6-86.9c-1-4.9,1-7.8,5.9-8.8C649.8,512.9,678.1,508,705.4,506.1L705.4,506.1L705.4,506.1z
		 M1078.5,808.8v121.1v3.9c1,5.9-1.9,8.8-7.8,7.8h-23.4c-16.6,0-33.2,1-49.8,2c-8.8,1-9.8,1-10.8-9.8L971,758.1l-7.8-86.9
		l-11.7-132.8c-1-10.8,1-12.7,9.8-13.7c27.3-2.9,54.7-2.9,82-2l20.5,2.9c7.8,2.9,8.8,3.9,8.8,11.7l2.9,52.7l1,58.6
		C1077.5,702.4,1078.5,755.1,1078.5,808.8L1078.5,808.8L1078.5,808.8z M2186.9,814.7V929v5.9c0,4.9-1.9,7.8-6.8,6.8h-35.1
		c-13.7,0-27.4,1-40,2c-7.8,1-8.8,0-9.8-8.8l-20.5-228.5L2063.8,593l-3.9-57.6c-1-7.8,1-9.8,8.8-9.8c32.2-3.9,65.4-4.9,97.6-1
		c12.7,1,14.6,4.9,15.6,17.6l2.9,129.9L2186.9,814.7L2186.9,814.7z M1787.4,298.1c9.8,0,18.6,1,25.4,2c4.9,1,6.8,2.9,7.8,7.8
		l12.7,135.7c2.9,11.7,1,13.7-10.7,13.7l-33.2,2c-6.8,1-9.8,2-9.8-8.8L1766,340.1l-3.9-31.3c-1-5.9,1-8.8,6.8-9.8L1787.4,298.1
		L1787.4,298.1z M681,298.1c7.8,0,15.6,1,22.5,2c3.9,1,5.9,2.9,6.8,7.8l3.9,34.2l9.8,106.4c1,7.8,1,8.8-6.8,8.8l-38.1,2
		c-7.8,1-8.8,0-9.8-7.8l-8.8-78.1l-7.8-65.4c-1-4.9,1-7.8,5.9-7.8C665.4,299.1,673.2,298.1,681,298.1L681,298.1L681,298.1z
		 M1070.7,395.8v67.4c1,10.7-1,10.7-9.8,10.7c-12.7,0-24.4-1-36.1-2c-7.8-1-8.8-1-7.8-8.8l-2.9-83c0-18.5,0-37.1-1-55.7
		c-1-8.8,0-9.8,8.8-9.8c13.7,0,27.3,1,41,2.9c7.8,0,7.8,2,7.8,9.8V395.8L1070.7,395.8z M2180,396.7v67.4c0,8.8-1,9.8-9.8,9.8
		l-37.1-2c-5.9-1-8.8-3.9-7.8-8.8l-2.9-139.6c0-7.8,1-8.8,8.8-8.8c12.7,0,24.4,1,36.1,2c14.6,1,12.7,3.9,12.7,14.6L2180,396.7
		L2180,396.7z M650.7,449.5c1,11.7,0,13.7-11.7,14.6l-23.4,5.9c-7.8,2.9-8.8,1-9.8-5.9l-24.4-137.7c-2.9-8.8-1-10.7,7.8-11.7
		l34.2-5.9c7.8-1,9.8-1,9.8,6.8c2.9,16.6,5.9,33.2,7.8,49.8l9.8,78.1L650.7,449.5L650.7,449.5z M1689.8,315.7
		c14.7-2.9,30.3-4.9,45.9-6.8c4.9-1,6.8,2,7.8,6.8l7.8,53.7c3.9,26.4,6.8,52.7,7.8,79.1v7.8c1,3.9-1,6.8-4.9,7.8l-31.3,6.8
		c-4.9,1-6.8-1-7.8-5.9l-25.4-145.5V315.7L1689.8,315.7z M996.4,421.1c0,15.6-1,30.3-2,43.9c0,4.9-2,6.8-6.8,7.8l-30.3,2.9
		c-4.9,1-6.8-2-6.8-6.8c-2-14.6-2.9-28.3-3.9-43c-2-26.4-3.9-53.7-4.9-81l-2-19.5c-1-3.9,1-5.9,4.9-5.9l40-2.9c6.8,0,8.8,1,8.8,8.8
		L996.4,421.1L996.4,421.1z M2103.9,405.5c1,18.6,1,38.1,0,56.6c1,8.8-1,10.8-9.8,10.8l-27.4,2.9c-4.9,1-7.8-2-7.8-6.8
		c-1-24.4-2.9-49.8-4.9-74.2l-3.9-68.4c-1-4.9,1-6.8,4.9-6.8l39.1-2.9c6.8,0,7.8,1,7.8,8.8C2103.9,351.8,2104.8,379.1,2103.9,405.5
		L2103.9,405.5L2103.9,405.5z M612.6,738.5c15.6,18.6,18.6,39.1,11.7,61.5c-5.9,21.5-16.6,40-32.2,55.7
		c-25.4,26.4-54.7,47.8-86.9,64.5c-55.7,29.3-113.3,49.8-174.8,60.5c-43.9,8.8-87.9,14.7-131.8,17.6c-13.7,1-27.3,1-41,1h-29.3
		c-7.8,0-9.8-2-10.8-9.8l-6.8-94.7L92.1,708.3L71.6,530.5l-11.7-94.7L47.2,345c-6.8-49.8-15.6-99.6-24.4-149.4
		C16,155.5,9.1,115.5,0.3,75.4c-1-4.9,0-8.8,4.9-9.8L141,9c8.8-3.9,16.6-6.8,25.4-8.8c5.9-1,8.8,1,7.8,6.8c0,15.6,0,31.3-1,47.8
		l-1,12.7c-1,56.6-1,113.3,0,170.9c1,49.8,3.9,100.6,6.8,150.4c4.9,78.1,12.7,156.3,20.5,233.4c0,7.8,1,7.8,9.8,6.8
		c16.6-2.9,32.2-3.9,48.8-3.9c51.8,0,103.5,5.9,153.3,18.5c43.9,10.8,85.9,25.4,127.9,44c20.5,9.8,39.1,21.5,56.6,35.2
		C602.9,727.8,607.8,732.7,612.6,738.5L612.6,738.5L612.6,738.5z M1713.2,729.7c20.5,16.6,27.3,39.1,21.5,65.4
		c-4.9,21.5-14.7,40-29.3,56.6c-23.4,26.4-50.8,46.9-81.1,63.5c-58.6,32.2-121.1,54.7-187.5,66.4c-36.1,6.8-72.3,12.7-108.4,15.6
		c-20.5,2-43,2.9-65.4,2h-26.4c-5.8,1-8.8-2-8.8-7.8c-2-27.3-3.9-54.7-6.8-82l-15.6-167l-16.6-145.5l-20.5-164.1
		c-2.9-28.3-6.8-57.6-11.7-85.9L1139,237.5c-7.8-51.8-17.6-103.5-28.3-155.3l-1-6.8c-1.9-4.9,0-8.8,4.9-9.8
		c47.9-19.5,94.7-41,142.6-59.6c12.7-4.9,28.3-10.7,27.3,1c-3.9,36.1-2.9,72.3-3.9,107.4c-1,29.3-1,58.6,1,86.9v22.5
		c0,35.2,1,70.3,3.9,104.5c2,45.9,4.9,92.8,8.8,138.7l8.8,98.6c1,18.5,2.9,36.1,5.9,54.7c0,10.7,1.9,9.8,10.7,8.8
		c17.6-2.9,35.2-3.9,52.7-3.9c61.5,1,121.1,10.7,179.7,27.3c40,10.8,78.1,25.4,115.2,44.9C1683.9,706.3,1698.6,717,1713.2,729.7
		L1713.2,729.7L1713.2,729.7z M301.1,901.6c14.6-8.8,40-26.4,75.2-53.7c35.2-28.3,56.6-46.9,65.4-56.6
		c-52.7-23.4-107.4-44-164.1-62.5L301.1,901.6L301.1,901.6z M1548.2,796.1c2.9-2.9,1.9-4.9-1-6.8l-23.4-9.8
		c-41-17.6-82-33.2-124-46.9l-5.9-2c-1.9-1-3.9,0-6.8,1l23.4,168.9c2.9,0,4.9-1,5.9-2c38.1-27.3,76.2-55.7,114.3-85.9L1548.2,796.1
		L1548.2,796.1z"/>
</g>
</svg>
