<?xml version="1.0" encoding="utf-8"?>
<!-- Generator: Adobe Illustrator 27.4.1, SVG Export Plug-In . SVG Version: 6.00 Build 0)  -->
<svg version="1.1" id="图层_1" xmlns="http://www.w3.org/2000/svg" xmlns:xlink="http://www.w3.org/1999/xlink" x="0px" y="0px"
	 viewBox="0 0 400 200" style="enable-background:new 0 0 400 200;" xml:space="preserve">
<g>
	<path d="M190.11,46.74h6.46v17.84h22.17V46.74h6.46v42.32h-6.46V70.1h-22.17v18.97h-6.46V46.74z"/>
	<path d="M235.22,47.34c0.83,0.75,1.25,1.76,1.25,3.02c0,1.19-0.44,2.21-1.3,3.08c-0.87,0.79-1.9,1.19-3.08,1.19
		s-2.21-0.4-3.08-1.19c-0.83-0.83-1.25-1.86-1.25-3.08c0-1.26,0.42-2.27,1.25-3.02c0.79-0.79,1.82-1.19,3.08-1.19
		C233.38,46.15,234.43,46.55,235.22,47.34z M228.93,58.42h6.28v30.65h-6.28V58.42z"/>
	<path d="M237.83,71.11h29.93v5.22h-29.93V71.11z"/>
	<path d="M269.6,46.74h18.73c4.35,0,7.74,0.97,10.2,2.9c2.61,2.13,3.91,5.2,3.91,9.19c0,2.21-0.59,4.19-1.78,5.93
		c-1.34,1.9-3.18,3.14-5.51,3.73v0.12c3.75,0.83,5.87,3.32,6.34,7.47l0.71,6.76c0.24,2.61,1.07,4.68,2.49,6.22h-6.99
		c-0.99-1.26-1.6-3.12-1.84-5.57l-0.53-5.28c-0.24-2.29-0.99-3.99-2.25-5.1c-1.26-1.03-3.12-1.54-5.57-1.54h-11.44v17.49h-6.46
		V46.74z M276.06,52.26v13.81h11.44c2.81,0,4.94-0.61,6.4-1.84c1.38-1.19,2.08-2.9,2.08-5.16c0-2.33-0.67-4.05-2.02-5.16
		c-1.38-1.11-3.56-1.66-6.52-1.66H276.06z"/>
	<path d="M329.17,62.69c2.41,3.12,3.63,7.39,3.67,12.8h-23.24c0.24,3.04,1.05,5.33,2.43,6.88c1.46,1.58,3.42,2.37,5.87,2.37
		c2.17,0,3.95-0.51,5.33-1.54c0.99-0.75,1.92-2.07,2.79-3.97h6.28c-0.75,2.92-2.15,5.32-4.21,7.17c-2.69,2.33-6.07,3.5-10.14,3.5
		c-4.54,0-8.12-1.4-10.73-4.21c-2.84-2.96-4.27-6.95-4.27-11.97c0-4.58,1.34-8.4,4.03-11.44c2.61-3.12,6.18-4.68,10.73-4.68
		C322.79,57.59,326.6,59.29,329.17,62.69z M312.27,64.82c-1.34,1.42-2.19,3.4-2.55,5.93h16.54c-0.59-5.33-3.38-8-8.36-8
		C315.53,62.75,313.66,63.44,312.27,64.82z"/>
	<path d="M357.38,67.25h-6.11c-0.47-1.66-1.21-2.81-2.19-3.44c-1.07-0.71-2.69-1.07-4.86-1.07c-1.98,0-3.4,0.28-4.27,0.83
		c-1.11,0.59-1.66,1.5-1.66,2.73c0,1.03,0.83,1.94,2.49,2.73c1.03,0.44,3.08,1.05,6.16,1.84c3.44,0.83,6.03,1.8,7.77,2.9
		c2.45,1.54,3.67,3.67,3.67,6.4c0,6.48-4.54,9.72-13.63,9.72c-8.38,0-12.92-3.58-13.63-10.73h6.17c0.36,2.06,1.09,3.52,2.19,4.39
		c1.11,0.79,2.81,1.19,5.1,1.19c4.9,0,7.35-1.38,7.35-4.15c0-1.5-0.91-2.67-2.73-3.5c-0.95-0.47-3-1.07-6.17-1.78
		c-3.64-0.83-6.16-1.72-7.59-2.67c-2.37-1.5-3.56-3.56-3.56-6.16c0-2.81,1.15-4.98,3.44-6.52c2.29-1.58,5.29-2.37,9.01-2.37
		C352.32,57.59,356.67,60.81,357.38,67.25z"/>
	<path d="M190.11,110.58h6.4v36.81h23.3v5.51h-29.7V110.58z"/>
	<path d="M246.06,126.05c2.77,3.08,4.15,6.93,4.15,11.56c0,4.66-1.36,8.48-4.09,11.44c-2.88,3.12-6.62,4.68-11.2,4.68
		c-4.58,0-8.32-1.56-11.2-4.68c-2.73-2.96-4.09-6.78-4.09-11.44c0-4.7,1.38-8.56,4.15-11.56c2.81-3.08,6.52-4.62,11.14-4.62
		C239.58,121.43,243.3,122.97,246.06,126.05z M228.16,130.02c-1.38,1.9-2.07,4.43-2.07,7.59c0,3.12,0.69,5.63,2.07,7.53
		c1.62,2.29,3.87,3.44,6.76,3.44c2.85,0,5.12-1.15,6.82-3.44c1.42-2.02,2.13-4.52,2.13-7.53c0-3.12-0.71-5.65-2.13-7.59
		c-1.66-2.29-3.93-3.44-6.82-3.44C232,126.58,229.74,127.73,228.16,130.02z"/>
	<path d="M276.95,131.09h-6.11c-0.47-1.66-1.21-2.81-2.19-3.44c-1.07-0.71-2.69-1.07-4.86-1.07c-1.98,0-3.4,0.28-4.27,0.83
		c-1.11,0.59-1.66,1.5-1.66,2.73c0,1.03,0.83,1.94,2.49,2.73c1.03,0.44,3.08,1.05,6.16,1.84c3.44,0.83,6.03,1.8,7.77,2.9
		c2.45,1.54,3.67,3.67,3.67,6.4c0,6.48-4.54,9.72-13.63,9.72c-8.38,0-12.92-3.58-13.63-10.73h6.17c0.36,2.06,1.09,3.52,2.19,4.39
		c1.11,0.79,2.81,1.19,5.1,1.19c4.9,0,7.35-1.38,7.35-4.15c0-1.5-0.91-2.67-2.73-3.5c-0.95-0.47-3-1.07-6.17-1.78
		c-3.64-0.83-6.16-1.72-7.59-2.67c-2.37-1.5-3.56-3.56-3.56-6.17c0-2.81,1.15-4.98,3.44-6.52c2.29-1.58,5.29-2.37,9.01-2.37
		C271.89,121.43,276.23,124.65,276.95,131.09z"/>
	<path d="M304.03,131.09h-6.11c-0.47-1.66-1.21-2.81-2.19-3.44c-1.07-0.71-2.69-1.07-4.86-1.07c-1.98,0-3.4,0.28-4.27,0.83
		c-1.11,0.59-1.66,1.5-1.66,2.73c0,1.03,0.83,1.94,2.49,2.73c1.03,0.44,3.08,1.05,6.16,1.84c3.44,0.83,6.03,1.8,7.77,2.9
		c2.45,1.54,3.67,3.67,3.67,6.4c0,6.48-4.54,9.72-13.63,9.72c-8.38,0-12.92-3.58-13.63-10.73h6.17c0.36,2.06,1.09,3.52,2.19,4.39
		c1.11,0.79,2.81,1.19,5.1,1.19c4.9,0,7.35-1.38,7.35-4.15c0-1.5-0.91-2.67-2.73-3.5c-0.95-0.47-3-1.07-6.17-1.78
		c-3.64-0.83-6.16-1.72-7.59-2.67c-2.37-1.5-3.56-3.56-3.56-6.17c0-2.81,1.15-4.98,3.44-6.52c2.29-1.58,5.29-2.37,9.01-2.37
		C298.97,121.43,303.32,124.65,304.03,131.09z"/>
	<path d="M307.35,109.75h6.28v43.15h-6.28V109.75z"/>
	<path d="M342.15,126.53c2.41,3.12,3.63,7.39,3.67,12.8h-23.24c0.24,3.04,1.05,5.33,2.43,6.88c1.46,1.58,3.42,2.37,5.87,2.37
		c2.17,0,3.95-0.51,5.33-1.54c0.99-0.75,1.92-2.08,2.79-3.97h6.28c-0.75,2.92-2.15,5.32-4.21,7.17c-2.69,2.33-6.07,3.5-10.14,3.5
		c-4.54,0-8.12-1.4-10.73-4.21c-2.84-2.96-4.27-6.95-4.27-11.97c0-4.58,1.34-8.4,4.03-11.44c2.61-3.12,6.18-4.68,10.73-4.68
		C335.76,121.43,339.58,123.13,342.15,126.53z M325.25,128.66c-1.34,1.42-2.19,3.4-2.55,5.93h16.54c-0.59-5.33-3.38-8-8.36-8
		C328.51,126.58,326.64,127.28,325.25,128.66z"/>
	<path d="M371.9,131.09h-6.11c-0.47-1.66-1.21-2.81-2.19-3.44c-1.07-0.71-2.69-1.07-4.86-1.07c-1.98,0-3.4,0.28-4.27,0.83
		c-1.11,0.59-1.66,1.5-1.66,2.73c0,1.03,0.83,1.94,2.49,2.73c1.03,0.44,3.08,1.05,6.16,1.84c3.44,0.83,6.03,1.8,7.77,2.9
		c2.45,1.54,3.67,3.67,3.67,6.4c0,6.48-4.54,9.72-13.63,9.72c-8.38,0-12.92-3.58-13.63-10.73h6.17c0.36,2.06,1.09,3.52,2.19,4.39
		c1.11,0.79,2.81,1.19,5.1,1.19c4.9,0,7.35-1.38,7.35-4.15c0-1.5-0.91-2.67-2.73-3.5c-0.95-0.47-3-1.07-6.17-1.78
		c-3.64-0.83-6.16-1.72-7.59-2.67c-2.37-1.5-3.56-3.56-3.56-6.17c0-2.81,1.15-4.98,3.44-6.52c2.29-1.58,5.29-2.37,9.01-2.37
		C366.84,121.43,371.19,124.65,371.9,131.09z"/>
	<path d="M398.99,131.09h-6.11c-0.47-1.66-1.21-2.81-2.19-3.44c-1.07-0.71-2.69-1.07-4.86-1.07c-1.98,0-3.4,0.28-4.27,0.83
		c-1.11,0.59-1.66,1.5-1.66,2.73c0,1.03,0.83,1.94,2.49,2.73c1.03,0.44,3.08,1.05,6.16,1.84c3.44,0.83,6.03,1.8,7.77,2.9
		c2.45,1.54,3.67,3.67,3.67,6.4c0,6.48-4.54,9.72-13.63,9.72c-8.38,0-12.92-3.58-13.63-10.73h6.17c0.36,2.06,1.09,3.52,2.19,4.39
		c1.11,0.79,2.81,1.19,5.1,1.19c4.9,0,7.35-1.38,7.35-4.15c0-1.5-0.91-2.67-2.73-3.5c-0.95-0.47-3-1.07-6.17-1.78
		c-3.64-0.83-6.16-1.72-7.59-2.67c-2.37-1.5-3.56-3.56-3.56-6.17c0-2.81,1.15-4.98,3.44-6.52c2.29-1.58,5.29-2.37,9.01-2.37
		C393.93,121.43,398.28,124.65,398.99,131.09z"/>
</g>
<path d="M168.43,91.78l-1.29-0.26c-0.28,0.95-0.68,1.88-0.83,2.86c-1.85,12.06-4.05,24.02-8.89,35.32
	c-2.48,5.8-5.27,11.41-10.53,15.28c-5.33,3.92-10.57,3.57-14.75-1.52c-2.61-3.1-4.74-6.58-6.32-10.32
	c-3.78-9.47-6.98-19.18-10.54-28.75c-4.57-12.28-8.91-24.65-14.02-36.7c-3.14-7.39-7.83-13.95-15.02-18.28
	c-4.84-2.9-13.81-3.2-18.17,0.9c1.53,0.72,2.96,2.03,4.19,1.86c5.56-0.75,9.26,2.03,11.85,6.26c2.71,4.42,5.25,9.08,7.03,13.94
	c5.12,14.05,9.7,28.31,14.73,42.4c3.8,10.61,7.94,21.15,15.54,29.77c5.11,5.77,11.28,9.12,19.39,7.49
	c7.27-1.45,11.68-6.36,14.97-12.44c6.79-12.54,9.27-26.39,11.63-40.25C167.83,96.84,168.09,94.3,168.43,91.78z M100.38,149.24
	c-2.08-0.72-3.67-1.83-5.18-1.71c-4.3,0.33-7.74-1.24-9.84-4.67c-3.15-5.1-6.33-10.33-8.41-15.92c-5.17-13.92-9.62-28.1-14.55-42.11
	c-3.56-10.1-7.66-19.98-14.5-28.39c-3.66-4.51-7.98-8.12-14.02-8.93c-9.53-1.29-16.07,3.18-20.61,11.09
	C4.8,73.33,2.43,89.8,0.01,106.24c-0.07,0.51,0.38,1.1,0.9,2.51c0.52-1.57,0.81-2.26,0.95-2.99c1.65-8.05,2.95-16.21,4.98-24.16
	c2.28-8.91,5.34-17.63,11.8-24.55c6.6-7.06,13.8-6.78,19.04,1.27c3.38,5.27,6.15,10.9,8.27,16.79
	c5.55,15.13,10.38,30.52,15.92,45.64c3.64,9.95,8.26,19.49,16.39,26.75c6.35,5.67,15.54,6.67,22.11,1.72L100.38,149.24
	L100.38,149.24z M123.58,149.53c-1.77-0.89-3.13-2.17-4.3-2.02c-6.54,0.86-10.7-2.77-13.01-7.9c-4.84-10.77-9.02-21.82-13.3-32.83
	c-5.16-13.29-9.88-26.76-15.3-39.94c-2.63-6.52-7.05-12.16-12.74-16.29c-6.06-4.34-14.93-4.58-19.97-0.31
	c1.38,0.74,2.73,2.14,3.83,1.96c6.23-1.03,10.1,2.33,12.76,7.08c3.05,5.45,5.84,11.1,7.98,16.96c5.37,14.7,10.11,29.64,15.47,44.33
	c3.39,9.3,7.66,18.23,14.73,25.45C106.39,152.86,115.56,154.43,123.58,149.53z M36.61,60.21c-6.73,8.71-15.26,43.88-12.31,48.23
	c0.38-1.6,0.8-2.87,0.98-4.16c2-14.03,5.01-27.78,11.49-40.53C37.24,62.83,36.68,61.4,36.61,60.21z M131.61,139.38
	c6.62-8.25,15.29-43.54,12.14-48.29c-0.4,2.26-0.74,4-1.01,5.75c-2.05,13.32-4.87,26.4-11.06,38.53
	C131.14,136.44,131.61,138.04,131.61,139.38L131.61,139.38z M48.87,91.91c-0.88,5.35-2.86,10.55-1.87,16.12
	C48.11,102.72,50.53,97.57,48.87,91.91z M122.32,91.88l-1.77-0.31c-0.64,5.29-2.61,10.43-1.72,15.91l0.91,0.12L122.32,91.88z"/>
<g>
</g>
<g>
</g>
<g>
</g>
<g>
</g>
<g>
</g>
</svg>
