<svg xmlns="http://www.w3.org/2000/svg" xmlns:xlink="http://www.w3.org/1999/xlink" id="图层_1" x="0" y="0" version="1.1" viewBox="0 0 257 200" xml:space="preserve" style="enable-background:new 0 0 257 200"><style type="text/css">.st0{font-family:&apos;AlibabaSans-Black&apos;}.st1{font-size:65px}</style><text class="st0 st1" transform="matrix(1 0 0 1 22.148 154.8167)">AUDIO</text><path d="M144.8,55.8c0,4.2-1.8,5.7-7,5.7h-3.1V50.6h3.1C143.1,50.6,144.8,51.6,144.8,55.8z M180.8,59.1c-4.2,0-6,1-6.2,5.3l11.1-0.8	C185.7,60.9,184.7,59.1,180.8,59.1z M250,32.5v135c0,3.7-1.3,6.8-4,9.5s-5.8,4-9.5,4h-216c-3.7,0-6.8-1.3-9.5-4	c-2.7-2.7-4-5.8-4-9.5v-135c0-3.7,1.3-6.8,4-9.5s5.8-4,9.5-4h216c3.7,0,6.8,1.3,9.5,4S250,28.8,250,32.5z M71.4,40.7H58.5v15.8H44.2	V40.7H31.2v45.1h12.9V67.3h14.3v18.5h12.9V40.7z M91.6,50.7H79.3v35.1h12.4V50.7z M92.1,40.8c0-5.7-1-6.1-6.7-6.1	c-5.7,0-6.7,0.5-6.7,6.1c0,5.7,1,6.3,6.7,6.3C91.1,47.1,92.1,46.5,92.1,40.8z M113.5,64c0-6.1-0.6-7.1-7-7.1c-6.4,0-6.9,1-6.9,7.1	c0,6,0.5,7,6.9,7C112.9,71,113.5,69.9,113.5,64z M161.8,85.8l-12.1-16.5c5.4-2,7.9-6.3,7.9-13.5c0-10.7-5.9-15.1-17.5-15.1h-18.3	v45.1h12.9V70.7h2.5l9.3,15.1H161.8z M196.6,66c0-10.7-3.4-15.9-15.9-15.9c-11.6,0-18.4,3.8-18.4,18.2s6.8,18.2,17.8,18.2	c6.9,0,12.5-1.4,14.7-2.8v-9.1c-2,1.2-7.5,2.5-12.2,2.5c-4.5,0-7.3-1.3-8-4.3l21.6-1.3C196.4,71,196.6,68.8,196.6,66z M228.3,74.4	c0-6.3-1.4-8.6-8.6-10.7c-5.6-1.6-6.4-1.6-6.4-2.8c0-1.2,0.4-1.8,4.1-1.8c3.1,0,7.5,0.8,9.4,1.3l0.4-9.2c-2.1-0.7-6-1.2-10.3-1.2	c-11.6,0-15.1,3.8-15.1,11.2c0,6,1.7,8,9,9.9c4.8,1.2,5.8,1.6,5.8,3.5c0,1.9-1,2.1-4,2.1c-3.2,0-7-0.6-11-1.8v10.1	c4.1,0.8,7.3,1.1,11.9,1.1C222.7,86.2,228.3,83.6,228.3,74.4z M234.9,93.6H22.4c-3.8,0-6.9,3.1-6.9,6.9v64.3c0,3.8,3.1,6.9,6.9,6.9	h212.5c3.8,0,6.9-3.1,6.9-6.9v-64.3C241.8,96.7,238.7,93.6,234.9,93.6z"/></svg>