<?xml version="1.0" encoding="utf-8"?>
<!-- Generator: Adobe Illustrator 24.2.3, SVG Export Plug-In . SVG Version: 6.00 Build 0)  -->
<svg version="1.1" id="レイヤー_1" xmlns="http://www.w3.org/2000/svg" xmlns:xlink="http://www.w3.org/1999/xlink" x="0px"
	 y="0px" viewBox="0 0 54.3 49.6" style="enable-background:new 0 0 54.3 49.6;" xml:space="preserve">
<style type="text/css">
	.st0{fill-rule:evenodd;clip-rule:evenodd;fill:#F16C6C;}
	.st1{fill:none;stroke:#000000;stroke-width:2;stroke-miterlimit:10;}
</style>
<g>
	<path class="st0" d="M30.8,3.7c13,0,23.5,10.3,23.5,23c0,12.7-10.5,23-23.5,23S7.3,39.3,7.3,26.6C7.3,14,17.8,3.7,30.8,3.7z"/>
	<g>
		<g>
			<path class="st1" d="M24.5,1C11.5,1,1,11.3,1,24c0,12.7,10.5,22.9,23.5,22.9C37.5,46.9,48,36.6,48,24C48,11.3,37.5,1,24.5,1z"/>
		</g>
	</g>
	<g>
		<path d="M31.6,15.5c-3.6-0.2-11.6-0.2-15.2,0c-3.9,0.3-4.4,2.6-4.4,8.8c0,6.1,0.5,8.5,4.4,8.8c3.6,0.2,11.6,0.2,15.2,0
			c3.9-0.3,4.4-2.6,4.4-8.8C36,18.1,35.5,15.8,31.6,15.5z M21,28.2v-8l8,4L21,28.2z"/>
	</g>
</g>
</svg>
