<?xml version="1.0" encoding="utf-8"?>
<!-- Generator: Adobe Illustrator 24.2.3, SVG Export Plug-In . SVG Version: 6.00 Build 0)  -->
<svg version="1.1" id="レイヤー_1" xmlns="http://www.w3.org/2000/svg" xmlns:xlink="http://www.w3.org/1999/xlink" x="0px"
	 y="0px" viewBox="0 0 74 74" style="enable-background:new 0 0 74 74;" xml:space="preserve">
<style type="text/css">
	.st0{fill:none;}
	.st1{fill:#FFDCA0;}
</style>
<g>
	<rect class="st0" width="74" height="74"/>
	<g>
		<path class="st1" d="M40,17c-11.9,0-21.5,9.6-21.5,21.5C18.5,50.4,28.1,60,40,60s21.5-9.6,21.5-21.5C61.5,26.6,51.9,17,40,17z"/>
		<g>
			<g>
				<path d="M34,14c-11.9,0-21.5,9.6-21.5,21.5S22.1,57,34,57c11.9,0,21.5-9.6,21.5-21.5S45.9,14,34,14z M34,53.4
					c-9.9,0-17.9-8-17.9-17.9c0-9.9,8-17.9,17.9-17.9c9.9,0,17.9,8,17.9,17.9C51.9,45.4,43.9,53.4,34,53.4z M20.6,40.5l-1.8,0.2
					c1.6,4.7,5.3,8.4,10,10L29,49C25.1,47.5,22,44.4,20.6,40.5z M24.3,40l-1.9,0.2c1.3,3.1,3.7,5.5,6.8,6.8l0.2-1.9
					C27.2,44.2,25.4,42.3,24.3,40z M39.2,20.3L39,22.1c3.9,1.4,6.9,4.5,8.4,8.4l1.8-0.2C47.6,25.6,43.9,21.9,39.2,20.3z M34,28.3
					c-4,0-7.2,3.2-7.2,7.2c0,4,3.2,7.2,7.2,7.2c4,0,7.2-3.2,7.2-7.2C41.2,31.5,38,28.3,34,28.3z M34,39.1c-2,0-3.6-1.6-3.6-3.6
					c0-2,1.6-3.6,3.6-3.6c2,0,3.6,1.6,3.6,3.6C37.6,37.5,36,39.1,34,39.1z M38.8,23.9l-0.2,1.9c2.3,1.1,4.1,2.9,5.2,5.2l1.9-0.2
					C44.3,27.6,41.9,25.2,38.8,23.9z"/>
			</g>
		</g>
	</g>
</g>
</svg>
