<svg xmlns="http://www.w3.org/2000/svg" xmlns:xlink="http://www.w3.org/1999/xlink" id="レイヤー_1" x="0" y="0" version="1.1" viewBox="0 0 49 47.9" xml:space="preserve" style="enable-background:new 0 0 49 47.9"><style type="text/css">.st0{fill:none;stroke:#fff;stroke-width:2;stroke-miterlimit:10}.st1{fill:#fff}</style><g><g><g><path d="M24.5,1C11.5,1,1,11.3,1,24c0,12.7,10.5,22.9,23.5,22.9C37.5,46.9,48,36.6,48,24C48,11.3,37.5,1,24.5,1z" class="st0"/></g></g><g><path d="M36,17.3c-0.9,0.4-1.8,0.7-2.8,0.8c1-0.6,1.8-1.6,2.2-2.8c-0.9,0.6-2,1-3.1,1.2c-0.9-1-2.2-1.6-3.6-1.6 c-3.2,0-5.5,3-4.8,6.2c-4.1-0.2-7.7-2.2-10.1-5.3c-1.3,2.3-0.7,5.2,1.5,6.7c-0.8,0-1.6-0.3-2.2-0.6c-0.1,2.3,1.6,4.5,3.9,5 c-0.7,0.2-1.5,0.2-2.2,0.1c0.6,2,2.4,3.5,4.6,3.5c-2.1,1.7-4.7,2.4-7.3,2.1c2.2,1.4,4.8,2.3,7.5,2.3c9.1,0,14.3-7.9,14-15 C34.6,19.2,35.4,18.3,36,17.3z" class="st1"/></g></g></svg>