<svg xmlns="http://www.w3.org/2000/svg" xmlns:xlink="http://www.w3.org/1999/xlink" id="レイヤー_1" x="0" y="0" version="1.1" viewBox="0 0 49 47.9" xml:space="preserve" style="enable-background:new 0 0 49 47.9"><style type="text/css">.st0{fill:none;stroke:#fff;stroke-width:2;stroke-miterlimit:10}.st1{fill:#fff}</style><g><g><g><path d="M24.5,1C11.5,1,1,11.3,1,24c0,12.7,10.5,22.9,23.5,22.9S48,36.6,48,24C48,11.3,37.5,1,24.5,1z" class="st0"/></g></g><g><path d="M31.6,15.5c-3.6-0.2-11.6-0.2-15.2,0c-3.9,0.3-4.4,2.6-4.4,8.8c0,6.1,0.5,8.5,4.4,8.8 c3.6,0.2,11.6,0.2,15.2,0c3.9-0.3,4.4-2.6,4.4-8.8C36,18.1,35.5,15.8,31.6,15.5z M21,28.2v-8l8,4L21,28.2z" class="st1"/></g></g></svg>