<svg xmlns="http://www.w3.org/2000/svg" xmlns:xlink="http://www.w3.org/1999/xlink" id="レイヤー_1" x="0" y="0" version="1.1" viewBox="0 0 148 42" xml:space="preserve" style="enable-background:new 0 0 148 42"><style type="text/css">.st0,.st1{fill-rule:evenodd;clip-rule:evenodd;fill:url(#SVGID_1_)}.st1{fill:#fff}</style><g><linearGradient id="SVGID_1_" x1="72" x2="72" y1="38" y2="0" gradientUnits="userSpaceOnUse"><stop offset="0" style="stop-color:#0088d3"/><stop offset=".316" style="stop-color:#008fd2"/><stop offset=".767" style="stop-color:#00a2ce"/><stop offset="1" style="stop-color:#00aecb"/></linearGradient><path d="M125,0H19C8.5,0,0,8.5,0,19s8.5,19,19,19h106c10.5,0,19-8.5,19-19S135.5,0,125,0z" class="st0"/></g><g><path d="M112.2,17.5h14.9c0.8,0,1.5,0.7,1.5,1.5s-0.7,1.5-1.5,1.5h-14.9c-0.8,0-1.5-0.7-1.5-1.5 C110.6,18.2,111.3,17.5,112.2,17.5z" class="st1"/><path d="M122.5,12.3l5.7,5.7c0.6,0.6,0.6,1.6,0,2.2c-0.6,0.6-1.6,0.6-2.2,0l-5.7-5.7c-0.6-0.6-0.6-1.6,0-2.2 C120.9,11.7,121.9,11.7,122.5,12.3z" class="st1"/><path d="M128.2,20.1l-5.7,5.7c-0.6,0.6-1.6,0.6-2.2,0s-0.6-1.6,0-2.2l5.7-5.7c0.6-0.6,1.6-0.6,2.2,0 C128.8,18.5,128.8,19.5,128.2,20.1z" class="st1"/></g></svg>