<?xml version="1.0" encoding="utf-8"?>
<!-- Generator: Adobe Illustrator 23.0.0, SVG Export Plug-In . SVG Version: 6.00 Build 0)  -->
<svg version="1.1" id="レイヤー_1" xmlns="http://www.w3.org/2000/svg" xmlns:xlink="http://www.w3.org/1999/xlink" x="0px"
	 y="0px" viewBox="0 0 224.3 153.2" style="enable-background:new 0 0 224.3 153.2;" xml:space="preserve">
<style type="text/css">
	.st0{fill:url(#SVGID_1_);}
	.st1{fill:#F15A24;}
	.st2{fill:url(#SVGID_2_);}
	.st3{fill:url(#SVGID_3_);}
	.st4{fill:url(#SVGID_4_);}
	.st5{fill:url(#SVGID_5_);}
</style>
<linearGradient id="SVGID_1_" gradientUnits="userSpaceOnUse" x1="6.5531" y1="156.8952" x2="181.9718" y2="59.6589" gradientTransform="matrix(1 0 0 -1 0 156)">
	<stop  offset="0" style="stop-color:#0088D3"/>
	<stop  offset="0.3161" style="stop-color:#008FD2"/>
	<stop  offset="0.7673" style="stop-color:#00A2CE"/>
	<stop  offset="1" style="stop-color:#00AECB"/>
</linearGradient>
<path class="st0" d="M152.7,43.4c-3.3,2.8-6.4,5.9-9.2,9.2c-1.4,1.6-2.7,3.3-4,5s-2.5,3.5-3.7,5.2c-6.1,8.7-11.4,12.2-14,13.8
	c-2.9,1.8-8.1,4.3-15.4,4.3h-25c0,0,24.4-16.1,32.5-23.4c10.8-9.8,22.8-22.7,19.6-38.5c-2-10-10.2-17.9-20.5-18.8
	C98.1-1.1,85.9,8.6,79.1,21.4c-0.2,0.4-0.3,0.6-0.4,0.9s-0.1,0.5,0.1,0.6c0.3,0.2,0.5,0.1,1.2-1c7.4-10.5,21-15.6,31.8-9.9
	c6.4,3.4,9.3,10,9.5,16.7c0.5,10.4-5.8,19.8-20.3,32.1C90.9,69.4,80,77.2,72.1,83l-4.7,3.4c-0.8,0.6-1.8,0.8-2.3,0.1
	c-0.6-0.6-0.4-1.5,0.1-2.2c3-4.7,6.3-11.1,7-13.4c0.1-0.4,0-0.5-0.1-0.6s-0.3-0.1-0.5,0.1c-0.2,0.3-0.1,0.1-0.6,0.7
	c-3.5,4.7-9.8,9.7-20.8,9.7H15.3c0,0,25.5-17.6,32.5-23.5s13.6-12.7,17.5-21.2c3.6-7.9,3.6-17.9-0.8-25.4C60.2,3.7,52.9,0,43.9,0
	C30.1,0,19.5,9,13.1,21.4c-0.1,0.3-0.3,0.6-0.4,0.9c-0.1,0.2-0.1,0.5,0.1,0.6c0.1,0,0.3,0.1,0.6-0.2c0.3-0.4,0.3-0.3,0.6-0.7
	c2.9-4.1,9.3-12.4,21.9-12.4c10.9,0.1,19,7.7,19.5,18.8c0.5,10.4-5.8,20.2-20.3,32.5C24.9,69.5,14,77.3,6.1,83l-5.8,4.2
	c-0.3,0.2-0.4,0.6-0.2,1s0.6,0.4,0.8,0.4c0.4,0,5-0.2,5-0.2c1.9-0.1,5.7-0.2,8.9-0.3c0,0,103.2,0,104.6,0c1.8,0,3.1,0.2,4.3,1.3
	c1.1,1.1,1.3,2.6,1,4.9c-2.7,20.1,2.3,41.2,15.4,58.6l0.1,0.1c0.3-0.7,0.7-1.7,1-2.4c-13.7-18.7-17.8-41.7-13.1-62.9
	c1.6-6.6,4.3-11.5,7.7-15.4c1.3-1.5,3.2-3.3,4.8-4.5c4.5-3.4,10-5,15.6-5h31.6c-5,7-20.7,26.6-31.1,40.4
	c-6.4,8.5-15.7,21.1-16.9,23.3c-1.1,2.1-1.1,4.6,0,6.4c1,1.7,2.9,2.8,5.4,2.4c2.7-0.5,4.2-2.2,5.7-5.2c8.3-17.4,20-35.9,30.4-51.1
	c2.9-4.2,5.8-8.4,8.7-12.6c1.3-1.8,5.6-7.6,6.6-9c0.3-0.4,0.8-1,0.9-1.3c0.1-0.2,0.2-0.6,0.1-0.8c-0.1-0.2-0.4-0.3-0.6-0.3
	c-0.1,0-44.1,0-44.1,0c-1.6,0-3.3-0.3-4-1.9c-0.8-1.8,0.4-3.5,1.5-4.6c0.7-0.7,1.3-1.3,2-1.9c0.4-0.4,0.8-0.7,1.2-1.1
	c0.2-0.2,0.5-0.4,0.7-0.6c19.2-16.1,44.6-21.8,68.4-16c0.6-0.6,1.2-1.2,1.8-1.8C199.4,20.8,172.8,26.6,152.7,43.4z"/>
<g>
	<g>
		<path class="st1" d="M11.3,98.73h9.86l3.63,21.46h0.28l3.77-18.82h10.66l3.3,18.82h0.28l3.82-21.46h9.81l-7.31,32.73h-11.7
			l-3.82-18.11h-0.28l-3.91,18.11H18L11.3,98.73z"/>
		<path class="st1" d="M64.41,103.35c-1.04,0-1.87-0.05-2.5-0.14c-0.63-0.09-1.12-0.29-1.46-0.59c-0.35-0.3-0.58-0.75-0.71-1.37
			c-0.13-0.61-0.19-1.44-0.19-2.48s0.06-1.85,0.19-2.43c0.13-0.58,0.36-1.02,0.71-1.32c0.35-0.3,0.83-0.49,1.46-0.57
			c0.63-0.08,1.46-0.12,2.5-0.12s1.87,0.04,2.5,0.12c0.63,0.08,1.12,0.27,1.49,0.57c0.36,0.3,0.6,0.74,0.71,1.32
			c0.11,0.58,0.17,1.39,0.17,2.43s-0.06,1.86-0.17,2.48c-0.11,0.61-0.35,1.07-0.71,1.37c-0.36,0.3-0.86,0.5-1.49,0.59
			C66.28,103.31,65.45,103.35,64.41,103.35z M59.93,105.99h8.96v25.47h-8.96V105.99z"/>
		<path class="st1" d="M104.45,131.46H93.28l-8.02-13.58h-1.27v13.58H74.6V98.73h9.39v11.79h1.27l7.92-11.79h10.8l-10.85,15.14
			L104.45,131.46z"/>
		<path class="st1" d="M111.15,103.35c-1.04,0-1.87-0.05-2.5-0.14c-0.63-0.09-1.12-0.29-1.46-0.59c-0.35-0.3-0.58-0.75-0.71-1.37
			c-0.13-0.61-0.19-1.44-0.19-2.48s0.06-1.85,0.19-2.43c0.13-0.58,0.36-1.02,0.71-1.32c0.35-0.3,0.83-0.49,1.46-0.57
			c0.63-0.08,1.46-0.12,2.5-0.12c1.04,0,1.87,0.04,2.5,0.12c0.63,0.08,1.12,0.27,1.49,0.57c0.36,0.3,0.6,0.74,0.71,1.32
			c0.11,0.58,0.17,1.39,0.17,2.43s-0.06,1.86-0.17,2.48c-0.11,0.61-0.35,1.07-0.71,1.37c-0.36,0.3-0.86,0.5-1.49,0.59
			C113.02,103.31,112.19,103.35,111.15,103.35z M106.67,105.99h8.96v25.47h-8.96V105.99z"/>
	</g>
	<g>
		<linearGradient id="SVGID_2_" gradientUnits="userSpaceOnUse" x1="76.0222" y1="112.1407" x2="114.2802" y2="109.6636">
			<stop  offset="0" style="stop-color:#008AD3"/>
			<stop  offset="0.3486" style="stop-color:#0093D1"/>
			<stop  offset="0.5674" style="stop-color:#009CCF"/>
			<stop  offset="0.8652" style="stop-color:#00A0CE"/>
			<stop  offset="0.9944" style="stop-color:#00AACC"/>
		</linearGradient>
		<path class="st2" d="M11.3,98.73h9.86l3.63,21.46h0.28l3.77-18.82h10.66l3.3,18.82h0.28l3.82-21.46h9.81l-7.31,32.73h-11.7
			l-3.82-18.11h-0.28l-3.91,18.11H18L11.3,98.73z"/>
		<linearGradient id="SVGID_3_" gradientUnits="userSpaceOnUse" x1="76.0303" y1="112.2648" x2="114.2883" y2="109.7877">
			<stop  offset="0" style="stop-color:#008AD3"/>
			<stop  offset="0.3486" style="stop-color:#0093D1"/>
			<stop  offset="0.5674" style="stop-color:#009CCF"/>
			<stop  offset="0.8652" style="stop-color:#00A0CE"/>
			<stop  offset="0.9944" style="stop-color:#00AACC"/>
		</linearGradient>
		<path class="st3" d="M64.41,103.35c-1.04,0-1.87-0.05-2.5-0.14c-0.63-0.09-1.12-0.29-1.46-0.59c-0.35-0.3-0.58-0.75-0.71-1.37
			c-0.13-0.61-0.19-1.44-0.19-2.48s0.06-1.85,0.19-2.43c0.13-0.58,0.36-1.02,0.71-1.32c0.35-0.3,0.83-0.49,1.46-0.57
			c0.63-0.08,1.46-0.12,2.5-0.12s1.87,0.04,2.5,0.12c0.63,0.08,1.12,0.27,1.49,0.57c0.36,0.3,0.6,0.74,0.71,1.32
			c0.11,0.58,0.17,1.39,0.17,2.43s-0.06,1.86-0.17,2.48c-0.11,0.61-0.35,1.07-0.71,1.37c-0.36,0.3-0.86,0.5-1.49,0.59
			C66.28,103.31,65.45,103.35,64.41,103.35z M59.93,105.99h8.96v25.47h-8.96V105.99z"/>
		<linearGradient id="SVGID_4_" gradientUnits="userSpaceOnUse" x1="74.9896" y1="116.8075" x2="115.596" y2="112.0303">
			<stop  offset="0" style="stop-color:#008AD3"/>
			<stop  offset="0.3486" style="stop-color:#0093D1"/>
			<stop  offset="0.5674" style="stop-color:#009CCF"/>
			<stop  offset="0.8652" style="stop-color:#00A0CE"/>
			<stop  offset="0.9944" style="stop-color:#00AACC"/>
		</linearGradient>
		<path class="st4" d="M104.45,131.46H93.28l-8.02-13.58h-1.27v13.58H74.6V98.73h9.39v11.79h1.27l7.92-11.79h10.8l-10.85,15.14
			L104.45,131.46z"/>
		<linearGradient id="SVGID_5_" gradientUnits="userSpaceOnUse" x1="76.2254" y1="115.2785" x2="114.4834" y2="112.8013">
			<stop  offset="0" style="stop-color:#008AD3"/>
			<stop  offset="0.3486" style="stop-color:#0093D1"/>
			<stop  offset="0.5674" style="stop-color:#009CCF"/>
			<stop  offset="0.8652" style="stop-color:#00A0CE"/>
			<stop  offset="0.9944" style="stop-color:#00AACC"/>
		</linearGradient>
		<path class="st5" d="M111.15,103.35c-1.04,0-1.87-0.05-2.5-0.14c-0.63-0.09-1.12-0.29-1.46-0.59c-0.35-0.3-0.58-0.75-0.71-1.37
			c-0.13-0.61-0.19-1.44-0.19-2.48s0.06-1.85,0.19-2.43c0.13-0.58,0.36-1.02,0.71-1.32c0.35-0.3,0.83-0.49,1.46-0.57
			c0.63-0.08,1.46-0.12,2.5-0.12c1.04,0,1.87,0.04,2.5,0.12c0.63,0.08,1.12,0.27,1.49,0.57c0.36,0.3,0.6,0.74,0.71,1.32
			c0.11,0.58,0.17,1.39,0.17,2.43s-0.06,1.86-0.17,2.48c-0.11,0.61-0.35,1.07-0.71,1.37c-0.36,0.3-0.86,0.5-1.49,0.59
			C113.02,103.31,112.19,103.35,111.15,103.35z M106.67,105.99h8.96v25.47h-8.96V105.99z"/>
	</g>
</g>
</svg>
