<?xml version="1.0" standalone="no"?>
<!DOCTYPE svg PUBLIC "-//W3C//DTD SVG 20010904//EN"
 "http://www.w3.org/TR/2001/REC-SVG-20010904/DTD/svg10.dtd">
<svg version="1.0" xmlns="http://www.w3.org/2000/svg"
 width="927.000000pt" height="927.000000pt" viewBox="0 0 927.000000 927.000000"
 preserveAspectRatio="xMidYMid meet">

<g transform="translate(0.000000,927.000000) scale(0.100000,-0.100000)"
fill="#000000" stroke="none">
<path d="M4915 8606 c-16 -8 -49 -20 -72 -26 -23 -6 -48 -17 -56 -24 -7 -7
-23 -17 -35 -21 -13 -3 -52 -29 -87 -56 -35 -27 -70 -49 -77 -49 -7 0 -56 -45
-109 -100 -54 -55 -102 -100 -107 -100 -6 0 -19 15 -31 33 -25 41 -156 171
-198 196 -17 11 -51 26 -75 35 -23 8 -59 21 -78 29 -52 22 -139 29 -207 18
-75 -12 -195 -69 -246 -117 -35 -33 -122 -152 -157 -215 -100 -180 -127 -290
-122 -508 1 -57 6 -118 11 -135 33 -108 95 -241 154 -331 142 -215 185 -262
333 -367 60 -42 188 -113 224 -123 14 -4 31 -12 39 -18 23 -20 163 -56 241
-63 80 -7 93 -15 83 -51 -4 -18 -1 -23 13 -24 222 -10 215 -10 252 13 70 42
218 167 326 277 60 61 112 111 116 111 4 0 15 16 24 35 10 19 38 61 64 93 27
31 54 71 61 89 7 17 23 41 37 54 13 12 24 27 24 32 0 6 14 33 32 60 57 90 168
306 168 329 0 6 15 50 34 97 18 47 36 111 40 141 4 30 14 74 22 98 18 54 18
145 0 185 -8 18 -16 51 -19 75 -7 57 -53 146 -91 176 -17 13 -40 33 -52 44
-83 79 -396 149 -479 108z m235 -210 c29 -15 57 -41 78 -72 29 -45 32 -56 32
-126 0 -184 -52 -388 -137 -534 -169 -295 -225 -385 -263 -428 -20 -24 -48
-61 -61 -82 -13 -21 -30 -45 -39 -54 -50 -53 -100 -112 -100 -120 0 -4 -34
-42 -76 -84 l-77 -76 -58 0 c-32 0 -78 6 -101 14 -24 8 -59 17 -78 21 -59 11
-163 56 -201 86 -20 16 -41 29 -46 29 -14 0 -124 83 -160 121 -102 106 -283
362 -283 399 0 4 -9 27 -19 51 -24 55 -36 235 -22 336 7 57 22 99 70 197 74
148 108 197 161 231 47 29 85 32 137 8 43 -20 61 -37 157 -151 64 -75 125
-184 126 -223 0 -8 7 -24 15 -35 8 -10 15 -28 15 -40 0 -12 11 -33 25 -48 22
-24 30 -26 113 -26 79 0 91 2 109 23 19 20 56 87 82 147 13 29 70 115 124 188
53 70 206 191 322 254 57 31 86 30 155 -6z"/>
<path d="M9262 8130 c0 -14 2 -19 5 -12 2 6 2 18 0 25 -3 6 -5 1 -5 -13z"/>
<path d="M3014 7200 c-6 -6 -36 -15 -67 -20 -114 -18 -268 -168 -286 -278 -5
-26 -15 -60 -24 -76 -14 -25 -14 -34 -1 -75 8 -25 18 -62 21 -81 3 -19 16 -49
29 -67 27 -36 23 -58 -10 -67 -80 -20 -398 -295 -411 -356 -3 -14 -39 -60 -80
-103 -41 -43 -75 -84 -75 -93 0 -9 -19 -39 -43 -67 -24 -29 -55 -70 -70 -92
-15 -22 -43 -57 -62 -78 -19 -21 -35 -42 -35 -47 0 -6 -18 -36 -40 -67 -22
-32 -40 -62 -40 -66 0 -5 -13 -25 -29 -45 -16 -20 -44 -66 -62 -102 -18 -36
-39 -73 -46 -82 -32 -37 -120 -205 -145 -278 -71 -204 -108 -329 -113 -383 -4
-34 -12 -78 -20 -97 -14 -37 -37 -174 -61 -360 -8 -63 -19 -122 -24 -131 -4
-9 -12 -89 -16 -178 l-7 -161 -51 0 c-91 0 -239 -20 -255 -34 -9 -7 -45 -28
-81 -46 -36 -18 -76 -39 -90 -46 -43 -22 -215 -197 -230 -234 -8 -19 -21 -42
-28 -51 -8 -9 -25 -42 -39 -75 -14 -32 -29 -66 -33 -75 -11 -20 -51 -142 -75
-224 -28 -96 -63 -290 -66 -370 -3 -75 -21 -265 -27 -290 -5 -16 -4 -54 0 -84
5 -31 12 -124 17 -207 6 -122 11 -155 24 -169 9 -9 17 -30 17 -46 0 -85 99
-286 192 -390 78 -87 201 -196 248 -218 19 -9 42 -24 52 -33 10 -10 29 -18 42
-18 13 0 26 -6 29 -13 3 -9 32 -16 84 -21 43 -4 96 -9 118 -12 62 -8 213 15
285 43 92 36 120 51 161 88 21 18 53 41 73 50 71 34 226 217 280 330 15 33 46
89 68 124 22 36 89 157 148 270 103 198 125 238 221 416 l44 80 60 8 c33 5 74
14 90 21 17 8 45 17 64 21 18 4 42 16 52 26 16 16 29 18 96 13 43 -3 98 -12
123 -19 32 -9 68 -10 125 -4 258 27 344 39 380 53 22 8 49 15 60 16 80 1 364
131 565 258 132 83 248 178 360 292 63 65 235 302 281 388 17 31 35 62 39 67
8 10 45 163 55 227 6 36 -29 213 -57 288 -12 31 -77 156 -103 199 -24 39 -52
61 -82 67 -18 3 -33 10 -33 14 0 5 -29 18 -64 30 -34 11 -71 27 -81 34 -17 12
-17 16 8 67 14 30 43 95 65 144 36 82 95 208 187 400 45 94 107 229 135 290
26 59 49 109 124 265 72 152 94 202 102 236 4 16 12 38 18 49 6 11 16 38 22
60 25 85 51 140 66 143 9 2 41 -8 71 -22 30 -14 66 -26 80 -26 l26 0 -1 -262
c-1 -249 0 -266 22 -328 52 -150 85 -206 167 -285 44 -43 90 -79 105 -82 15
-3 29 -11 32 -19 3 -7 22 -16 42 -20 20 -4 49 -13 63 -20 14 -8 37 -14 51 -14
14 0 61 -9 105 -20 68 -17 115 -20 304 -20 l224 0 66 37 66 37 170 7 c294 11
519 87 810 273 28 18 73 46 100 63 28 17 75 50 105 73 30 22 93 68 140 102 47
33 124 94 172 134 47 41 90 74 95 74 9 0 126 119 168 170 41 51 75 100 75 109
0 6 10 17 22 25 18 13 57 16 213 16 104 0 196 -4 204 -9 23 -15 6 -169 -30
-271 -17 -47 -36 -101 -42 -120 -6 -19 -16 -38 -23 -42 -6 -4 -38 -46 -70 -94
-59 -87 -96 -123 -382 -371 -52 -45 -109 -89 -128 -98 -18 -8 -53 -36 -78 -61
-39 -38 -46 -52 -46 -84 0 -58 31 -87 100 -95 30 -4 60 -13 66 -21 15 -18 115
-19 152 0 32 16 140 27 188 19 32 -5 34 -8 33 -42 -2 -98 -81 -210 -303 -431
-149 -148 -156 -157 -156 -195 0 -22 3 -49 6 -60 5 -20 71 -56 124 -68 37 -9
107 -72 114 -104 4 -16 14 -42 23 -60 15 -28 16 -42 6 -105 -24 -150 -44 -244
-58 -275 -8 -17 -15 -33 -15 -36 0 -3 -19 -38 -41 -79 -43 -74 -109 -165 -151
-206 -88 -86 -127 -121 -153 -137 -17 -11 -47 -32 -68 -48 -67 -52 -300 -187
-342 -198 -23 -7 -67 -8 -104 -5 -58 6 -67 5 -102 -20 -49 -34 -50 -62 -5
-109 38 -39 88 -64 133 -66 68 -4 249 14 263 27 8 7 34 17 57 22 23 5 59 23
80 40 21 17 61 42 88 57 27 14 59 34 70 43 11 10 40 31 65 47 64 42 294 276
369 375 65 86 84 123 126 240 23 64 50 261 47 345 0 22 4 45 9 51 7 9 6 22 -4
41 -8 15 -17 46 -20 67 -8 49 -64 134 -117 177 -22 18 -40 38 -40 45 0 7 43
54 95 105 52 51 111 116 131 146 19 29 52 72 72 96 42 49 82 126 107 205 15
52 15 57 -5 116 -13 39 -33 74 -53 93 -38 37 -119 85 -170 102 -25 9 -37 19
-37 31 0 11 56 76 131 152 168 172 275 330 333 493 69 196 86 332 50 393 -19
33 -99 100 -164 139 -19 11 -73 32 -119 47 -70 22 -103 26 -198 26 -84 0 -113
3 -113 13 0 6 10 44 21 82 24 85 40 232 32 298 -7 57 -67 154 -116 189 -18 12
-34 25 -37 28 -11 15 -112 59 -147 66 -21 4 -50 13 -65 20 -35 18 -95 18 -105
1 -4 -8 -23 -17 -42 -20 -70 -14 -267 -188 -336 -297 -16 -25 -37 -54 -46 -65
-26 -30 -113 -209 -144 -298 -27 -75 -27 -78 -11 -120 9 -23 16 -49 16 -57 0
-27 89 -107 129 -116 14 -3 40 -12 56 -19 17 -8 74 -17 128 -21 56 -3 97 -10
97 -16 0 -6 -23 -31 -51 -57 -28 -25 -68 -61 -88 -79 -20 -19 -61 -51 -91 -73
-79 -55 -138 -98 -196 -141 -28 -21 -55 -38 -60 -38 -5 0 -25 -14 -44 -30 -19
-17 -54 -39 -77 -50 -24 -11 -43 -24 -43 -29 0 -5 -8 -11 -17 -14 -10 -4 -40
-20 -68 -37 -74 -45 -145 -78 -192 -90 -24 -6 -43 -15 -43 -20 0 -6 -9 -10
-20 -10 -33 0 -23 18 48 89 37 37 74 81 82 97 8 16 25 44 37 62 34 51 81 184
108 306 14 61 30 129 36 151 38 155 36 305 -4 396 -25 54 -66 99 -92 99 -7 0
-31 14 -54 30 -23 17 -63 35 -88 39 -48 9 -93 0 -93 -19 0 -5 -9 -10 -21 -10
-26 0 -56 -16 -94 -51 -40 -38 -76 -37 -139 5 -28 19 -89 46 -136 60 l-85 27
-57 -25 c-34 -15 -79 -47 -111 -80 -55 -55 -117 -136 -117 -154 0 -5 -6 -14
-13 -20 -6 -6 -28 -41 -47 -79 -19 -37 -44 -82 -56 -99 -26 -41 -76 -168 -102
-264 -28 -104 -45 -274 -32 -325 5 -22 10 -54 10 -72 0 -41 68 -172 121 -235
l40 -48 -116 0 c-78 0 -125 4 -143 14 -15 7 -43 16 -62 20 -35 7 -90 50 -90
72 0 7 -14 35 -31 62 -27 44 -32 65 -46 188 -19 172 -19 194 1 324 15 98 29
154 62 240 7 19 19 54 25 78 7 23 18 47 26 53 7 6 13 20 13 31 0 11 9 31 20
45 11 14 20 32 20 40 0 8 6 24 12 36 7 12 22 47 33 77 l20 55 -20 31 c-11 18
-33 39 -50 48 -43 23 -135 38 -180 28 -33 -6 -44 -16 -70 -61 -18 -29 -39 -58
-48 -63 -9 -5 -17 -13 -17 -18 0 -23 -170 -230 -189 -230 -29 0 4 227 53 355
8 22 15 52 16 67 0 15 9 42 20 60 11 19 20 51 20 74 0 48 -22 68 -118 108 -76
32 -112 33 -133 3 -57 -80 -130 -228 -149 -302 -4 -16 -20 -61 -35 -100 -15
-38 -33 -92 -40 -120 -44 -170 -89 -306 -187 -565 -47 -123 -183 -436 -195
-448 -7 -7 -17 -30 -23 -51 -10 -38 -91 -214 -130 -281 -11 -19 -49 -98 -86
-175 -36 -77 -70 -148 -75 -157 -5 -10 -14 -28 -21 -40 -6 -13 -15 -30 -19
-38 -23 -42 -69 -139 -69 -145 0 -4 -9 -19 -19 -34 -10 -14 -21 -37 -22 -50
-3 -18 -14 -27 -44 -36 -23 -6 -95 -40 -160 -74 -66 -35 -133 -70 -150 -79
-16 -8 -49 -30 -72 -48 -23 -19 -45 -34 -50 -34 -4 0 -46 -34 -93 -76 -47 -42
-93 -80 -103 -86 -32 -17 -60 -41 -161 -141 -55 -53 -105 -97 -111 -97 -6 0
-31 21 -55 46 -86 88 -219 154 -310 154 -23 0 -54 7 -70 15 -25 13 -39 13
-132 -5 -136 -25 -183 -47 -256 -122 -96 -99 -133 -158 -146 -233 -18 -97 -41
-177 -53 -182 -7 -3 -22 6 -33 20 -11 13 -41 38 -67 54 -129 80 -209 124 -247
134 -85 22 -86 25 -86 157 0 183 46 525 95 707 7 28 16 66 20 85 11 59 46 171
85 270 43 107 116 277 130 300 5 8 26 44 46 80 47 81 98 160 146 225 21 27 38
54 38 58 0 4 18 32 40 62 22 30 40 57 40 60 0 4 27 40 60 80 33 40 60 76 60
79 0 3 8 14 18 25 40 43 100 118 138 175 68 101 206 224 307 274 88 43 124 51
144 31 18 -18 124 7 151 36 20 22 28 24 70 19 26 -4 58 -13 70 -21 14 -8 34
-12 47 -9 91 23 371 -115 526 -259 48 -45 129 -139 129 -150 0 -6 19 -36 102
-157 10 -15 18 -33 18 -40 0 -8 6 -23 14 -34 8 -11 19 -46 25 -79 6 -32 18
-69 26 -81 9 -15 15 -47 15 -89 0 -62 1 -66 28 -76 15 -6 54 -8 91 -5 51 4 70
11 91 31 25 24 26 28 18 86 -17 125 -80 331 -122 397 -14 23 -26 45 -26 48 0
18 -113 158 -181 224 -108 105 -140 129 -266 204 -132 78 -251 128 -379 158
-52 13 -95 27 -98 33 -4 11 0 23 49 150 29 75 37 176 18 217 -70 151 -71 152
-131 176 -31 13 -76 27 -100 31 -24 5 -48 13 -54 19 -15 15 -90 16 -104 2z
m86 -280 c0 -57 -19 -121 -62 -206 -14 -27 -19 -50 -14 -67 5 -23 3 -27 -14
-27 -12 0 -32 12 -45 28 -21 23 -24 37 -25 103 0 66 3 80 29 120 45 68 97 120
115 113 12 -5 16 -21 16 -64z m5126 -124 c32 -32 34 -38 34 -99 0 -42 -5 -68
-14 -76 -7 -6 -16 -31 -19 -55 -4 -26 -23 -72 -47 -111 -22 -36 -40 -74 -40
-85 0 -12 -6 -22 -12 -24 -127 -35 -189 -47 -265 -52 l-93 -7 0 35 c0 39 70
160 159 275 31 40 70 91 86 114 40 56 121 119 152 119 15 0 38 -13 59 -34z
m-1715 -398 c10 -13 18 -32 19 -44 0 -11 13 -38 30 -60 54 -74 182 -94 279
-44 35 18 59 51 53 73 -1 5 2 6 8 2 5 -3 10 -1 10 4 0 6 7 11 15 11 21 0 21
-164 -1 -239 -47 -166 -74 -237 -127 -345 -55 -109 -69 -128 -181 -245 -66
-70 -136 -137 -153 -149 -43 -29 -108 -30 -123 -2 -8 15 -17 18 -39 14 -31 -6
-26 -12 -84 99 -12 24 -25 36 -33 33 -10 -4 -14 5 -14 35 0 26 4 38 11 33 6
-3 8 -17 4 -31 -4 -16 -2 -22 5 -18 11 7 14 88 3 99 -5 4 -9 12 -9 17 -1 5 -2
13 -3 19 0 5 -8 7 -16 4 -9 -4 -15 0 -15 9 0 22 20 32 31 16 6 -10 9 -8 9 9 1
132 129 480 233 634 13 19 27 46 31 61 8 33 31 35 57 5z m-2220 -2108 c55 -46
90 -86 96 -110 3 -14 12 -31 21 -37 13 -11 15 -42 15 -197 -1 -161 -4 -193
-23 -250 -11 -35 -28 -70 -36 -76 -8 -7 -14 -17 -14 -22 0 -28 -113 -187 -184
-259 -128 -132 -244 -239 -258 -239 -7 0 -38 -18 -69 -40 -32 -22 -60 -40 -63
-40 -3 0 -29 -14 -58 -31 -49 -30 -116 -64 -213 -109 -22 -10 -59 -22 -82 -25
-23 -4 -47 -13 -54 -21 -6 -8 -17 -14 -24 -14 -8 0 -16 -6 -19 -12 -5 -10 -7
-10 -12 0 -8 17 -25 15 -91 -8 -72 -25 -216 -29 -207 -5 3 8 43 41 87 74 81
59 547 518 547 539 0 6 19 34 43 64 59 74 87 115 87 127 0 6 6 14 13 18 14 9
67 78 67 88 0 4 26 39 58 78 31 40 62 81 69 92 7 11 29 48 50 83 21 35 48 80
61 100 12 20 38 70 57 109 73 151 87 163 136 123z m-547 -277 c-4 -16 -15 -37
-25 -49 -11 -11 -19 -24 -19 -28 0 -4 -19 -32 -42 -61 -24 -30 -59 -75 -78
-101 -19 -26 -53 -68 -75 -94 -22 -26 -65 -83 -95 -126 -108 -156 -202 -264
-230 -264 -5 0 -6 53 -3 118 l5 117 202 203 c110 112 214 210 230 219 31 16
38 22 86 66 16 15 34 27 40 27 6 0 8 -11 4 -27z m-1051 -229 c71 -50 87 -65
87 -81 0 -8 9 -26 20 -40 13 -17 20 -41 20 -67 0 -36 -8 -49 -55 -100 -30 -33
-55 -63 -55 -67 0 -5 -27 -39 -61 -76 -33 -37 -83 -103 -112 -146 -28 -42 -56
-76 -62 -74 -31 11 -84 147 -98 252 -19 137 -15 212 15 277 29 63 56 90 126
130 68 38 111 36 175 -8z m1029 -226 c-7 -7 -12 -8 -12 -2 0 6 3 14 7 17 3 4
9 5 12 2 2 -3 -1 -11 -7 -17z m-2394 -20 c7 -7 12 -24 12 -38 0 -43 27 -123
55 -160 16 -21 25 -47 25 -70 0 -20 4 -40 8 -45 5 -6 24 -48 42 -95 18 -47 42
-97 52 -112 10 -14 18 -29 18 -32 0 -12 89 -143 126 -185 51 -58 302 -221 340
-221 17 0 124 -50 124 -58 0 -4 -16 -24 -35 -45 -20 -22 -35 -49 -35 -63 0
-13 -5 -24 -11 -24 -6 0 -28 -37 -50 -82 -22 -46 -48 -97 -58 -114 -11 -17
-54 -98 -96 -180 -42 -82 -87 -165 -99 -186 -61 -105 -96 -167 -96 -173 0 -6
-36 -65 -98 -157 -38 -57 -99 -109 -184 -156 -73 -40 -80 -42 -170 -43 -101
-2 -107 0 -224 78 -140 94 -295 354 -319 538 -4 28 -13 75 -21 105 -21 80 -18
325 5 490 11 74 21 151 24 170 2 19 16 78 31 130 15 52 34 120 43 150 8 30 51
127 96 214 67 129 95 173 150 232 54 58 80 77 125 94 31 12 61 25 67 30 9 8
27 10 121 18 11 1 25 -3 32 -10z m429 -157 c102 -82 301 -296 359 -386 81
-125 102 -166 110 -215 l7 -43 -29 6 c-51 9 -128 39 -149 57 -11 10 -46 34
-78 54 -38 24 -67 52 -85 82 -15 25 -45 71 -68 102 -49 68 -94 169 -94 209 0
15 -6 38 -14 49 -19 26 -33 124 -18 124 6 0 32 -18 59 -39z m986 -408 c-6 -64
-16 -83 -43 -83 -29 0 -30 25 -2 84 35 75 52 74 45 -1z m-2092 -260 c-8 -15
-10 -15 -11 -2 0 17 10 32 18 25 2 -3 -1 -13 -7 -23z"/>
<path d="M2660 5304 c-18 -18 -31 -23 -47 -19 -13 3 -39 -3 -61 -14 -45 -23
-132 -113 -132 -137 0 -10 -6 -25 -13 -33 -22 -25 -60 -176 -53 -208 3 -15 11
-57 17 -93 15 -87 66 -204 109 -253 31 -34 42 -40 87 -44 46 -5 55 -10 75 -40
17 -25 28 -32 43 -28 11 4 56 13 100 22 93 18 116 35 181 134 62 96 84 144 84
180 0 17 7 59 16 92 9 34 14 77 11 97 -12 89 -29 166 -41 180 -7 8 -19 30 -26
48 -7 18 -31 48 -54 67 -35 29 -54 35 -117 43 -42 5 -85 15 -97 21 -32 17 -57
13 -82 -15z m78 -235 c2 -19 12 -43 22 -54 29 -31 30 -115 2 -150 -15 -19 -22
-42 -22 -70 0 -28 -7 -51 -20 -66 l-20 -24 -20 24 c-11 13 -20 33 -20 44 0 11
-9 31 -21 43 -33 35 -29 127 10 192 68 115 83 126 89 61z"/>
<path d="M3423 5072 c-49 -32 -113 -124 -113 -162 0 -37 33 -110 63 -138 30
-28 106 -38 167 -22 57 15 100 61 127 135 21 55 21 60 6 99 -23 59 -63 97
-114 107 -70 13 -91 10 -136 -19z"/>
<path d="M1903 4785 c-88 -53 -105 -135 -46 -219 43 -62 90 -74 183 -46 96 29
130 62 130 129 0 64 -26 95 -108 132 -78 35 -105 36 -159 4z"/>
<path d="M6131 4648 c-11 -4 -22 -11 -26 -17 -3 -6 -15 -11 -25 -11 -10 0 -39
-15 -63 -34 -25 -19 -59 -42 -76 -50 -17 -9 -36 -26 -42 -38 -7 -13 -18 -29
-26 -36 -7 -7 -13 -26 -13 -41 0 -42 51 -75 114 -74 144 0 129 -6 227 95 53
56 87 98 84 107 -3 7 -1 19 4 25 5 6 6 27 2 46 l-7 35 -67 0 c-37 0 -76 -3
-86 -7z"/>
<path d="M5338 4493 c-10 -2 -18 -8 -18 -13 0 -4 -13 -13 -30 -19 -24 -8 -30
-16 -30 -39 0 -16 -6 -35 -14 -41 -8 -6 -17 -36 -21 -66 -4 -39 -11 -55 -21
-55 -9 0 -53 -18 -100 -40 -47 -22 -89 -40 -94 -40 -14 0 -70 -63 -70 -79 0
-8 10 -29 22 -47 37 -53 86 -62 221 -38 l38 6 -3 -43 c-3 -41 -5 -44 -55 -68
-54 -26 -63 -40 -63 -101 0 -54 10 -62 89 -68 l71 -5 0 -30 c0 -39 76 -213
112 -255 15 -18 28 -37 28 -41 0 -5 21 -22 48 -37 44 -26 54 -28 154 -27 84 1
114 5 140 19 52 30 100 74 132 122 16 25 39 55 50 66 12 12 30 35 42 51 18 26
23 28 38 16 9 -7 16 -26 16 -42 0 -26 3 -28 55 -34 86 -11 164 2 197 33 15 15
28 35 28 44 0 9 4 19 9 22 5 4 26 35 45 71 42 75 51 82 74 62 9 -8 46 -27 81
-41 69 -28 217 -45 285 -32 50 10 97 54 130 123 15 32 32 66 36 75 9 16 -3 43
-58 129 -21 35 -24 36 -63 29 -43 -8 -84 -41 -121 -98 -22 -33 -25 -33 -77
-28 -29 2 -61 12 -70 20 -10 9 -30 16 -44 16 -31 0 -36 22 -14 55 21 31 93
215 101 257 11 61 -1 86 -52 109 -75 34 -168 34 -222 -1 -8 -5 -42 -21 -75
-36 -74 -33 -174 -98 -239 -156 l-49 -43 8 -63 7 -62 94 0 c115 0 115 1 44
-141 -68 -134 -90 -141 -114 -38 -11 49 -14 54 -36 51 -38 -5 -90 -43 -176
-130 -102 -102 -194 -182 -209 -182 -7 0 -15 22 -19 52 -4 28 -14 64 -22 79
-7 15 -14 52 -14 81 l0 54 63 27 c82 36 153 81 171 109 10 16 13 34 7 58 -6
30 -15 39 -61 62 -66 32 -150 39 -150 11 0 -12 -3 -14 -10 -7 -17 17 9 64 34
64 12 0 64 15 116 33 l95 32 0 59 c0 39 -4 61 -13 64 -7 2 -10 -2 -6 -11 12
-32 -17 -26 -58 11 -52 48 -93 59 -142 38 -43 -18 -72 -10 -89 24 -7 14 -24
27 -37 30 -14 4 -42 14 -62 23 -21 9 -39 16 -40 16 -2 -1 -11 -3 -20 -6z"/>
</g>
</svg>
