<svg xmlns="http://www.w3.org/2000/svg" width="909.333" height="909.333" preserveAspectRatio="xMidYMid meet" version="1.0" viewBox="0 0 682 682"><g fill="#000" stroke="none"><path d="M3380 6323 c-54 -19 -172 -82 -210 -112 -25 -20 -57 -43 -72 -50 -29 -15 -341 -323 -347 -343 -2 -7 -30 -45 -62 -84 -32 -39 -68 -89 -80 -110 -13 -21 -29 -46 -37 -54 -28 -31 -130 -181 -142 -210 -7 -16 -19 -30 -27 -30 -17 0 -40 53 -53 118 -33 177 -169 448 -263 525 -43 35 -103 68 -147 82 -13 4 -30 14 -38 21 -7 8 -26 14 -42 14 -16 0 -33 7 -37 15 -5 8 -29 18 -54 21 -111 15 -357 -93 -576 -253 -47 -35 -88 -63 -92 -63 -11 0 -177 -165 -223 -222 -62 -76 -176 -308 -216 -438 -18 -58 -41 -132 -52 -165 -52 -167 -55 -188 -55 -445 0 -232 1 -248 23 -305 47 -122 112 -206 226 -291 62 -47 85 -58 201 -102 62 -23 82 -25 185 -23 76 1 125 7 144 17 16 7 35 14 42 14 39 0 222 121 316 209 42 39 81 71 87 71 14 0 15 -32 1 -46 -5 -5 -16 -30 -24 -54 -8 -25 -37 -106 -66 -180 -28 -74 -64 -180 -81 -235 -17 -55 -37 -117 -45 -138 -8 -20 -14 -49 -14 -63 0 -13 -7 -41 -16 -62 -9 -20 -20 -59 -25 -87 -4 -27 -15 -81 -23 -120 -41 -204 -49 -274 -60 -529 -9 -217 -14 -270 -25 -274 -8 -3 -33 -21 -55 -41 -48 -43 -106 -86 -123 -92 -7 -2 -83 -74 -170 -159 -87 -85 -201 -196 -253 -245 -99 -93 -290 -295 -357 -377 -21 -26 -77 -94 -125 -152 -49 -58 -88 -107 -88 -111 0 -3 -24 -36 -53 -73 -30 -37 -75 -104 -101 -149 -26 -45 -53 -87 -61 -93 -8 -7 -15 -25 -15 -40 0 -41 51 -70 122 -70 l55 0 47 93 c47 93 70 126 226 322 47 58 114 144 150 190 36 46 117 138 179 205 115 123 534 523 593 566 51 38 58 33 59 -43 0 -67 5 -100 32 -238 22 -109 100 -247 163 -286 30 -18 46 -21 107 -17 89 6 128 30 207 128 83 103 111 157 170 330 10 30 38 102 60 160 67 168 120 329 136 410 19 96 40 137 73 143 14 3 58 17 96 32 73 29 157 53 213 62 43 7 42 -5 -13 -110 -28 -55 -45 -100 -45 -122 0 -88 135 -147 202 -88 15 14 44 14 133 2 6 0 34 4 64 10 66 13 149 64 157 96 8 31 -15 76 -46 92 -46 22 -180 47 -192 35 -12 -12 -38 -5 -38 10 0 5 9 21 20 35 13 17 20 41 20 69 0 38 -5 48 -50 94 l-51 50 -99 0 c-67 0 -112 -5 -139 -16 -22 -8 -68 -22 -103 -30 -35 -8 -73 -17 -85 -21 -18 -4 -23 -1 -23 14 0 10 4 23 9 28 9 10 48 238 76 446 8 64 20 194 25 289 5 95 12 176 15 178 8 8 48 -16 91 -55 40 -35 158 -97 210 -109 16 -3 60 -15 97 -26 76 -23 173 -19 214 8 13 8 42 17 66 20 41 6 46 4 84 -35 22 -23 46 -41 54 -41 8 0 27 -12 44 -26 37 -32 66 -28 184 28 75 35 101 55 202 154 63 63 120 114 127 114 6 0 22 -16 34 -35 13 -19 28 -35 34 -35 6 0 32 -15 58 -32 91 -62 99 -66 126 -54 42 17 72 44 106 94 62 91 241 262 274 262 20 0 -127 -303 -159 -327 -15 -12 -15 -14 2 -24 9 -5 17 -21 17 -34 0 -26 24 -55 46 -55 8 0 23 -9 35 -21 l20 -20 26 25 c14 14 29 26 33 26 4 0 28 27 54 60 26 33 54 60 62 60 7 0 36 21 62 47 53 52 133 122 190 166 47 36 89 36 104 0 32 -79 63 -135 75 -140 7 -3 13 -11 13 -18 0 -8 19 -16 48 -20 26 -4 55 -14 65 -23 17 -15 22 -15 66 1 67 23 101 23 101 -3 0 -34 56 -88 104 -98 46 -10 141 4 167 24 8 6 36 23 64 39 27 16 88 65 136 110 47 45 106 96 131 113 25 17 52 42 62 56 23 35 37 33 72 -13 20 -28 39 -42 64 -46 18 -4 39 -14 46 -23 10 -14 33 -16 150 -15 127 1 143 3 184 25 37 20 46 30 48 56 5 54 -27 66 -195 71 l-143 3 -25 32 c-14 17 -41 51 -58 76 -32 44 -34 45 -100 50 -61 5 -69 8 -87 35 -11 17 -20 36 -20 44 0 8 -15 37 -34 65 -56 84 -152 118 -230 81 -76 -36 -250 -256 -304 -385 -26 -61 -28 -68 -37 -122 l-6 -38 -59 0 c-53 0 -61 3 -75 25 -8 14 -23 37 -32 53 -10 15 -20 47 -23 71 -4 38 -12 50 -54 85 l-48 41 -79 -3 c-43 -1 -91 -9 -106 -17 -15 -8 -33 -15 -39 -15 -6 0 -21 -11 -34 -25 -14 -15 -35 -25 -52 -25 -32 0 -33 1 -13 55 20 55 20 55 -25 105 l-40 45 -81 4 c-68 3 -84 0 -102 -16 -23 -21 -74 -55 -94 -63 -6 -3 -77 -69 -157 -147 -104 -103 -152 -143 -169 -143 -31 0 -63 36 -72 80 -4 19 -21 48 -38 64 -26 24 -36 27 -67 22 -24 -4 -43 -1 -56 8 -17 13 -22 11 -46 -17 -16 -17 -28 -35 -28 -40 0 -15 -232 -247 -279 -278 -30 -20 -57 -29 -84 -29 l-39 0 4 58 c3 31 15 77 27 102 12 25 36 72 52 104 28 56 31 70 36 203 7 162 3 173 -58 173 -21 0 -41 5 -44 10 -8 14 -47 12 -65 -3 -44 -35 -150 -326 -150 -412 0 -59 -69 -155 -111 -155 -11 0 -28 -9 -39 -20 -24 -24 -77 -26 -101 -4 -11 10 -35 16 -61 16 -59 -1 -172 61 -213 116 -54 73 -75 113 -75 140 0 25 13 34 156 106 148 75 160 83 257 180 56 56 134 139 174 186 73 86 213 273 213 284 0 3 15 29 34 58 63 100 182 343 213 438 56 168 73 246 102 470 10 71 4 168 -11 187 -6 7 -12 41 -15 75 -11 124 -96 230 -195 241 -61 8 -116 8 -138 0z m144 -180 l26 -23 0 -227 c0 -175 -3 -230 -13 -242 -8 -9 -21 -46 -30 -83 -9 -37 -30 -101 -47 -143 -16 -42 -30 -82 -30 -89 0 -6 -14 -38 -31 -71 -17 -33 -45 -87 -62 -120 -17 -33 -45 -83 -64 -112 -18 -28 -33 -55 -33 -59 0 -4 -10 -21 -23 -38 -12 -17 -29 -44 -37 -60 -8 -17 -39 -55 -67 -87 -29 -31 -53 -62 -53 -68 0 -25 -235 -252 -314 -304 -124 -82 -129 -85 -178 -92 -42 -6 -46 -5 -51 17 -4 12 -7 79 -7 148 -1 70 -7 156 -16 195 -8 39 -18 116 -23 173 -6 71 -14 108 -25 121 -37 41 -19 86 136 331 175 277 243 365 422 543 140 139 244 217 371 281 94 46 105 47 149 9z m-1678 -194 c63 -28 163 -107 197 -156 15 -21 38 -68 53 -103 14 -36 29 -69 34 -75 4 -5 11 -28 15 -50 6 -36 27 -110 57 -205 7 -19 17 -71 24 -115 6 -44 17 -93 24 -110 11 -27 9 -37 -28 -115 -23 -47 -62 -123 -88 -170 -67 -120 -184 -358 -184 -374 0 -22 -75 -90 -112 -101 -12 -4 -59 -44 -104 -89 -239 -242 -362 -333 -482 -356 -26 -5 -89 -7 -140 -4 -81 3 -99 8 -150 36 -76 43 -130 99 -183 189 -57 96 -57 97 -81 209 -17 83 -18 104 -8 175 7 44 16 136 20 205 9 136 50 301 108 437 72 169 293 448 415 524 29 18 70 47 92 64 60 47 229 147 299 176 79 34 155 37 222 8z m478 -1334 c9 -32 16 -93 16 -135 0 -73 -1 -77 -35 -109 -48 -45 -47 -82 3 -147 l37 -49 3 -194 c2 -106 -2 -232 -8 -280 -6 -47 -18 -147 -26 -221 -15 -141 -54 -390 -75 -475 -30 -125 -52 -201 -61 -212 -5 -6 -24 -15 -41 -19 -18 -3 -36 -10 -42 -14 -5 -4 -54 -30 -108 -59 -97 -51 -271 -153 -328 -192 -16 -10 -42 -28 -59 -39 -52 -35 -54 -32 -47 108 12 250 88 665 157 852 15 41 48 134 74 205 26 72 65 177 87 235 22 58 50 130 61 160 32 84 184 432 238 545 26 55 60 129 75 165 43 104 49 105 56 14 4 -43 14 -106 23 -139z m3548 -334 c13 -15 35 -36 51 -46 49 -31 35 -54 -88 -145 -25 -19 -89 -72 -140 -117 -88 -78 -125 -99 -125 -70 0 17 34 124 55 172 17 41 98 146 155 203 39 40 62 40 92 3z m-3752 -1720 c0 -35 -98 -334 -140 -426 -40 -89 -70 -159 -70 -166 0 -17 -90 -197 -105 -209 -8 -7 -15 -17 -15 -23 0 -6 -10 -21 -22 -34 -21 -23 -53 -29 -74 -15 -22 14 -61 108 -68 162 -4 30 -14 74 -22 98 -8 26 -14 82 -14 142 0 59 -5 108 -12 119 -17 27 -4 47 54 85 29 19 85 57 123 85 62 44 148 96 280 168 41 22 85 30 85 14z" transform="translate(0.000000,682.000000) scale(0.100000,-0.100000)"/><path d="M4558 6000 c-54 -10 -111 -62 -146 -135 -116 -235 -132 -296 -91 -361 28 -46 204 -202 269 -239 29 -16 69 -40 89 -52 45 -28 78 -43 96 -43 7 0 15 -7 19 -15 3 -8 16 -15 28 -15 13 0 50 -14 83 -30 73 -37 141 -40 212 -9 26 12 73 27 103 35 99 27 254 125 325 206 60 69 77 118 83 240 7 152 2 168 -70 240 -70 70 -128 99 -214 106 -58 4 -69 2 -146 -36 -116 -58 -179 -102 -197 -139 -25 -52 -45 -42 -86 42 -28 58 -53 89 -103 135 -86 78 -140 93 -254 70z m149 -202 c11 -13 32 -47 46 -75 23 -47 32 -79 54 -186 3 -16 15 -47 28 -70 21 -41 23 -42 88 -51 37 -4 73 -6 81 -3 8 3 17 26 21 54 6 41 16 57 64 106 31 32 97 85 148 118 85 56 95 60 132 54 22 -4 45 -13 52 -21 17 -21 7 -164 -14 -195 -9 -13 -17 -30 -17 -37 0 -43 -144 -162 -196 -162 -10 0 -28 -10 -42 -22 -20 -20 -35 -23 -99 -23 -52 0 -78 -4 -80 -12 -5 -15 -59 -18 -67 -4 -3 4 -23 11 -43 14 -21 4 -63 21 -93 40 -30 18 -71 39 -90 47 -49 19 -142 93 -163 130 -14 23 -17 41 -11 78 15 105 105 242 160 242 11 0 30 -10 41 -22z" transform="translate(0.000000,682.000000) scale(0.100000,-0.100000)"/><path d="M6180 3425 c-7 -8 -18 -15 -26 -15 -18 0 -74 -56 -109 -109 -16 -24 -39 -48 -51 -53 -21 -10 -51 -77 -108 -242 -28 -83 -71 -130 -153 -169 -32 -16 -76 -37 -98 -48 -22 -10 -52 -19 -66 -19 -15 0 -38 -9 -52 -20 -14 -11 -37 -20 -51 -20 -19 0 -26 5 -26 20 0 11 4 20 9 20 13 0 51 125 58 191 7 71 -16 171 -51 213 -12 16 -38 34 -57 40 -29 10 -38 9 -61 -8 -24 -17 -28 -27 -28 -68 0 -46 -1 -48 -29 -48 -22 0 -44 -16 -100 -72 -39 -40 -71 -76 -71 -81 0 -14 -77 -111 -128 -161 -57 -55 -66 -55 -125 -1 -36 33 -38 37 -32 79 9 59 -2 106 -24 106 -10 0 -28 11 -41 25 -19 20 -33 25 -73 25 -41 0 -50 -3 -54 -21 -9 -35 -53 -21 -77 24 -22 41 -101 114 -153 141 -42 21 -69 20 -93 -4 -11 -11 -23 -20 -26 -20 -15 0 -161 -174 -170 -203 -13 -43 -55 -77 -96 -77 -27 0 -46 -7 -61 -23 -13 -12 -32 -20 -42 -18 -19 3 -123 -24 -223 -60 -30 -10 -65 -19 -79 -19 -24 0 -25 2 -20 38 3 20 13 68 22 107 8 38 15 100 15 136 0 64 -1 68 -34 92 -18 14 -54 36 -79 48 l-45 22 -57 -24 c-32 -13 -60 -32 -62 -41 -8 -28 -36 -21 -102 22 -66 44 -75 44 -120 -4 -30 -32 -24 -61 24 -107 37 -36 45 -72 19 -87 -8 -5 -18 -27 -21 -49 -4 -33 -1 -45 16 -62 11 -11 30 -21 40 -21 11 0 23 -4 26 -10 3 -5 19 -10 34 -10 23 0 36 11 72 60 24 33 49 60 57 60 21 0 24 -24 7 -63 -8 -20 -15 -56 -15 -79 0 -26 -8 -55 -20 -73 -11 -16 -20 -42 -20 -57 0 -21 -11 -35 -47 -60 -26 -18 -58 -37 -71 -43 -12 -5 -48 -31 -80 -58 -31 -26 -91 -74 -132 -106 -81 -64 -550 -524 -550 -540 0 -5 -18 -37 -40 -70 -22 -33 -40 -63 -40 -67 0 -3 -18 -29 -40 -56 -22 -28 -40 -54 -40 -59 0 -5 -16 -34 -36 -65 -19 -30 -41 -70 -47 -87 -6 -18 -22 -52 -37 -77 -58 -100 -121 -246 -154 -355 -6 -22 -17 -49 -23 -60 -6 -11 -16 -43 -22 -70 -5 -28 -17 -75 -25 -105 -9 -30 -16 -84 -16 -120 0 -54 4 -72 23 -98 44 -59 69 -72 139 -72 l63 1 81 77 c158 150 203 190 221 197 40 14 295 333 420 524 52 80 103 157 112 171 10 14 34 59 53 100 45 93 198 404 260 525 49 96 118 265 118 289 0 8 4 18 10 21 5 3 14 23 19 43 10 36 78 122 97 122 5 0 41 16 79 36 80 41 310 134 331 134 11 0 14 -18 14 -75 0 -62 5 -84 26 -125 14 -28 31 -50 36 -50 6 0 16 -7 22 -16 8 -11 34 -18 78 -21 56 -5 74 -2 119 19 66 31 217 150 335 266 24 23 50 42 57 42 7 0 23 -17 35 -37 12 -21 32 -48 44 -59 38 -35 123 -75 143 -68 12 5 22 1 31 -11 10 -13 17 -15 26 -8 7 6 39 18 70 27 31 9 69 27 85 39 15 13 37 27 47 31 17 6 18 3 12 -40 -5 -43 -4 -48 27 -79 45 -45 77 -52 146 -31 31 10 83 23 116 31 33 7 83 21 110 31 114 40 163 59 220 84 33 15 87 39 121 54 l61 27 34 -23 c19 -13 48 -35 64 -50 49 -45 78 -53 164 -41 198 27 380 98 445 175 32 37 35 44 21 54 -8 6 -15 19 -15 29 0 16 -7 17 -77 10 -42 -4 -119 -18 -172 -32 -53 -13 -114 -29 -136 -35 -38 -9 -125 -5 -159 8 -26 10 -19 29 42 106 72 91 168 283 178 356 6 49 5 55 -22 83 -30 32 -93 69 -117 69 -8 0 -20 -7 -27 -15z m-1752 -476 c9 -18 27 -41 40 -52 12 -11 22 -27 22 -34 0 -7 -37 -50 -82 -95 -149 -146 -218 -190 -218 -135 0 41 99 229 175 333 17 24 45 16 63 -17z m-1198 -667 c0 -4 -4 -12 -8 -17 -5 -6 -17 -32 -27 -60 -26 -75 -41 -107 -115 -255 -110 -219 -132 -263 -146 -295 -51 -119 -101 -211 -140 -262 -16 -20 -36 -49 -44 -64 -8 -15 -27 -42 -42 -61 -15 -18 -56 -71 -91 -118 -35 -47 -89 -112 -122 -145 -32 -33 -71 -78 -87 -100 -51 -70 -259 -275 -279 -275 -23 0 -25 31 -5 63 8 12 17 47 21 77 4 30 27 107 51 170 108 279 238 517 372 676 34 41 62 79 62 84 0 14 130 172 209 253 42 44 117 112 166 152 50 40 115 98 145 129 50 51 80 68 80 48z" transform="translate(0.000000,682.000000) scale(0.100000,-0.100000)"/></g></svg>