<?xml version="1.0" standalone="no"?>
<!DOCTYPE svg PUBLIC "-//W3C//DTD SVG 20010904//EN"
 "http://www.w3.org/TR/2001/REC-SVG-20010904/DTD/svg10.dtd">
<svg version="1.0" xmlns="http://www.w3.org/2000/svg"
 width="1001.000000pt" height="1001.000000pt" viewBox="0 0 1001.000000 1001.000000"
 preserveAspectRatio="xMidYMid meet">

<g transform="translate(0.000000,1001.000000) scale(0.100000,-0.100000)"
fill="#000000" stroke="none">
<path d="M3140 8493 c-76 -16 -234 -91 -295 -140 -50 -40 -285 -276 -285 -286
0 -5 -8 -21 -18 -35 -31 -44 -55 -114 -42 -122 23 -15 -4 -38 -63 -54 -34 -9
-84 -23 -112 -31 -46 -12 -110 -36 -207 -79 -49 -21 -69 -20 -75 3 -2 10 -19
24 -36 32 -31 13 -32 17 -33 74 0 33 -6 89 -13 125 -10 54 -19 72 -53 107 -27
27 -55 45 -87 53 -25 7 -50 17 -56 21 -14 14 -70 10 -101 -6 -16 -8 -41 -15
-56 -15 -17 0 -33 -8 -40 -20 -7 -11 -17 -20 -21 -20 -17 0 -138 -135 -172
-190 -75 -125 -129 -238 -170 -363 -24 -72 -40 -137 -37 -143 12 -21 85 -75
135 -101 49 -25 64 -23 89 12 9 13 0 45 -19 67 -24 27 -14 178 17 253 35 86
136 253 178 298 50 51 111 86 167 94 60 8 65 1 65 -109 0 -63 4 -89 14 -95 7
-4 25 -26 40 -47 20 -29 26 -51 26 -90 l0 -51 -58 -33 c-163 -93 -256 -160
-362 -259 -138 -129 -304 -296 -382 -384 -31 -35 -86 -94 -122 -131 -35 -36
-67 -76 -71 -87 -3 -12 -20 -36 -37 -54 -31 -33 -88 -112 -88 -121 0 -3 -10
-16 -22 -29 -28 -30 -154 -245 -226 -387 -121 -236 -218 -505 -253 -698 -18
-97 -20 -142 -16 -267 6 -178 22 -247 95 -399 101 -212 216 -356 422 -533 159
-136 494 -313 593 -313 24 0 47 -4 53 -9 15 -14 145 -31 242 -31 71 0 91 -3
96 -15 4 -12 28 -15 128 -15 68 0 132 0 143 -1 53 -3 241 14 249 22 13 12 381
11 471 -2 39 -5 119 -13 178 -18 70 -6 114 -14 125 -24 9 -8 33 -17 52 -21 19
-3 61 -27 93 -52 l59 -46 -4 -126 c-4 -103 -9 -136 -26 -173 -12 -26 -29 -52
-37 -59 -8 -7 -15 -21 -15 -31 0 -10 -18 -37 -40 -61 -22 -24 -40 -48 -40 -54
0 -29 -275 -281 -353 -325 -135 -75 -262 -119 -343 -119 -53 0 -63 3 -87 28
-15 15 -27 33 -27 39 0 20 -17 24 -44 12 -22 -10 -26 -19 -26 -52 0 -35 6 -46
43 -81 63 -61 160 -82 257 -56 19 5 55 14 80 21 70 18 116 38 235 103 98 53
124 74 241 190 72 72 144 151 159 176 15 25 46 65 69 90 23 25 49 65 60 90 10
25 24 59 32 75 19 41 35 179 28 240 -8 62 -41 112 -108 164 -59 45 -181 104
-246 120 -25 5 -63 15 -85 20 -58 15 -251 32 -395 34 -69 1 -133 6 -142 10 -9
5 -25 4 -37 -2 -13 -7 -22 -8 -26 -1 -10 15 -42 12 -49 -5 -5 -14 -9 -14 -35
0 -38 19 -77 19 -85 0 -7 -20 -30 -19 -47 1 -12 14 -14 14 -26 -2 -12 -17 -29
-18 -176 -16 -89 1 -193 6 -232 11 -199 25 -321 45 -326 54 -4 5 -28 11 -54
13 -96 7 -309 113 -401 200 -17 16 -57 51 -90 78 -97 82 -198 179 -214 207 -8
15 -36 56 -62 90 -100 137 -162 302 -177 473 -5 59 -8 113 -6 120 3 6 9 61 14
121 18 212 157 616 283 825 130 215 226 356 338 495 31 39 63 81 70 94 11 22
66 82 291 317 79 82 206 196 254 227 22 14 72 55 110 91 99 94 135 99 135 22
0 -45 46 -152 77 -178 16 -13 96 -15 133 -3 21 7 42 58 34 80 -4 8 -2 15 3 15
10 0 36 50 30 57 -2 2 -16 -1 -31 -7 -15 -5 -41 -10 -57 -10 l-29 0 0 104 0
104 64 27 c93 40 96 37 96 -93 l0 -108 48 -47 c76 -75 118 -66 193 43 22 33
54 107 66 159 6 23 4 23 -33 17 -21 -4 -49 -14 -61 -22 -25 -16 -53 -19 -53
-6 0 5 9 17 20 27 16 14 20 31 20 75 0 73 16 89 95 92 l60 3 7 -75 c4 -41 12
-88 17 -105 6 -16 13 -51 17 -77 9 -71 40 -88 89 -50 28 22 30 29 36 110 3 48
15 120 25 159 l19 73 61 0 c43 0 65 -5 74 -15 8 -10 30 -15 62 -15 31 0 55 6
64 15 17 17 61 20 66 5 2 -5 39 -15 83 -21 179 -26 438 -161 596 -311 149
-141 309 -351 309 -407 0 -15 5 -32 11 -38 7 -7 21 -36 33 -65 14 -36 30 -57
48 -66 l28 -13 -4 -1607 c-1 -884 -6 -1614 -9 -1622 -3 -8 -8 -42 -11 -75 -2
-33 -8 -83 -11 -111 -5 -35 -2 -69 11 -115 9 -35 19 -83 22 -107 3 -37 10 -48
43 -72 21 -15 55 -31 75 -34 31 -6 38 -4 57 21 44 55 65 179 47 286 -7 47 -7
73 0 87 6 11 15 70 21 132 5 62 16 147 24 188 7 41 17 102 20 135 10 91 61
350 95 485 5 20 16 69 25 110 19 95 40 173 54 199 6 11 16 44 21 73 5 29 16
69 24 88 8 19 27 80 42 135 25 93 69 213 113 310 10 22 21 48 24 57 9 25 37
11 37 -18 0 -14 9 -57 20 -97 36 -132 87 -397 88 -455 1 -12 10 -91 22 -174
12 -83 25 -228 29 -322 12 -247 45 -409 91 -451 17 -15 102 -45 132 -45 45 0
110 89 134 185 32 130 71 261 99 335 7 19 20 55 28 80 34 102 56 158 84 220
17 36 36 77 42 93 11 28 49 38 55 15 44 -167 88 -274 147 -363 55 -82 78 -103
145 -136 34 -16 57 -20 95 -17 85 8 95 26 168 293 80 288 259 695 346 789 38
41 50 48 63 39 17 -10 88 -126 149 -242 18 -36 37 -69 42 -75 5 -6 19 -42 32
-81 20 -62 24 -96 28 -306 4 -153 10 -241 17 -250 7 -8 15 -28 18 -45 14 -62
96 -124 166 -124 31 0 58 30 94 106 21 42 53 98 72 124 19 26 34 51 34 56 0 5
11 22 24 39 l24 30 16 -39 c9 -21 16 -41 16 -45 1 -10 45 -55 79 -79 46 -33
175 -35 243 -4 26 12 50 22 53 22 14 0 152 100 181 131 18 19 48 60 68 91 20
31 40 59 46 63 5 3 10 12 10 20 0 15 55 101 71 110 5 4 9 15 9 25 0 10 16 42
35 71 19 29 39 77 46 108 6 31 16 64 21 75 6 10 18 74 28 142 10 68 21 127 24
133 3 5 -1 16 -10 25 -13 14 -13 19 -1 36 23 33 113 124 408 413 365 357 438
427 447 427 26 0 122 133 122 168 0 10 9 25 20 35 21 17 27 37 12 37 -5 0 -17
-9 -27 -20 -10 -11 -26 -20 -35 -20 -9 0 -37 -15 -61 -33 -24 -19 -59 -42 -76
-52 -18 -11 -33 -23 -33 -27 0 -4 -6 -8 -13 -8 -6 0 -27 -16 -45 -36 -33 -36
-33 -36 -67 -20 -18 9 -38 16 -44 16 -6 0 -28 9 -48 20 -21 11 -43 20 -50 20
-24 0 -13 21 44 80 59 63 76 96 99 195 26 116 -10 187 -102 201 -77 11 -226 0
-254 -19 -13 -9 -32 -17 -41 -17 -42 0 -106 -100 -94 -147 8 -32 33 -53 63
-53 34 0 105 33 144 65 16 14 36 25 44 25 9 0 22 7 30 15 9 8 27 15 40 15 23
0 24 -2 18 -37 -11 -66 -46 -136 -101 -205 -30 -38 -58 -68 -63 -68 -18 0 -78
-61 -84 -85 -7 -28 11 -70 42 -98 29 -26 78 -30 161 -13 51 11 79 12 92 5 26
-13 24 -44 -3 -56 -22 -10 -168 -140 -233 -207 -16 -17 -55 -51 -85 -76 -30
-24 -87 -73 -126 -109 -102 -95 -181 -161 -192 -161 -6 0 -29 22 -52 50 -31
37 -51 51 -78 56 -20 4 -50 15 -67 26 -23 14 -50 18 -124 18 l-94 0 -51 -44
c-75 -64 -189 -183 -205 -214 -8 -14 -20 -69 -26 -122 -14 -106 -31 -182 -50
-220 -7 -14 -16 -41 -19 -60 -14 -72 -115 -281 -231 -478 -5 -10 -20 -32 -32
-49 -13 -17 -23 -37 -23 -45 0 -15 -19 -38 -31 -38 -4 0 -8 51 -8 114 -1 116
-5 143 -27 161 -7 6 -14 37 -16 70 -4 51 -17 86 -86 225 -110 221 -120 238
-175 307 -54 68 -130 113 -188 113 -59 0 -129 -58 -177 -148 -15 -27 -46 -84
-70 -125 -67 -119 -160 -339 -217 -512 -7 -22 -18 -51 -23 -65 -6 -14 -23 -56
-37 -95 -58 -156 -66 -165 -103 -125 -26 28 -80 137 -91 185 -41 169 -115 297
-191 327 -25 10 -117 3 -135 -10 -12 -8 -33 -45 -75 -132 -18 -36 -38 -76 -45
-90 -7 -14 -25 -63 -40 -110 -25 -79 -57 -168 -76 -215 -13 -31 -50 -136 -61
-175 -13 -45 -48 -113 -61 -122 -21 -13 -27 4 -28 75 0 40 -4 104 -9 142 -5
39 -14 129 -20 200 -6 72 -18 171 -25 220 -8 50 -19 142 -25 205 -5 63 -17
140 -25 170 -8 30 -15 80 -15 112 0 40 -10 82 -34 147 -19 49 -40 107 -45 128
-16 58 -58 98 -120 113 -48 11 -55 11 -79 -7 -15 -11 -31 -33 -37 -49 -5 -16
-16 -35 -22 -42 -7 -7 -16 -25 -20 -40 -3 -15 -10 -30 -15 -33 -9 -6 -43 -90
-64 -159 -18 -60 -43 -135 -64 -190 -21 -53 -57 -172 -65 -215 -4 -16 -12 -46
-20 -65 -25 -66 -53 -165 -60 -210 -3 -25 -12 -54 -19 -65 -8 -11 -17 -53 -21
-93 -4 -40 -13 -78 -20 -85 -7 -7 -16 -46 -19 -87 -4 -41 -19 -102 -32 -135
l-24 -60 5 70 c3 39 7 813 10 1720 3 970 10 1664 15 1685 11 42 30 244 30 324
0 43 5 64 20 83 36 46 18 129 -35 171 -21 17 -41 22 -85 22 l-57 0 -6 -92 c-4
-51 -14 -169 -22 -263 -8 -100 -15 -288 -15 -457 0 -226 -3 -286 -12 -282 -7
3 -47 58 -88 122 -55 85 -108 150 -195 239 -66 67 -131 127 -145 133 -14 5
-54 31 -90 56 -102 71 -343 184 -447 209 -40 10 -73 22 -73 28 0 5 29 36 64
69 36 32 75 75 87 96 13 20 34 51 47 67 41 49 92 165 92 209 0 28 -10 54 -36
92 -19 30 -40 54 -46 54 -6 0 -20 7 -30 16 -18 18 -137 28 -188 17z m104 -170
c-4 -28 -23 -71 -45 -107 -21 -34 -39 -67 -39 -74 0 -7 -19 -37 -42 -66 -24
-28 -61 -80 -83 -114 l-40 -61 -158 -1 c-185 0 -186 1 -141 88 28 54 226 272
247 272 5 0 41 18 80 40 69 40 148 67 200 69 28 1 28 1 21 -46z m4854 -2699
c28 -31 52 -60 52 -63 0 -3 -42 -34 -92 -68 -144 -96 -253 -128 -219 -64 7 12
16 21 21 21 17 0 11 29 -21 92 l-31 62 28 24 c61 49 96 63 154 58 52 -4 58 -8
108 -62z m62 -316 c-1 -18 -8 -51 -16 -73 -8 -22 -20 -56 -25 -75 -14 -50 -73
-175 -160 -340 -56 -106 -247 -256 -316 -248 -44 5 -65 56 -58 143 3 39 10
115 14 170 4 55 15 117 24 137 10 21 17 48 17 60 0 13 9 38 20 56 11 18 20 43
20 57 0 25 24 55 43 55 7 0 31 -7 55 -15 40 -14 84 -12 107 5 6 4 37 14 70 23
33 8 85 29 115 46 73 41 90 40 90 -1z"/>
<path d="M8015 6851 c-42 -13 -104 -52 -119 -73 -9 -13 -16 -43 -16 -70 0 -45
3 -49 40 -74 22 -15 40 -31 40 -35 0 -24 33 -3 84 52 46 50 61 60 84 57 l27
-3 0 -110 0 -110 -45 -75 c-25 -41 -70 -100 -100 -131 -48 -50 -61 -57 -104
-63 -27 -3 -55 -11 -63 -18 -8 -7 -40 -13 -71 -13 -97 -3 -92 0 -92 -47 0 -53
31 -107 62 -109 13 -1 41 -3 63 -5 24 -2 56 4 80 15 22 11 63 24 90 29 28 6
91 22 140 36 50 14 123 33 163 41 40 8 81 19 90 24 9 5 36 12 59 16 24 4 46
11 49 17 3 5 3 29 -1 54 l-6 44 -47 0 c-26 0 -80 -9 -120 -20 -39 -11 -79 -20
-87 -20 -18 0 -20 34 -2 52 7 7 33 51 57 98 l45 85 0 127 c0 126 0 127 -29
156 -49 52 -119 82 -189 81 -34 -1 -71 -4 -82 -8z"/>
<path d="M2873 6769 c-18 -5 -35 -14 -38 -19 -3 -6 -14 -10 -24 -10 -46 0
-211 -155 -211 -199 0 -9 13 -28 29 -44 23 -21 39 -27 74 -27 42 0 47 3 86 55
53 69 111 110 146 101 24 -6 25 -9 25 -87 0 -79 -22 -156 -55 -199 -26 -33
-58 -100 -51 -107 14 -14 172 -9 189 5 31 26 107 280 107 357 0 45 -34 91 -92
128 -86 55 -123 64 -185 46z"/>
<path d="M2063 6530 c-13 -5 -23 -14 -23 -20 0 -5 -12 -10 -26 -10 -17 0 -44
-17 -83 -54 -31 -30 -68 -59 -83 -65 -36 -13 -166 -201 -167 -241 -1 -17 53
-100 72 -112 14 -9 49 0 60 16 4 6 12 30 18 54 6 23 16 42 21 42 5 0 16 16 24
36 32 77 195 204 260 204 26 0 35 -6 48 -34 9 -19 16 -48 16 -65 0 -17 9 -45
20 -63 31 -51 26 -92 -17 -145 -33 -41 -38 -53 -41 -112 -4 -60 -1 -70 21 -97
29 -34 95 -69 151 -80 39 -7 39 -6 121 81 79 82 85 87 115 80 17 -4 43 -13 58
-21 68 -35 136 -22 210 40 37 32 79 99 84 135 4 34 -42 47 -71 20 -11 -10 -29
-19 -39 -19 -11 0 -31 -9 -45 -20 -14 -11 -39 -20 -56 -20 -28 0 -31 3 -31 30
0 17 9 49 21 71 l20 40 -31 50 c-18 27 -38 49 -46 49 -8 0 -23 5 -33 12 -15 9
-26 9 -44 1 -30 -14 -87 -110 -87 -147 0 -20 -5 -26 -23 -26 -35 0 -97 86 -97
135 0 21 -9 52 -19 69 -10 17 -22 45 -26 63 -5 25 -20 41 -66 72 -83 55 -138
70 -186 51z"/>
<path d="M5588 5745 c-24 -14 -28 -22 -28 -63 0 -71 66 -219 125 -282 18 -19
36 -45 40 -58 3 -12 21 -30 38 -38 18 -9 48 -30 68 -45 41 -32 110 -39 142
-15 24 19 21 33 -10 53 -104 64 -163 145 -163 222 0 22 -4 50 -9 63 -5 13 -17
49 -26 80 -19 65 -27 74 -75 81 -19 3 -44 8 -55 11 -11 3 -32 -1 -47 -9z"/>
<path d="M9168 5611 c-20 -4 -43 -12 -50 -18 -7 -6 -31 -14 -52 -18 -78 -13
-186 -84 -186 -120 0 -9 -15 -32 -34 -50 -21 -20 -39 -50 -46 -77 -6 -24 -17
-55 -25 -70 -21 -37 -19 -49 16 -85 24 -26 38 -33 69 -33 45 0 65 22 76 81 11
56 28 80 116 165 80 78 85 81 131 82 27 1 62 8 79 17 71 35 159 4 178 -63 23
-84 4 -324 -35 -442 -36 -107 -91 -220 -120 -245 -13 -11 -36 -42 -51 -70 -37
-70 -128 -206 -160 -240 -15 -16 -56 -72 -92 -124 -36 -53 -88 -125 -116 -161
-58 -74 -114 -150 -166 -226 -19 -29 -62 -89 -95 -134 -33 -45 -75 -102 -92
-128 -32 -46 -78 -109 -151 -207 -21 -27 -49 -68 -62 -90 -13 -22 -27 -42 -32
-45 -4 -3 -21 -33 -38 -65 -29 -59 -39 -105 -21 -105 25 0 209 216 473 555
132 170 161 206 216 269 29 34 69 85 90 114 20 29 67 89 103 135 36 45 79 102
96 127 17 25 41 54 53 65 28 24 160 225 160 242 0 7 4 13 10 13 5 0 18 17 28
38 10 20 23 46 29 57 5 11 19 40 30 65 12 25 30 66 42 91 12 25 21 55 21 65 0
11 6 28 14 39 7 11 21 56 30 100 10 44 22 100 27 125 12 57 4 119 -27 195 -30
74 -63 108 -139 148 -54 28 -70 31 -160 33 -55 2 -117 -1 -137 -5z m-708
-2125 c0 -2 -8 -10 -17 -17 -16 -13 -17 -12 -4 4 13 16 21 21 21 13z m-110
-146 c-11 -16 -26 -33 -33 -36 -7 -4 -3 2 7 14 11 12 15 22 10 22 -8 1 25 30
34 30 2 0 -6 -13 -18 -30z"/>
<path d="M2800 5313 c-39 -36 -73 -78 -77 -92 -3 -14 -14 -37 -25 -50 -24 -31
-23 -52 6 -114 32 -70 58 -97 141 -148 66 -41 75 -44 155 -47 119 -5 189 10
308 69 110 53 193 121 156 127 -11 2 -78 -15 -149 -37 -105 -31 -153 -40 -246
-46 -76 -4 -124 -3 -137 4 -51 27 -69 148 -30 204 41 62 71 87 100 87 27 0 28
1 28 55 l0 55 -80 0 -80 0 -70 -67z"/>
<path d="M2283 5315 c-71 -23 -243 -101 -243 -111 0 -3 39 -67 57 -93 13 -19
146 22 172 53 27 32 164 31 196 -1 11 -11 15 -40 15 -116 0 -84 -4 -108 -20
-135 -11 -18 -20 -44 -20 -59 0 -42 -37 -91 -172 -226 -133 -134 -159 -168
-149 -202 35 -117 177 -110 254 12 17 28 56 87 86 130 68 98 141 240 141 273
0 14 8 39 17 55 11 22 17 62 19 147 l3 116 -71 71 c-43 43 -80 71 -92 71 -12
0 -38 9 -59 20 -44 24 -43 24 -134 -5z"/>
</g>
</svg>
