<svg xmlns="http://www.w3.org/2000/svg" width="784" height="784" preserveAspectRatio="xMidYMid meet" version="1.0" viewBox="0 0 588 588"><g fill="#000" stroke="none"><path d="M3005 5339 c-85 -10 -202 -28 -255 -40 -25 -6 -76 -17 -115 -24 -38 -8 -113 -26 -165 -40 -52 -14 -117 -32 -145 -40 -27 -8 -68 -21 -90 -29 -22 -8 -47 -15 -56 -16 -15 0 -74 -22 -144 -55 -16 -7 -57 -25 -90 -40 -33 -14 -73 -39 -90 -54 -16 -15 -59 -49 -95 -74 -255 -183 -467 -381 -650 -607 -25 -31 -70 -84 -100 -118 -30 -34 -61 -75 -70 -91 -8 -16 -35 -63 -58 -103 -24 -40 -70 -138 -102 -218 -32 -80 -79 -189 -105 -243 -26 -54 -53 -122 -60 -150 -7 -29 -27 -105 -44 -171 -17 -65 -31 -142 -31 -171 0 -30 -5 -66 -11 -82 -15 -37 -15 -168 -1 -185 7 -9 12 -103 15 -278 2 -146 9 -287 15 -315 23 -109 108 -342 138 -375 12 -14 44 -59 71 -100 27 -41 74 -112 104 -157 30 -46 58 -83 62 -83 5 0 22 -14 38 -31 28 -30 28 -32 13 -60 -21 -42 -10 -67 32 -75 20 -4 38 -13 41 -20 8 -22 43 -17 43 6 0 11 -7 20 -15 20 -8 0 -15 5 -15 10 0 6 2 10 5 10 11 0 50 -26 69 -47 12 -12 75 -52 141 -88 66 -37 127 -70 135 -75 133 -79 352 -190 374 -190 3 0 41 -16 83 -36 127 -58 135 -61 213 -90 41 -15 82 -33 90 -40 9 -7 40 -16 70 -19 29 -4 62 -10 71 -16 48 -25 203 -69 246 -69 27 0 58 -7 70 -15 18 -13 35 -14 105 -4 46 6 179 14 297 19 177 7 216 11 223 23 5 9 29 19 56 23 26 3 54 12 62 19 26 21 82 26 114 10 21 -11 32 -12 42 -4 8 6 25 8 38 5 55 -14 210 48 521 206 102 52 307 186 453 295 146 111 565 536 638 648 27 42 61 91 75 108 71 87 175 314 259 567 40 120 54 177 60 250 11 131 3 344 -16 410 -17 61 -34 122 -63 220 -10 36 -52 142 -93 235 -41 94 -85 196 -97 227 -35 89 -167 333 -237 439 -67 102 -174 223 -246 277 -24 18 -71 54 -104 80 -34 26 -101 72 -149 102 -48 30 -108 73 -134 96 -73 64 -447 237 -606 279 -27 8 -70 21 -95 29 -91 32 -184 56 -214 56 -17 1 -49 8 -71 16 -22 8 -69 17 -105 20 -36 3 -103 12 -150 20 -119 20 -128 21 -195 13z m70 -199 c14 -5 89 -15 168 -21 85 -7 154 -18 172 -27 16 -8 53 -14 82 -14 58 0 283 -70 410 -129 95 -44 137 -63 220 -98 169 -73 508 -301 639 -430 68 -66 210 -272 269 -389 80 -158 203 -453 257 -617 52 -159 74 -362 57 -530 -21 -218 -128 -510 -287 -790 -53 -92 -99 -152 -197 -251 -38 -39 -99 -104 -135 -144 -94 -106 -261 -270 -275 -270 -6 0 -28 -18 -49 -39 -21 -21 -50 -41 -65 -44 -14 -3 -49 -27 -76 -53 -56 -53 -151 -117 -246 -166 -35 -18 -84 -47 -109 -63 -77 -53 -122 -72 -128 -56 -2 7 -17 27 -31 43 l-27 30 -58 -13 c-32 -7 -74 -24 -95 -39 -20 -14 -72 -44 -116 -65 -44 -21 -81 -42 -83 -46 -2 -5 -22 -9 -45 -9 -23 0 -48 -7 -58 -16 -12 -10 -51 -18 -125 -24 -60 -5 -170 -16 -244 -24 -169 -19 -303 -16 -328 7 -12 11 -36 17 -68 17 -30 0 -64 8 -87 20 -20 11 -49 20 -63 20 -14 0 -38 6 -52 14 -15 8 -56 24 -92 36 -36 12 -105 41 -155 65 -49 24 -139 64 -198 89 -97 42 -173 80 -322 160 -55 29 -212 143 -234 170 -19 22 -11 37 85 168 162 220 284 396 349 503 36 61 77 124 89 140 12 17 40 62 61 100 75 135 226 380 259 420 18 22 36 50 40 63 9 28 30 28 49 -1 15 -24 37 -160 37 -237 0 -25 5 -51 12 -58 7 -7 12 -76 14 -209 4 -238 12 -366 24 -396 5 -12 14 -76 19 -142 5 -66 18 -152 27 -192 17 -68 17 -73 1 -91 -15 -16 -15 -21 -4 -31 8 -6 17 -34 19 -61 3 -28 8 -53 11 -57 4 -3 38 -6 76 -7 90 -1 107 12 105 88 -1 29 -7 64 -14 77 -8 14 -16 83 -21 169 -3 80 -14 168 -22 195 -11 35 -17 114 -20 265 -3 130 -12 248 -21 300 -9 47 -16 106 -16 133 0 68 8 67 141 -33 26 -19 77 -53 114 -75 90 -54 181 -123 232 -178 49 -50 110 -74 164 -62 49 10 59 22 59 67 0 36 -7 46 -58 97 -32 32 -78 67 -102 80 -24 12 -60 37 -81 54 -20 18 -68 47 -106 66 -70 36 -217 146 -311 234 -34 33 -55 62 -61 86 -14 56 -33 270 -29 331 l3 55 40 8 c22 5 55 15 73 23 18 8 42 14 53 14 12 0 71 17 133 39 103 36 125 39 260 46 105 5 149 11 152 20 3 7 15 15 26 18 46 13 -9 126 -74 152 -42 17 -142 8 -233 -19 -27 -9 -63 -16 -80 -16 -16 0 -42 -7 -57 -14 -16 -8 -49 -18 -75 -22 -27 -4 -77 -15 -113 -25 -114 -33 -110 -37 -110 94 0 61 -5 139 -10 172 -5 33 -16 110 -25 170 -8 61 -23 125 -32 142 -19 38 -46 46 -143 41 l-65 -3 -3 -59 c-2 -36 3 -79 13 -108 8 -27 20 -97 26 -156 5 -59 14 -133 20 -164 5 -32 10 -77 10 -100 -1 -24 0 -63 2 -86 2 -41 0 -45 -33 -62 -19 -11 -62 -29 -95 -40 -33 -12 -77 -30 -97 -41 -20 -10 -42 -19 -48 -19 -5 0 -29 -8 -53 -19 -70 -30 -139 -58 -207 -85 -78 -30 -429 -186 -485 -215 -22 -12 -67 -32 -100 -45 -33 -13 -69 -35 -79 -49 -18 -24 -18 -27 -2 -61 9 -20 21 -36 27 -36 5 0 37 -18 71 -41 l61 -40 42 28 c24 15 74 48 111 73 38 25 92 58 119 72 28 14 64 33 80 42 37 19 77 37 275 122 85 36 179 77 209 90 29 13 62 24 72 24 23 0 26 -32 4 -50 -8 -6 -34 -51 -59 -98 -45 -89 -132 -243 -192 -342 -19 -30 -41 -71 -50 -90 -9 -19 -24 -44 -35 -55 -10 -12 -46 -72 -80 -135 -34 -63 -74 -133 -89 -155 -15 -22 -43 -69 -64 -105 -44 -78 -183 -278 -286 -414 -41 -54 -79 -107 -85 -117 -5 -10 -15 -19 -22 -19 -11 0 -103 111 -103 125 0 4 -15 25 -34 48 -18 23 -40 56 -48 72 -9 17 -36 70 -61 119 -70 137 -94 254 -103 501 -14 416 -6 596 30 694 9 24 16 54 16 67 0 13 4 33 10 46 5 13 35 88 66 168 31 80 62 156 69 170 31 62 90 191 117 260 34 85 99 200 124 221 9 7 76 84 147 169 195 231 439 461 533 502 16 7 51 29 78 50 27 21 56 38 66 38 9 0 24 8 34 19 15 17 33 26 141 71 58 24 134 50 179 61 22 5 51 16 65 24 14 8 51 18 81 24 30 5 80 16 110 25 30 9 71 16 91 16 20 0 42 6 48 14 8 10 46 17 121 21 73 5 113 12 121 21 14 17 20 17 54 4z" transform="translate(0.000000,588.000000) scale(0.100000,-0.100000)"/><path d="M2239 4743 c-21 -5 -46 -50 -54 -98 -13 -71 -94 -202 -181 -295 -23 -25 -65 -74 -93 -110 -49 -63 -75 -97 -200 -265 -33 -44 -85 -120 -115 -169 -66 -104 -71 -141 -29 -181 15 -14 30 -25 33 -25 22 2 88 52 99 75 8 16 23 38 34 50 10 11 41 52 67 90 26 39 71 93 100 120 29 28 81 88 118 135 36 47 92 113 125 147 33 33 95 112 138 175 200 287 200 285 117 322 -52 23 -128 37 -159 29z" transform="translate(0.000000,588.000000) scale(0.100000,-0.100000)"/><path d="M3865 3568 c-69 -20 -212 -69 -270 -92 -47 -19 -165 -99 -220 -150 -27 -25 -52 -45 -56 -44 -4 2 -22 23 -41 48 -40 53 -84 72 -151 65 -66 -8 -74 -12 -88 -48 -15 -41 -13 -51 21 -99 16 -22 32 -57 36 -77 4 -20 15 -50 25 -67 12 -20 19 -50 19 -81 0 -35 6 -58 20 -76 15 -18 20 -41 20 -84 0 -33 14 -106 31 -168 16 -60 34 -126 39 -145 5 -19 10 -58 10 -86 0 -28 7 -73 15 -100 8 -27 19 -100 24 -161 6 -61 17 -128 26 -148 8 -21 15 -67 15 -104 l0 -67 50 -22 c61 -27 79 -27 150 -2 30 11 67 19 81 20 15 0 29 6 32 13 3 7 23 19 46 26 23 6 41 16 41 21 0 6 12 10 28 10 15 1 45 8 67 16 22 8 76 21 120 29 148 26 316 63 323 70 4 4 12 41 18 84 8 59 19 90 46 132 19 30 49 81 67 114 18 33 68 123 111 200 77 136 112 213 143 305 8 25 27 77 42 115 47 122 65 206 72 326 l6 116 -39 27 c-21 14 -46 26 -54 26 -9 0 -25 7 -37 15 -14 10 -60 17 -140 21 -65 4 -136 13 -158 21 -28 10 -99 15 -230 18 -168 3 -198 1 -260 -17z m515 -185 c14 -3 29 -5 33 -4 12 2 141 -30 149 -38 8 -7 -24 -145 -47 -201 -7 -19 -28 -80 -45 -135 -42 -130 -53 -159 -66 -176 -6 -8 -15 -25 -19 -39 -4 -14 -13 -32 -20 -40 -16 -21 -65 -117 -65 -130 0 -6 -18 -39 -40 -74 -22 -34 -73 -128 -114 -207 l-74 -144 -101 -6 c-55 -4 -107 -11 -114 -17 -7 -6 -41 -15 -76 -21 -35 -6 -69 -15 -77 -22 -8 -6 -36 -16 -62 -20 -26 -5 -53 -17 -60 -26 -16 -23 -46 -6 -50 28 -2 13 -8 29 -14 36 -5 7 -14 56 -18 110 -5 54 -16 118 -24 142 -9 24 -16 67 -16 95 0 28 -7 80 -16 116 -8 36 -20 105 -25 155 -6 49 -15 95 -21 102 -6 7 -13 42 -16 78 l-5 66 87 92 c48 51 95 101 105 112 28 30 100 79 151 103 52 24 183 68 220 74 41 6 413 -1 440 -9z" transform="translate(0.000000,588.000000) scale(0.100000,-0.100000)"/></g></svg>