<?xml version="1.0" standalone="no"?>
<!DOCTYPE svg PUBLIC "-//W3C//DTD SVG 20010904//EN"
 "http://www.w3.org/TR/2001/REC-SVG-20010904/DTD/svg10.dtd">
<svg version="1.0" xmlns="http://www.w3.org/2000/svg"
 width="774.000000pt" height="774.000000pt" viewBox="0 0 774.000000 774.000000"
 preserveAspectRatio="xMidYMid meet">

<g transform="translate(0.000000,774.000000) scale(0.100000,-0.100000)"
fill="#000000" stroke="none">
<path d="M3420 7602 c-14 -1 -47 -9 -75 -16 -27 -8 -72 -19 -100 -24 -55 -11
-72 -16 -225 -75 -148 -56 -442 -198 -715 -345 -115 -61 -128 -72 -295 -236
-96 -94 -201 -191 -232 -214 -31 -23 -65 -54 -75 -68 -10 -14 -72 -84 -138
-156 -66 -71 -140 -162 -165 -201 -25 -40 -66 -100 -91 -132 -87 -114 -179
-265 -179 -295 0 -6 -22 -57 -49 -113 -27 -56 -58 -129 -69 -162 -30 -91 -43
-125 -74 -190 -36 -76 -65 -162 -84 -244 -8 -36 -21 -84 -29 -108 -8 -24 -15
-66 -15 -93 0 -36 -5 -52 -17 -59 -14 -8 -18 -32 -23 -163 -11 -326 0 -778 20
-803 5 -6 14 -50 20 -98 6 -48 14 -97 19 -110 5 -12 12 -47 15 -77 12 -94 47
-271 69 -350 20 -72 117 -286 173 -380 15 -25 35 -58 44 -75 44 -77 87 -144
117 -181 18 -23 33 -47 33 -53 0 -20 209 -229 264 -263 28 -17 60 -39 71 -49
11 -10 63 -39 115 -64 52 -26 116 -60 141 -76 25 -16 88 -44 140 -63 52 -18
107 -39 122 -45 16 -6 39 -11 52 -11 12 0 25 -7 29 -15 7 -18 33 -20 39 -2 3
9 9 9 28 0 30 -14 120 -23 262 -24 59 -1 107 -5 107 -9 0 -16 32 -19 53 -6 12
8 47 17 77 21 30 4 68 13 84 21 16 8 43 14 61 14 17 0 65 8 106 19 41 10 103
22 138 25 36 3 72 13 81 21 21 19 41 19 65 1 15 -11 30 -11 93 1 47 9 78 11
84 5 6 -6 20 -5 36 3 15 8 55 19 90 26 61 13 63 13 80 -11 24 -35 30 -57 31
-125 1 -42 9 -75 26 -110 13 -27 25 -57 25 -65 0 -22 -174 -150 -204 -150 -20
0 -33 26 -47 92 -8 36 -26 71 -56 110 -67 88 -100 98 -157 48 -39 -35 -39 -41
8 -145 35 -75 62 -176 53 -198 -4 -10 -17 -21 -29 -26 -13 -5 -59 -26 -103
-46 -44 -21 -93 -38 -110 -39 -29 -1 -30 0 -38 59 -12 92 -34 159 -70 212 -28
42 -37 48 -71 51 -32 3 -44 -2 -72 -29 -19 -18 -34 -41 -34 -50 0 -9 18 -60
40 -113 32 -76 40 -108 40 -156 0 -60 -1 -61 -35 -76 -47 -19 -105 -18 -120 3
-12 16 -15 16 -46 1 -19 -9 -47 -20 -62 -23 -21 -4 -27 -10 -23 -21 3 -9 6
-29 6 -44 0 -23 9 -35 37 -55 33 -22 48 -25 126 -25 55 0 101 6 124 15 53 22
73 20 73 -10 0 -13 7 -42 15 -62 8 -21 19 -64 24 -96 6 -32 17 -68 26 -80 8
-12 15 -33 15 -47 0 -14 12 -37 25 -53 21 -24 31 -27 83 -27 32 0 63 5 70 12
20 20 13 64 -22 135 -19 39 -36 91 -39 123 -4 30 -14 75 -23 101 -21 56 -16
70 27 91 19 8 68 32 109 52 42 20 81 36 86 36 13 0 32 -103 40 -216 11 -168
-43 -565 -111 -807 -21 -78 -14 -87 77 -87 56 0 70 3 75 18 3 9 14 36 24 59
11 23 19 51 19 62 0 11 5 32 11 48 6 15 20 87 30 158 11 72 24 159 29 195 5
36 10 203 10 373 l0 308 29 5 c17 4 38 15 47 25 9 11 25 19 34 19 10 0 34 11
54 25 20 14 39 25 42 25 14 0 144 117 189 170 75 88 81 84 89 -66 5 -106 10
-133 31 -175 14 -27 31 -49 39 -49 7 0 26 -10 41 -22 56 -44 143 -11 259 96
21 20 44 36 51 36 6 0 24 -25 40 -55 15 -30 31 -55 35 -55 5 0 35 -16 67 -35
l58 -34 50 16 c28 9 51 17 53 18 1 1 -3 16 -9 34 -10 28 -8 40 15 90 14 32 26
70 26 85 0 40 38 176 63 224 20 39 48 55 61 33 3 -4 26 -2 52 7 32 11 48 22
56 41 12 32 4 101 -17 141 -8 16 -15 43 -15 59 0 20 -7 35 -20 43 -32 20 -24
46 18 65 20 10 45 24 54 31 10 8 39 16 66 17 58 3 147 56 264 158 40 35 95 80
121 100 68 52 162 133 221 192 79 78 236 253 236 262 0 5 30 42 66 83 95 108
140 180 256 410 176 349 176 348 242 825 26 187 33 374 16 420 -6 15 -14 104
-20 199 -11 200 -30 339 -70 496 -6 25 -20 81 -31 125 -11 44 -37 116 -58 160
-230 473 -340 685 -411 790 -14 22 -30 48 -33 59 -9 22 -62 93 -141 187 -64
76 -154 153 -286 244 -47 33 -107 79 -134 103 -28 24 -66 52 -85 62 -20 10
-49 30 -64 44 -15 14 -31 26 -35 26 -10 0 -136 80 -177 112 -33 26 -100 58
-121 58 -8 0 -22 9 -31 20 -10 11 -29 20 -44 20 -14 0 -34 9 -44 20 -11 12
-31 20 -49 20 -17 0 -44 7 -61 16 -16 9 -63 19 -102 22 -44 3 -77 10 -84 18
-13 16 -69 19 -69 5 0 -6 -12 -3 -27 5 -22 11 -80 14 -275 14 -236 0 -248 1
-258 20 -10 19 -20 19 -223 17 -116 -1 -223 -3 -237 -5z m230 -207 c15 -9 41
-12 195 -20 72 -4 213 -15 315 -26 102 -10 235 -19 296 -19 105 0 112 -1 117
-21 5 -18 9 -19 27 -9 17 9 30 8 63 -5 23 -9 61 -23 84 -31 67 -23 479 -260
563 -325 19 -14 96 -71 170 -126 159 -119 258 -218 325 -328 27 -44 63 -100
80 -125 52 -75 133 -222 191 -347 31 -65 71 -149 89 -188 78 -162 140 -354
170 -520 4 -22 11 -45 16 -52 10 -11 30 -245 33 -393 1 -47 6 -94 10 -105 4
-11 9 -25 11 -32 12 -40 -35 -516 -56 -572 -6 -14 -13 -48 -15 -75 -3 -26 -11
-60 -18 -75 -8 -14 -17 -46 -21 -71 -7 -46 -79 -199 -118 -255 -12 -16 -77
-125 -143 -242 -67 -116 -155 -256 -195 -310 -81 -109 -514 -553 -539 -553 -9
0 -39 -18 -69 -40 -29 -22 -59 -40 -65 -40 -7 0 -21 -9 -31 -20 -10 -11 -31
-20 -47 -20 -16 0 -48 -8 -71 -18 -55 -25 -141 -57 -197 -75 -44 -13 -45 -15
-48 -58 -2 -38 3 -54 38 -107 22 -35 40 -69 40 -78 0 -15 -6 -18 -51 -28 -29
-6 -57 -65 -70 -146 -7 -45 -25 -103 -60 -190 -9 -25 -20 -53 -23 -62 -7 -22
-32 -14 -39 13 -3 10 -13 22 -24 25 -10 3 -32 13 -49 21 -28 14 -33 14 -73 -6
-51 -27 -131 -98 -131 -117 0 -17 -39 -19 -44 -1 -17 62 -36 163 -39 212 -4
52 -17 93 -47 155 -5 11 -27 16 -76 18 -77 3 -131 -18 -149 -57 -17 -37 -39
-21 -47 34 -4 27 -14 68 -22 90 -8 22 -17 55 -21 73 -4 17 -27 58 -53 89 l-45
56 -123 -7 c-68 -3 -136 -11 -151 -17 -15 -6 -66 -13 -113 -16 -57 -4 -95 -12
-116 -24 -39 -23 -91 -24 -116 -3 -13 13 -21 14 -31 6 -7 -7 -45 -16 -83 -22
-38 -5 -91 -14 -119 -21 -27 -6 -79 -14 -115 -18 -36 -5 -83 -13 -105 -19 -22
-5 -71 -13 -109 -16 -55 -6 -73 -3 -94 10 -19 13 -57 18 -159 22 -97 3 -138 9
-149 19 -7 8 -36 18 -63 22 -28 4 -56 13 -63 18 -7 6 -31 16 -53 23 -22 7 -63
28 -91 46 -28 19 -62 34 -76 34 -14 0 -37 9 -51 20 -14 11 -31 20 -37 20 -53
0 -347 265 -396 356 -11 21 -31 57 -44 79 -100 172 -205 380 -226 449 -14 44
-32 101 -40 126 -8 25 -14 64 -14 88 0 23 -9 67 -19 97 -11 31 -22 100 -26
157 -4 57 -14 121 -21 143 -8 22 -14 65 -14 95 0 30 -5 87 -11 125 -13 89 -18
295 -7 295 5 0 8 26 7 58 -4 111 13 336 28 367 8 17 17 53 20 80 3 28 13 79
23 115 10 36 30 110 45 165 34 128 66 227 75 240 4 6 29 60 55 120 128 297
302 599 415 720 25 28 72 83 104 123 144 179 382 401 572 533 130 90 157 105
209 115 22 4 56 20 75 35 70 55 481 250 602 286 29 8 58 19 64 24 6 5 47 12
90 16 43 3 93 12 109 19 31 14 182 13 205 -1z"/>
<path d="M5170 6254 c-30 -19 -68 -40 -85 -48 -16 -7 -56 -37 -87 -67 -32 -30
-69 -64 -83 -76 -30 -26 -32 -56 -5 -90 11 -14 20 -33 20 -42 0 -31 20 -39 83
-34 101 8 173 39 357 152 128 79 145 109 92 166 -56 62 -66 67 -154 70 -80 4
-85 2 -138 -31z"/>
<path d="M3914 5461 c-73 -37 -193 -149 -223 -209 -20 -40 -21 -48 -10 -92 7
-27 25 -62 41 -79 51 -55 90 -40 212 78 50 48 111 103 136 121 25 19 48 39 52
45 13 17 9 74 -6 104 -21 40 -36 49 -91 56 -43 6 -58 2 -111 -24z"/>
<path d="M2430 5242 c-65 -8 -184 -65 -247 -117 -23 -19 -47 -35 -53 -35 -15
0 -311 -297 -346 -348 -16 -23 -52 -75 -80 -115 -28 -39 -80 -128 -116 -197
-35 -69 -76 -144 -91 -168 -15 -23 -45 -95 -67 -160 -51 -154 -61 -181 -77
-220 -24 -56 -36 -145 -28 -208 6 -51 12 -64 45 -95 48 -45 83 -53 135 -30 22
10 58 23 81 29 44 13 135 69 229 141 33 25 105 77 160 114 97 66 123 85 237
173 75 59 314 306 373 387 115 158 151 223 196 352 32 93 32 217 1 288 -33 74
-114 147 -197 179 -73 28 -113 35 -155 30z m-894 -1457 c8 -34 -2 -57 -23 -53
-19 3 -29 38 -19 64 9 23 35 16 42 -11z"/>
<path d="M3845 1281 c-37 -9 -75 -29 -75 -40 0 -4 9 -16 20 -26 15 -14 20 -31
20 -69 0 -28 9 -88 20 -134 11 -46 20 -95 20 -109 0 -79 79 -157 134 -131 32
14 35 40 25 183 -12 171 -35 267 -74 309 -25 27 -38 29 -90 17z"/>
<path d="M4120 1207 c-29 -10 -36 -17 -38 -45 -2 -21 3 -41 13 -52 27 -30 64
-149 81 -262 13 -89 14 -127 5 -215 -6 -58 -11 -137 -11 -175 0 -38 -5 -78
-10 -89 -14 -25 14 -69 44 -69 41 0 111 100 126 181 5 27 15 60 22 72 8 15 12
75 13 187 0 139 -3 169 -17 190 -9 14 -20 44 -24 67 -3 24 -13 48 -20 54 -8 6
-14 20 -14 30 0 36 -54 118 -84 129 -35 12 -42 12 -86 -3z"/>
<path d="M4870 996 c-19 -7 -60 -23 -90 -34 -30 -12 -76 -26 -102 -33 -58 -14
-78 -35 -71 -72 6 -30 64 -77 94 -77 32 0 134 44 171 73 47 37 88 99 88 132 0
21 -5 25 -27 25 -16 -1 -44 -7 -63 -14z"/>
</g>
</svg>
