<?xml version="1.0" standalone="no"?>
<!DOCTYPE svg PUBLIC "-//W3C//DTD SVG 20010904//EN"
 "http://www.w3.org/TR/2001/REC-SVG-20010904/DTD/svg10.dtd">
<svg version="1.0" xmlns="http://www.w3.org/2000/svg"
 width="989.000000pt" height="481.000000pt" viewBox="0 0 989.000000 481.000000"
 preserveAspectRatio="xMidYMid meet">

<g transform="translate(0.000000,481.000000) scale(0.100000,-0.100000)"
fill="#000000" stroke="none">
<path d="M3025 4801 c-96 -16 -251 -140 -360 -286 -63 -85 -70 -102 -46 -110
29 -9 45 3 65 48 11 23 61 83 111 133 72 72 108 100 167 128 105 51 126 53
191 23 31 -14 63 -37 72 -50 63 -97 57 -367 -13 -637 -53 -202 -174 -582 -191
-605 -5 -5 -12 -26 -16 -45 -4 -19 -13 -46 -20 -60 -7 -14 -27 -63 -45 -110
-18 -47 -36 -89 -40 -95 -4 -5 -10 -23 -14 -40 -10 -46 -27 -85 -38 -85 -5 0
-33 25 -63 55 -52 53 -55 55 -108 55 -46 0 -63 -6 -113 -38 -158 -103 -364
-371 -364 -474 0 -37 5 -49 33 -75 42 -41 76 -53 119 -44 41 10 214 96 294
147 l57 36 -7 -28 c-4 -16 -24 -63 -45 -104 -21 -41 -42 -86 -46 -100 -4 -14
-23 -59 -42 -100 -19 -41 -43 -93 -52 -115 -28 -65 -50 -108 -72 -141 -18 -30
-18 -33 -3 -48 14 -15 19 -15 37 -3 12 7 24 20 29 28 14 27 88 189 88 194 0 3
14 36 31 73 18 37 47 103 65 148 18 44 42 98 53 120 12 21 21 48 21 60 0 12 9
32 19 45 l19 24 11 -27 c6 -15 17 -55 26 -89 59 -228 189 -389 400 -497 54
-27 221 -62 297 -62 93 0 274 65 397 142 18 11 24 9 48 -13 45 -41 76 -59 103
-59 40 0 116 54 205 146 45 46 84 84 87 84 3 0 17 -24 32 -53 30 -61 83 -118
143 -154 96 -56 155 -12 446 341 21 25 42 46 47 46 6 0 7 -24 4 -58 -14 -134
71 -264 155 -237 37 11 125 91 171 154 52 71 70 77 70 24 0 -48 39 -113 89
-147 46 -32 81 -30 142 11 39 25 119 114 119 132 0 5 12 23 26 41 32 38 49 28
59 -33 14 -87 67 -144 167 -182 44 -16 51 -16 121 -1 41 9 83 23 93 31 25 19
44 19 66 -2 44 -40 128 -2 241 108 38 38 73 69 77 69 4 0 15 -19 25 -42 28
-65 72 -108 112 -108 47 0 197 103 412 286 l54 45 36 -41 c29 -33 45 -43 79
-47 23 -3 45 -10 49 -16 10 -17 -173 -184 -233 -212 -61 -29 -68 -48 -29 -85
24 -22 28 -23 68 -12 23 7 80 21 127 32 94 21 158 45 302 114 104 49 155 59
144 29 -19 -48 -16 -99 6 -138 65 -110 150 -111 345 -2 82 46 93 55 93 80 0
15 -5 27 -12 27 -7 0 -71 -30 -142 -65 -71 -36 -142 -65 -158 -65 -42 0 -70
49 -65 115 6 79 24 106 96 142 75 38 125 82 153 137 52 101 -44 128 -151 43
-22 -18 -62 -62 -90 -98 -39 -53 -60 -70 -103 -88 -29 -13 -125 -55 -212 -93
-158 -70 -236 -93 -236 -69 0 7 12 22 27 34 48 38 173 171 179 190 11 35 -22
55 -102 62 -68 7 -74 9 -74 30 0 12 14 39 30 60 35 44 34 54 -3 75 -24 13 -30
13 -51 0 -31 -20 -117 -87 -235 -185 -130 -107 -299 -225 -315 -219 -36 14
-68 159 -52 233 13 56 0 66 -99 75 -69 6 -78 5 -133 -23 -65 -33 -144 -112
-169 -170 -8 -20 -20 -58 -27 -86 -11 -49 -13 -51 -71 -74 -33 -13 -83 -26
-111 -29 -50 -4 -54 -2 -98 38 -38 35 -50 55 -67 113 -13 45 -19 84 -15 107 6
42 -14 80 -44 80 -20 0 -40 -22 -144 -166 -69 -94 -128 -154 -153 -154 -6 0
-22 15 -35 33 -31 39 -45 153 -27 205 10 29 9 37 -8 60 -31 41 -49 39 -80 -10
-74 -115 -237 -308 -260 -308 -4 0 -18 15 -30 33 -21 30 -23 45 -23 153 0 86
4 127 15 148 20 39 19 55 -7 76 -20 16 -26 16 -50 4 -14 -8 -29 -22 -33 -33
-3 -11 -29 -48 -58 -84 -150 -184 -237 -287 -284 -334 -45 -46 -58 -53 -91
-53 -34 0 -45 7 -89 53 -41 43 -53 64 -64 111 -11 51 -10 67 6 131 10 40 15
80 12 88 -3 9 -22 19 -43 23 l-36 7 6 43 c5 37 2 48 -19 71 l-24 28 -96 -50
c-53 -27 -114 -64 -135 -82 -64 -55 -160 -213 -174 -286 -12 -63 -88 -118
-251 -183 -64 -26 -81 -28 -195 -28 -196 1 -286 39 -425 178 -82 83 -112 131
-160 257 -45 120 -72 279 -46 279 25 0 281 239 641 600 223 223 474 468 558
545 171 156 307 307 390 435 30 47 64 98 74 113 28 41 21 71 -19 75 -26 3 -33
-1 -33 -14 0 -40 -134 -230 -262 -374 -42 -47 -159 -161 -260 -254 -100 -94
-340 -328 -533 -521 -342 -343 -535 -525 -556 -525 -18 0 -2 45 36 105 19 30
35 62 35 71 0 10 8 36 19 58 18 41 64 157 108 276 63 169 149 443 194 619 45
175 51 209 56 340 7 179 -5 262 -48 326 -59 87 -134 116 -254 96z m-284 -1768
c25 -25 54 -142 45 -179 -8 -32 -86 -113 -157 -161 -25 -18 -94 -57 -152 -87
-147 -77 -207 -75 -207 4 0 32 38 117 83 185 50 76 190 213 248 243 51 27 111
25 140 -5z m1582 -397 c10 -25 -50 -100 -159 -200 -100 -92 -133 -111 -126
-72 9 50 120 187 195 242 65 47 82 52 90 30z m2247 -50 c0 -18 -165 -166 -185
-166 -11 0 -12 6 -4 28 28 77 189 195 189 138z m-2200 -77 c0 -32 -84 -155
-159 -232 -97 -100 -144 -120 -175 -72 -9 13 -16 28 -16 33 0 5 32 33 72 63
39 29 112 92 162 141 50 48 97 87 104 88 6 0 12 -10 12 -21z m2140 -101 c-62
-58 -116 -98 -132 -98 -20 0 -4 23 35 52 24 18 68 52 97 76 76 62 76 40 0 -30z"/>
<path d="M9261 3649 c-188 -60 -324 -223 -524 -631 -48 -97 -87 -182 -87 -190
0 -7 -11 -35 -25 -63 -13 -27 -25 -56 -25 -63 0 -8 -7 -26 -15 -40 -18 -33
-42 -99 -60 -167 -7 -27 -20 -68 -28 -90 -48 -130 -108 -357 -157 -595 -12
-58 -28 -132 -35 -165 -8 -33 -21 -104 -30 -157 -8 -54 -18 -103 -20 -110 -3
-7 -12 -58 -20 -113 -23 -152 -35 -223 -50 -305 -53 -277 -77 -613 -60 -834 6
-91 9 -98 32 -109 21 -9 27 -8 40 8 9 12 12 30 8 45 -4 14 -9 124 -12 245 -5
221 2 335 32 510 8 50 24 149 35 220 20 129 44 262 81 465 89 482 147 707 286
1105 17 49 62 163 73 184 4 9 18 43 30 76 34 89 124 265 198 390 77 129 204
263 292 309 68 36 204 49 243 23 48 -31 60 -149 31 -318 -31 -180 -154 -374
-289 -454 -25 -15 -11 -53 22 -61 20 -5 33 2 71 38 73 70 105 88 154 88 24 0
52 -6 62 -13 38 -28 28 -185 -19 -277 -39 -77 -140 -203 -225 -283 -83 -77
-99 -107 -55 -107 29 0 137 90 206 171 62 73 126 170 155 234 30 64 43 193 25
247 -16 47 -76 88 -131 88 -46 0 -51 14 -19 51 77 89 139 339 119 482 -11 73
-27 112 -56 138 -60 53 -144 62 -253 28z"/>
<path d="M455 3311 c-43 -18 -48 -36 -31 -93 43 -139 62 -191 79 -209 26 -28
15 -45 -33 -52 -105 -14 -205 -128 -241 -275 -23 -96 -23 -115 0 -227 22 -100
56 -170 112 -226 85 -85 369 -132 369 -61 0 17 -11 20 -98 25 -72 3 -110 11
-139 25 -83 43 -143 112 -162 189 -6 21 -15 56 -20 78 -34 131 24 332 114 391
32 21 124 34 155 22 14 -5 46 -30 71 -55 52 -50 84 -52 95 -8 5 20 -1 30 -27
52 -106 86 -172 185 -190 282 -14 81 -9 101 27 101 94 0 262 -85 388 -197 69
-62 94 -100 200 -305 52 -101 101 -196 110 -213 9 -16 16 -35 16 -42 0 -7 6
-27 14 -45 7 -18 24 -67 36 -108 13 -41 31 -95 41 -120 9 -25 27 -79 39 -120
12 -41 30 -100 40 -130 10 -30 30 -107 45 -170 14 -63 42 -162 60 -220 96
-300 210 -788 295 -1262 16 -86 38 -186 50 -222 21 -61 25 -66 51 -66 26 0 29
3 29 35 0 20 -6 51 -14 70 -8 19 -18 56 -21 82 -4 26 -22 120 -40 208 -19 88
-46 221 -60 295 -14 74 -33 160 -40 190 -8 30 -26 107 -40 170 -14 63 -35 149
-46 190 -11 41 -27 102 -35 135 -9 33 -33 116 -54 185 -21 69 -48 163 -60 210
-11 47 -29 112 -40 145 -11 33 -33 105 -49 160 -55 187 -118 369 -157 451 -13
28 -24 58 -24 65 0 8 -4 19 -9 25 -11 10 -38 60 -104 189 -110 214 -200 300
-432 414 -80 40 -99 45 -170 48 -44 1 -89 -1 -100 -6z"/>
</g>
</svg>
